<svg width="40" height="40" viewBox="0 0 40 40" fill="none" xmlns="http://www.w3.org/2000/svg">
<g clip-path="url(#clip0_131_4848)">
<path d="M38.1429 23V33.8571L24.3128 33.8571L24.3123 33.8571L24.3109 33.857C24.3106 33.8569 24.3101 33.8569 24.3096 33.8568C24.3084 33.8566 24.3068 33.8562 24.305 33.8558C24.2994 33.8543 24.2911 33.8514 24.2809 33.8459C23.9402 33.6626 23.2855 33.3285 22.5288 33.0379C21.7936 32.7555 20.8631 32.4746 20 32.4746C19.1369 32.4746 18.2065 32.7555 17.4713 33.0379C16.7145 33.3285 16.0599 33.6626 15.7192 33.8459C15.709 33.8514 15.7007 33.8543 15.6951 33.8558C15.6924 33.8565 15.6904 33.8568 15.6891 33.857L15.6877 33.8571L15.6873 33.8571H1.85718V23L38.1429 23Z" fill="#FFF3CC" stroke="#17191C" stroke-width="2"/>
<path d="M1.85718 2.1939L19.2857 7.31994L19.2857 29.2352L1.85718 24.1092L1.85718 2.1939Z" fill="#FFFAEB" stroke="#17191C" stroke-width="2"/>
<path d="M20.7144 7.31994L38.1429 2.1939L38.1429 24.1092L20.7144 29.2352L20.7144 7.31994Z" fill="#FFF3CC" stroke="#17191C" stroke-width="2"/>
<path d="M39.7142 9.71387L39.7142 35.4282L24.1839 35.4282C24.1839 35.4282 22.8365 38.2853 19.9999 38.2853C17.0215 38.2853 15.816 35.4282 15.816 35.4282L0.285642 35.4282L0.285642 9.71387" stroke="#FF4C4C" stroke-width="4"/>
<path d="M19.1428 31.2857L3.14282 28M16.4285 32.2857L3.14282 31.2857M20.8571 31.2857L36.8571 28M23.5714 32.2857L36.8571 31.2857" stroke="#C1B89C" stroke-width="2"/>
<path d="M4.85718 5.71387L16.5715 8.99958V10.1424L4.85718 6.85672V5.71387Z" fill="#17191C"/>
<path d="M4.85718 9L16.5715 12.2857V13.4286L4.85718 10.1429V9Z" fill="#17191C"/>
<path d="M4.85718 12.2852L16.5715 15.5709V16.7137L4.85718 13.428V12.2852Z" fill="#17191C"/>
<path d="M4.85718 15.5713L16.5715 18.857V19.9999L4.85718 16.7141V15.5713Z" fill="#17191C"/>
<path d="M4.85718 18.8564L16.5715 22.1422V23.285L4.85718 19.9993V18.8564Z" fill="#17191C"/>
<path d="M35.1428 5.71387L23.4285 8.99958V10.1424L35.1428 6.85672V5.71387Z" fill="#17191C"/>
<path d="M35.1428 9L23.4285 12.2857V13.4286L35.1428 10.1429V9Z" fill="#17191C"/>
<path d="M29.1428 14L23.4285 15.5714V16.7143L29.1428 15.1429V14Z" fill="#17191C"/>
</g>
<defs>
<clipPath id="clip0_131_4848">
<rect width="40" height="40" fill="white"/>
</clipPath>
</defs>
</svg>
