<svg width="1485" height="711" viewBox="0 0 1485 711" fill="none" xmlns="http://www.w3.org/2000/svg">
<path d="M51.9746 559.831H44.8837C44.611 558.316 44.1034 556.983 43.361 555.831C42.6186 554.68 41.7095 553.702 40.6337 552.899C39.558 552.096 38.3534 551.49 37.0201 551.081C35.7019 550.672 34.3004 550.468 32.8155 550.468C30.1337 550.468 27.7322 551.142 25.611 552.49C23.5049 553.839 21.8383 555.816 20.611 558.422C19.3989 561.028 18.7928 564.21 18.7928 567.968C18.7928 571.755 19.3989 574.952 20.611 577.558C21.8383 580.164 23.5125 582.134 25.6337 583.468C27.7549 584.801 30.1413 585.468 32.7928 585.468C34.2625 585.468 35.6565 585.271 36.9746 584.877C38.308 584.468 39.5125 583.869 40.5883 583.081C41.664 582.293 42.5731 581.331 43.3155 580.195C44.0731 579.043 44.5958 577.725 44.8837 576.24L51.9746 576.263C51.5958 578.551 50.861 580.657 49.7701 582.581C48.6943 584.49 47.308 586.142 45.611 587.536C43.9292 588.914 42.0049 589.983 39.8383 590.74C37.6716 591.498 35.308 591.877 32.7474 591.877C28.7171 591.877 25.1261 590.922 21.9746 589.013C18.8231 587.089 16.3383 584.339 14.5201 580.763C12.7171 577.187 11.8155 572.922 11.8155 567.968C11.8155 562.998 12.7246 558.733 14.5428 555.172C16.361 551.596 18.8458 548.854 21.9974 546.945C25.1489 545.021 28.7322 544.058 32.7474 544.058C35.2171 544.058 37.5201 544.414 39.6565 545.127C41.808 545.824 43.7398 546.854 45.4519 548.218C47.164 549.566 48.5807 551.218 49.7019 553.172C50.8231 555.111 51.5807 557.331 51.9746 559.831ZM73.8331 591.945C70.5604 591.945 67.7043 591.195 65.265 589.695C62.8256 588.195 60.9316 586.096 59.5831 583.399C58.2346 580.702 57.5604 577.551 57.5604 573.945C57.5604 570.324 58.2346 567.157 59.5831 564.445C60.9316 561.733 62.8256 559.627 65.265 558.127C67.7043 556.627 70.5604 555.877 73.8331 555.877C77.1059 555.877 79.9619 556.627 82.4013 558.127C84.8407 559.627 86.7346 561.733 88.0831 564.445C89.4316 567.157 90.1059 570.324 90.1059 573.945C90.1059 577.551 89.4316 580.702 88.0831 583.399C86.7346 586.096 84.8407 588.195 82.4013 589.695C79.9619 591.195 77.1059 591.945 73.8331 591.945ZM73.8559 586.24C75.9771 586.24 77.7346 585.68 79.1286 584.558C80.5225 583.437 81.5528 581.945 82.2195 580.081C82.9013 578.218 83.2422 576.164 83.2422 573.922C83.2422 571.695 82.9013 569.649 82.2195 567.786C81.5528 565.907 80.5225 564.399 79.1286 563.263C77.7346 562.127 75.9771 561.558 73.8559 561.558C71.7195 561.558 69.9468 562.127 68.5377 563.263C67.1437 564.399 66.1059 565.907 65.424 567.786C64.7574 569.649 64.424 571.695 64.424 573.922C64.424 576.164 64.7574 578.218 65.424 580.081C66.1059 581.945 67.1437 583.437 68.5377 584.558C69.9468 585.68 71.7195 586.24 73.8559 586.24ZM96.9871 604.331V556.331H103.623V561.99H104.192C104.586 561.263 105.154 560.422 105.896 559.468C106.639 558.513 107.669 557.68 108.987 556.968C110.305 556.24 112.048 555.877 114.214 555.877C117.033 555.877 119.548 556.589 121.76 558.013C123.972 559.437 125.707 561.49 126.964 564.172C128.237 566.854 128.873 570.081 128.873 573.854C128.873 577.627 128.245 580.861 126.987 583.558C125.73 586.24 124.002 588.308 121.805 589.763C119.608 591.202 117.101 591.922 114.283 591.922C112.161 591.922 110.426 591.566 109.078 590.854C107.745 590.142 106.699 589.308 105.942 588.354C105.184 587.399 104.601 586.551 104.192 585.808H103.783V604.331H96.9871ZM103.646 573.786C103.646 576.24 104.002 578.392 104.714 580.24C105.426 582.089 106.457 583.536 107.805 584.581C109.154 585.611 110.805 586.127 112.76 586.127C114.79 586.127 116.487 585.589 117.851 584.513C119.214 583.422 120.245 581.945 120.942 580.081C121.654 578.218 122.01 576.119 122.01 573.786C122.01 571.483 121.661 569.414 120.964 567.581C120.283 565.748 119.252 564.301 117.873 563.24C116.51 562.18 114.805 561.649 112.76 561.649C110.79 561.649 109.123 562.157 107.76 563.172C106.411 564.187 105.389 565.604 104.692 567.422C103.995 569.24 103.646 571.361 103.646 573.786ZM138.891 604.331C137.876 604.331 136.952 604.248 136.118 604.081C135.285 603.93 134.664 603.763 134.255 603.581L135.891 598.013C137.133 598.346 138.24 598.49 139.209 598.445C140.179 598.399 141.035 598.036 141.777 597.354C142.535 596.672 143.202 595.558 143.777 594.013L144.618 591.695L131.846 556.331H139.118L147.959 583.422H148.323L157.164 556.331H164.459L150.073 595.899C149.406 597.718 148.558 599.255 147.527 600.513C146.497 601.786 145.27 602.74 143.846 603.377C142.421 604.013 140.77 604.331 138.891 604.331ZM170.142 591.24V556.331H176.71V561.877H177.073C177.71 559.998 178.831 558.521 180.437 557.445C182.058 556.354 183.892 555.808 185.937 555.808C186.361 555.808 186.861 555.824 187.437 555.854C188.028 555.884 188.49 555.922 188.823 555.968V562.468C188.551 562.392 188.066 562.308 187.369 562.218C186.672 562.111 185.975 562.058 185.278 562.058C183.672 562.058 182.24 562.399 180.983 563.081C179.74 563.748 178.755 564.68 178.028 565.877C177.301 567.058 176.937 568.407 176.937 569.922V591.24H170.142ZM194 591.24V556.331H200.796V591.24H194ZM197.432 550.945C196.25 550.945 195.235 550.551 194.386 549.763C193.553 548.96 193.136 548.005 193.136 546.899C193.136 545.778 193.553 544.824 194.386 544.036C195.235 543.233 196.25 542.831 197.432 542.831C198.614 542.831 199.621 543.233 200.455 544.036C201.303 544.824 201.727 545.778 201.727 546.899C201.727 548.005 201.303 548.96 200.455 549.763C199.621 550.551 198.614 550.945 197.432 550.945ZM223.87 605.058C221.097 605.058 218.711 604.695 216.711 603.968C214.726 603.24 213.105 602.278 211.847 601.081C210.59 599.884 209.65 598.574 209.029 597.149L214.87 594.74C215.279 595.407 215.824 596.111 216.506 596.854C217.203 597.611 218.143 598.255 219.324 598.786C220.521 599.316 222.059 599.581 223.938 599.581C226.514 599.581 228.643 598.952 230.324 597.695C232.006 596.452 232.847 594.468 232.847 591.74V584.877H232.415C232.006 585.619 231.415 586.445 230.643 587.354C229.885 588.263 228.84 589.051 227.506 589.718C226.173 590.384 224.438 590.718 222.302 590.718C219.544 590.718 217.059 590.074 214.847 588.786C212.65 587.483 210.908 585.566 209.62 583.036C208.347 580.49 207.711 577.361 207.711 573.649C207.711 569.937 208.34 566.755 209.597 564.104C210.87 561.452 212.612 559.422 214.824 558.013C217.037 556.589 219.544 555.877 222.347 555.877C224.514 555.877 226.264 556.24 227.597 556.968C228.931 557.68 229.968 558.513 230.711 559.468C231.468 560.422 232.052 561.263 232.461 561.99H232.961V556.331H239.62V592.013C239.62 595.013 238.923 597.475 237.529 599.399C236.135 601.324 234.249 602.748 231.87 603.672C229.506 604.596 226.84 605.058 223.87 605.058ZM223.802 585.081C225.756 585.081 227.408 584.627 228.756 583.718C230.12 582.793 231.15 581.475 231.847 579.763C232.559 578.036 232.915 575.968 232.915 573.558C232.915 571.21 232.567 569.142 231.87 567.354C231.173 565.566 230.15 564.172 228.802 563.172C227.453 562.157 225.787 561.649 223.802 561.649C221.756 561.649 220.052 562.18 218.688 563.24C217.324 564.286 216.294 565.71 215.597 567.513C214.915 569.316 214.574 571.331 214.574 573.558C214.574 575.846 214.923 577.854 215.62 579.581C216.317 581.308 217.347 582.657 218.711 583.627C220.09 584.596 221.787 585.081 223.802 585.081ZM254.825 570.513V591.24H248.03V544.695H254.734V562.013H255.166C255.984 560.134 257.234 558.642 258.916 557.536C260.598 556.43 262.795 555.877 265.507 555.877C267.901 555.877 269.992 556.369 271.78 557.354C273.583 558.339 274.977 559.808 275.961 561.763C276.961 563.702 277.461 566.127 277.461 569.036V591.24H270.666V569.854C270.666 567.293 270.007 565.308 268.689 563.899C267.371 562.475 265.537 561.763 263.189 561.763C261.583 561.763 260.143 562.104 258.871 562.786C257.613 563.468 256.621 564.468 255.893 565.786C255.181 567.089 254.825 568.664 254.825 570.513ZM302.121 556.331V561.786H283.053V556.331H302.121ZM288.167 547.968H294.962V580.99C294.962 582.308 295.159 583.301 295.553 583.968C295.947 584.619 296.454 585.066 297.076 585.308C297.712 585.536 298.401 585.649 299.144 585.649C299.689 585.649 300.167 585.611 300.576 585.536C300.985 585.46 301.303 585.399 301.53 585.354L302.757 590.968C302.363 591.119 301.803 591.271 301.076 591.422C300.348 591.589 299.439 591.68 298.348 591.695C296.56 591.725 294.894 591.407 293.348 590.74C291.803 590.074 290.553 589.043 289.598 587.649C288.644 586.255 288.167 584.505 288.167 582.399V547.968ZM351.099 556.922C350.857 554.771 349.857 553.104 348.099 551.922C346.342 550.725 344.13 550.127 341.463 550.127C339.554 550.127 337.902 550.43 336.508 551.036C335.115 551.627 334.031 552.445 333.258 553.49C332.501 554.521 332.122 555.695 332.122 557.013C332.122 558.119 332.38 559.074 332.895 559.877C333.425 560.68 334.115 561.354 334.963 561.899C335.827 562.43 336.751 562.877 337.736 563.24C338.721 563.589 339.668 563.877 340.577 564.104L345.122 565.286C346.607 565.649 348.13 566.142 349.69 566.763C351.251 567.384 352.698 568.202 354.031 569.218C355.365 570.233 356.44 571.49 357.258 572.99C358.092 574.49 358.508 576.286 358.508 578.377C358.508 581.013 357.827 583.354 356.463 585.399C355.115 587.445 353.152 589.058 350.577 590.24C348.016 591.422 344.918 592.013 341.281 592.013C337.796 592.013 334.781 591.46 332.236 590.354C329.69 589.248 327.698 587.68 326.258 585.649C324.819 583.604 324.024 581.18 323.872 578.377H330.918C331.054 580.058 331.599 581.46 332.554 582.581C333.524 583.687 334.758 584.513 336.258 585.058C337.774 585.589 339.433 585.854 341.236 585.854C343.221 585.854 344.986 585.543 346.531 584.922C348.092 584.286 349.319 583.407 350.213 582.286C351.107 581.149 351.554 579.824 351.554 578.308C351.554 576.93 351.16 575.801 350.372 574.922C349.599 574.043 348.546 573.316 347.213 572.74C345.895 572.164 344.402 571.657 342.736 571.218L337.236 569.718C333.508 568.702 330.554 567.21 328.372 565.24C326.205 563.271 325.122 560.664 325.122 557.422C325.122 554.74 325.849 552.399 327.304 550.399C328.758 548.399 330.728 546.846 333.213 545.74C335.698 544.619 338.501 544.058 341.622 544.058C344.774 544.058 347.554 544.611 349.963 545.718C352.387 546.824 354.296 548.346 355.69 550.286C357.084 552.21 357.812 554.422 357.872 556.922H351.099ZM381.947 556.331V561.786H362.878V556.331H381.947ZM367.992 547.968H374.787V580.99C374.787 582.308 374.984 583.301 375.378 583.968C375.772 584.619 376.28 585.066 376.901 585.308C377.537 585.536 378.227 585.649 378.969 585.649C379.515 585.649 379.992 585.611 380.401 585.536C380.81 585.46 381.128 585.399 381.356 585.354L382.583 590.968C382.189 591.119 381.628 591.271 380.901 591.422C380.174 591.589 379.265 591.68 378.174 591.695C376.386 591.725 374.719 591.407 373.174 590.74C371.628 590.074 370.378 589.043 369.424 587.649C368.469 586.255 367.992 584.505 367.992 582.399V547.968ZM403.43 591.945C399.991 591.945 397.029 591.21 394.544 589.74C392.074 588.255 390.165 586.172 388.816 583.49C387.483 580.793 386.816 577.634 386.816 574.013C386.816 570.437 387.483 567.286 388.816 564.558C390.165 561.831 392.044 559.702 394.453 558.172C396.877 556.642 399.71 555.877 402.953 555.877C404.922 555.877 406.832 556.202 408.68 556.854C410.529 557.505 412.188 558.528 413.657 559.922C415.127 561.316 416.286 563.127 417.135 565.354C417.983 567.566 418.407 570.255 418.407 573.422V575.831H390.657V570.74H411.748C411.748 568.952 411.385 567.369 410.657 565.99C409.93 564.596 408.907 563.498 407.589 562.695C406.286 561.892 404.756 561.49 402.998 561.49C401.089 561.49 399.422 561.96 397.998 562.899C396.589 563.824 395.498 565.036 394.725 566.536C393.968 568.021 393.589 569.634 393.589 571.377V575.354C393.589 577.687 393.998 579.672 394.816 581.308C395.65 582.945 396.809 584.195 398.294 585.058C399.779 585.907 401.513 586.331 403.498 586.331C404.786 586.331 405.96 586.149 407.021 585.786C408.082 585.407 408.998 584.846 409.771 584.104C410.544 583.361 411.135 582.445 411.544 581.354L417.975 582.513C417.46 584.407 416.536 586.066 415.203 587.49C413.885 588.899 412.225 589.998 410.225 590.786C408.241 591.558 405.975 591.945 403.43 591.945ZM435.402 592.013C433.19 592.013 431.19 591.604 429.402 590.786C427.614 589.952 426.198 588.748 425.152 587.172C424.122 585.596 423.607 583.664 423.607 581.377C423.607 579.407 423.986 577.786 424.743 576.513C425.501 575.24 426.523 574.233 427.811 573.49C429.099 572.748 430.539 572.187 432.129 571.808C433.72 571.43 435.342 571.142 436.993 570.945C439.084 570.702 440.781 570.505 442.084 570.354C443.387 570.187 444.334 569.922 444.925 569.558C445.516 569.195 445.811 568.604 445.811 567.786V567.627C445.811 565.642 445.251 564.104 444.129 563.013C443.023 561.922 441.372 561.377 439.175 561.377C436.887 561.377 435.084 561.884 433.766 562.899C432.463 563.899 431.561 565.013 431.061 566.24L424.675 564.786C425.432 562.664 426.539 560.952 427.993 559.649C429.463 558.331 431.152 557.377 433.061 556.786C434.97 556.18 436.978 555.877 439.084 555.877C440.478 555.877 441.955 556.043 443.516 556.377C445.092 556.695 446.561 557.286 447.925 558.149C449.304 559.013 450.432 560.248 451.311 561.854C452.19 563.445 452.629 565.513 452.629 568.058V591.24H445.993V586.468H445.72C445.281 587.346 444.622 588.21 443.743 589.058C442.864 589.907 441.736 590.611 440.357 591.172C438.978 591.733 437.326 592.013 435.402 592.013ZM436.879 586.558C438.758 586.558 440.364 586.187 441.698 585.445C443.046 584.702 444.069 583.733 444.766 582.536C445.478 581.324 445.834 580.028 445.834 578.649V574.149C445.592 574.392 445.122 574.619 444.425 574.831C443.743 575.028 442.963 575.202 442.084 575.354C441.205 575.49 440.349 575.619 439.516 575.74C438.682 575.846 437.986 575.937 437.425 576.013C436.107 576.18 434.902 576.46 433.811 576.854C432.736 577.248 431.872 577.816 431.22 578.558C430.584 579.286 430.266 580.255 430.266 581.468C430.266 583.149 430.887 584.422 432.129 585.286C433.372 586.134 434.955 586.558 436.879 586.558ZM474.045 591.922C471.227 591.922 468.711 591.202 466.499 589.763C464.302 588.308 462.575 586.24 461.318 583.558C460.075 580.861 459.454 577.627 459.454 573.854C459.454 570.081 460.083 566.854 461.34 564.172C462.613 561.49 464.355 559.437 466.568 558.013C468.78 556.589 471.287 555.877 474.09 555.877C476.257 555.877 477.999 556.24 479.318 556.968C480.651 557.68 481.681 558.513 482.408 559.468C483.151 560.422 483.727 561.263 484.136 561.99H484.545V544.695H491.34V591.24H484.704V585.808H484.136C483.727 586.551 483.136 587.399 482.363 588.354C481.605 589.308 480.56 590.142 479.227 590.854C477.893 591.566 476.166 591.922 474.045 591.922ZM475.545 586.127C477.499 586.127 479.151 585.611 480.499 584.581C481.863 583.536 482.893 582.089 483.59 580.24C484.302 578.392 484.658 576.24 484.658 573.786C484.658 571.361 484.31 569.24 483.613 567.422C482.916 565.604 481.893 564.187 480.545 563.172C479.196 562.157 477.53 561.649 475.545 561.649C473.499 561.649 471.795 562.18 470.431 563.24C469.068 564.301 468.037 565.748 467.34 567.581C466.658 569.414 466.318 571.483 466.318 573.786C466.318 576.119 466.666 578.218 467.363 580.081C468.06 581.945 469.09 583.422 470.454 584.513C471.833 585.589 473.53 586.127 475.545 586.127ZM504.631 604.331C503.615 604.331 502.691 604.248 501.858 604.081C501.024 603.93 500.403 603.763 499.994 603.581L501.631 598.013C502.873 598.346 503.979 598.49 504.949 598.445C505.918 598.399 506.774 598.036 507.517 597.354C508.274 596.672 508.941 595.558 509.517 594.013L510.358 591.695L497.585 556.331H504.858L513.699 583.422H514.062L522.903 556.331H530.199L515.812 595.899C515.146 597.718 514.297 599.255 513.267 600.513C512.237 601.786 511.009 602.74 509.585 603.377C508.161 604.013 506.509 604.331 504.631 604.331ZM538.171 591.672C536.928 591.672 535.86 591.233 534.966 590.354C534.072 589.46 533.625 588.384 533.625 587.127C533.625 585.884 534.072 584.824 534.966 583.945C535.86 583.051 536.928 582.604 538.171 582.604C539.413 582.604 540.481 583.051 541.375 583.945C542.269 584.824 542.716 585.884 542.716 587.127C542.716 587.96 542.504 588.725 542.08 589.422C541.671 590.104 541.125 590.649 540.444 591.058C539.762 591.468 539.004 591.672 538.171 591.672ZM571.075 591.24H563.621L580.371 544.695H588.484L605.234 591.24H597.78L584.621 553.149H584.257L571.075 591.24ZM572.325 573.013H596.507V578.922H572.325V573.013ZM617.502 544.695V591.24H610.707V544.695H617.502ZM632.736 544.695V591.24H625.94V544.695H632.736ZM657.407 591.24V556.331H663.975V561.877H664.339C664.975 559.998 666.097 558.521 667.703 557.445C669.324 556.354 671.157 555.808 673.203 555.808C673.627 555.808 674.127 555.824 674.703 555.854C675.293 555.884 675.756 555.922 676.089 555.968V562.468C675.816 562.392 675.331 562.308 674.634 562.218C673.937 562.111 673.24 562.058 672.543 562.058C670.937 562.058 669.506 562.399 668.248 563.081C667.006 563.748 666.021 564.68 665.293 565.877C664.566 567.058 664.203 568.407 664.203 569.922V591.24H657.407ZM681.266 591.24V556.331H688.061V591.24H681.266ZM684.697 550.945C683.516 550.945 682.5 550.551 681.652 549.763C680.819 548.96 680.402 548.005 680.402 546.899C680.402 545.778 680.819 544.824 681.652 544.036C682.5 543.233 683.516 542.831 684.697 542.831C685.879 542.831 686.887 543.233 687.72 544.036C688.569 544.824 688.993 545.778 688.993 546.899C688.993 548.005 688.569 548.96 687.72 549.763C686.887 550.551 685.879 550.945 684.697 550.945ZM711.135 605.058C708.363 605.058 705.976 604.695 703.976 603.968C701.992 603.24 700.37 602.278 699.113 601.081C697.855 599.884 696.916 598.574 696.295 597.149L702.135 594.74C702.545 595.407 703.09 596.111 703.772 596.854C704.469 597.611 705.408 598.255 706.59 598.786C707.787 599.316 709.325 599.581 711.204 599.581C713.779 599.581 715.908 598.952 717.59 597.695C719.272 596.452 720.113 594.468 720.113 591.74V584.877H719.681C719.272 585.619 718.681 586.445 717.908 587.354C717.151 588.263 716.105 589.051 714.772 589.718C713.438 590.384 711.704 590.718 709.567 590.718C706.81 590.718 704.325 590.074 702.113 588.786C699.916 587.483 698.173 585.566 696.885 583.036C695.613 580.49 694.976 577.361 694.976 573.649C694.976 569.937 695.605 566.755 696.863 564.104C698.135 561.452 699.878 559.422 702.09 558.013C704.302 556.589 706.81 555.877 709.613 555.877C711.779 555.877 713.529 556.24 714.863 556.968C716.196 557.68 717.234 558.513 717.976 559.468C718.734 560.422 719.317 561.263 719.726 561.99H720.226V556.331H726.885V592.013C726.885 595.013 726.188 597.475 724.795 599.399C723.401 601.324 721.514 602.748 719.135 603.672C716.772 604.596 714.105 605.058 711.135 605.058ZM711.067 585.081C713.022 585.081 714.673 584.627 716.022 583.718C717.385 582.793 718.416 581.475 719.113 579.763C719.825 578.036 720.181 575.968 720.181 573.558C720.181 571.21 719.832 569.142 719.135 567.354C718.438 565.566 717.416 564.172 716.067 563.172C714.719 562.157 713.052 561.649 711.067 561.649C709.022 561.649 707.317 562.18 705.954 563.24C704.59 564.286 703.56 565.71 702.863 567.513C702.181 569.316 701.84 571.331 701.84 573.558C701.84 575.846 702.188 577.854 702.885 579.581C703.582 581.308 704.613 582.657 705.976 583.627C707.355 584.596 709.052 585.081 711.067 585.081ZM742.091 570.513V591.24H735.295V544.695H742V562.013H742.431C743.25 560.134 744.5 558.642 746.181 557.536C747.863 556.43 750.06 555.877 752.772 555.877C755.166 555.877 757.257 556.369 759.045 557.354C760.848 558.339 762.242 559.808 763.227 561.763C764.227 563.702 764.727 566.127 764.727 569.036V591.24H757.931V569.854C757.931 567.293 757.272 565.308 755.954 563.899C754.636 562.475 752.803 561.763 750.454 561.763C748.848 561.763 747.409 562.104 746.136 562.786C744.878 563.468 743.886 564.468 743.159 565.786C742.447 567.089 742.091 568.664 742.091 570.513ZM789.387 556.331V561.786H770.318V556.331H789.387ZM775.432 547.968H782.227V580.99C782.227 582.308 782.424 583.301 782.818 583.968C783.212 584.619 783.72 585.066 784.341 585.308C784.977 585.536 785.667 585.649 786.409 585.649C786.955 585.649 787.432 585.611 787.841 585.536C788.25 585.46 788.568 585.399 788.796 585.354L790.023 590.968C789.629 591.119 789.068 591.271 788.341 591.422C787.614 591.589 786.705 591.68 785.614 591.695C783.826 591.725 782.159 591.407 780.614 590.74C779.068 590.074 777.818 589.043 776.864 587.649C775.909 586.255 775.432 584.505 775.432 582.399V547.968ZM821.796 564.854L815.637 565.945C815.38 565.157 814.97 564.407 814.41 563.695C813.864 562.983 813.122 562.399 812.183 561.945C811.243 561.49 810.069 561.263 808.66 561.263C806.736 561.263 805.13 561.695 803.842 562.558C802.554 563.407 801.91 564.505 801.91 565.854C801.91 567.021 802.342 567.96 803.205 568.672C804.069 569.384 805.463 569.968 807.387 570.422L812.933 571.695C816.145 572.437 818.539 573.581 820.114 575.127C821.69 576.672 822.478 578.68 822.478 581.149C822.478 583.24 821.872 585.104 820.66 586.74C819.463 588.361 817.789 589.634 815.637 590.558C813.501 591.483 811.023 591.945 808.205 591.945C804.296 591.945 801.107 591.111 798.637 589.445C796.167 587.763 794.652 585.377 794.092 582.286L800.66 581.286C801.069 582.998 801.91 584.293 803.183 585.172C804.455 586.036 806.114 586.468 808.16 586.468C810.387 586.468 812.167 586.005 813.501 585.081C814.834 584.142 815.501 582.998 815.501 581.649C815.501 580.558 815.092 579.642 814.273 578.899C813.47 578.157 812.236 577.596 810.569 577.218L804.66 575.922C801.402 575.18 798.993 573.998 797.433 572.377C795.887 570.755 795.114 568.702 795.114 566.218C795.114 564.157 795.69 562.354 796.842 560.808C797.993 559.263 799.584 558.058 801.614 557.195C803.645 556.316 805.97 555.877 808.592 555.877C812.364 555.877 815.334 556.695 817.501 558.331C819.667 559.952 821.099 562.127 821.796 564.854ZM845.479 591.24V556.331H852.047V561.877H852.411C853.047 559.998 854.168 558.521 855.775 557.445C857.396 556.354 859.229 555.808 861.275 555.808C861.699 555.808 862.199 555.824 862.775 555.854C863.365 555.884 863.828 555.922 864.161 555.968V562.468C863.888 562.392 863.403 562.308 862.706 562.218C862.009 562.111 861.312 562.058 860.615 562.058C859.009 562.058 857.578 562.399 856.32 563.081C855.078 563.748 854.093 564.68 853.365 565.877C852.638 567.058 852.275 568.407 852.275 569.922V591.24H845.479ZM883.133 591.945C879.694 591.945 876.732 591.21 874.247 589.74C871.777 588.255 869.868 586.172 868.519 583.49C867.186 580.793 866.519 577.634 866.519 574.013C866.519 570.437 867.186 567.286 868.519 564.558C869.868 561.831 871.747 559.702 874.156 558.172C876.58 556.642 879.413 555.877 882.656 555.877C884.625 555.877 886.535 556.202 888.383 556.854C890.232 557.505 891.891 558.528 893.36 559.922C894.83 561.316 895.989 563.127 896.838 565.354C897.686 567.566 898.11 570.255 898.11 573.422V575.831H870.36V570.74H891.451C891.451 568.952 891.088 567.369 890.36 565.99C889.633 564.596 888.61 563.498 887.292 562.695C885.989 561.892 884.459 561.49 882.701 561.49C880.792 561.49 879.125 561.96 877.701 562.899C876.292 563.824 875.201 565.036 874.429 566.536C873.671 568.021 873.292 569.634 873.292 571.377V575.354C873.292 577.687 873.701 579.672 874.519 581.308C875.353 582.945 876.512 584.195 877.997 585.058C879.482 585.907 881.216 586.331 883.201 586.331C884.489 586.331 885.663 586.149 886.724 585.786C887.785 585.407 888.701 584.846 889.474 584.104C890.247 583.361 890.838 582.445 891.247 581.354L897.679 582.513C897.163 584.407 896.239 586.066 894.906 587.49C893.588 588.899 891.929 589.998 889.929 590.786C887.944 591.558 885.678 591.945 883.133 591.945ZM931.105 564.854L924.946 565.945C924.689 565.157 924.279 564.407 923.719 563.695C923.173 562.983 922.431 562.399 921.492 561.945C920.552 561.49 919.378 561.263 917.969 561.263C916.045 561.263 914.439 561.695 913.151 562.558C911.863 563.407 911.219 564.505 911.219 565.854C911.219 567.021 911.651 567.96 912.514 568.672C913.378 569.384 914.772 569.968 916.696 570.422L922.242 571.695C925.454 572.437 927.848 573.581 929.423 575.127C930.999 576.672 931.787 578.68 931.787 581.149C931.787 583.24 931.181 585.104 929.969 586.74C928.772 588.361 927.098 589.634 924.946 590.558C922.81 591.483 920.332 591.945 917.514 591.945C913.605 591.945 910.416 591.111 907.946 589.445C905.476 587.763 903.961 585.377 903.401 582.286L909.969 581.286C910.378 582.998 911.219 584.293 912.492 585.172C913.764 586.036 915.423 586.468 917.469 586.468C919.696 586.468 921.476 586.005 922.81 585.081C924.143 584.142 924.81 582.998 924.81 581.649C924.81 580.558 924.401 579.642 923.582 578.899C922.779 578.157 921.545 577.596 919.878 577.218L913.969 575.922C910.711 575.18 908.302 573.998 906.742 572.377C905.196 570.755 904.423 568.702 904.423 566.218C904.423 564.157 904.999 562.354 906.151 560.808C907.302 559.263 908.893 558.058 910.923 557.195C912.954 556.316 915.279 555.877 917.901 555.877C921.673 555.877 924.643 556.695 926.81 558.331C928.976 559.952 930.408 562.127 931.105 564.854ZM953.6 591.945C950.161 591.945 947.199 591.21 944.714 589.74C942.244 588.255 940.335 586.172 938.986 583.49C937.653 580.793 936.986 577.634 936.986 574.013C936.986 570.437 937.653 567.286 938.986 564.558C940.335 561.831 942.214 559.702 944.623 558.172C947.047 556.642 949.88 555.877 953.123 555.877C955.092 555.877 957.002 556.202 958.85 556.854C960.699 557.505 962.358 558.528 963.827 559.922C965.297 561.316 966.456 563.127 967.305 565.354C968.153 567.566 968.577 570.255 968.577 573.422V575.831H940.827V570.74H961.918C961.918 568.952 961.555 567.369 960.827 565.99C960.1 564.596 959.077 563.498 957.759 562.695C956.456 561.892 954.926 561.49 953.168 561.49C951.259 561.49 949.592 561.96 948.168 562.899C946.759 563.824 945.668 565.036 944.895 566.536C944.138 568.021 943.759 569.634 943.759 571.377V575.354C943.759 577.687 944.168 579.672 944.986 581.308C945.82 582.945 946.979 584.195 948.464 585.058C949.949 585.907 951.683 586.331 953.668 586.331C954.956 586.331 956.13 586.149 957.191 585.786C958.252 585.407 959.168 584.846 959.941 584.104C960.714 583.361 961.305 582.445 961.714 581.354L968.145 582.513C967.63 584.407 966.706 586.066 965.373 587.49C964.055 588.899 962.395 589.998 960.395 590.786C958.411 591.558 956.145 591.945 953.6 591.945ZM975.413 591.24V556.331H981.981V561.877H982.345C982.981 559.998 984.102 558.521 985.709 557.445C987.33 556.354 989.163 555.808 991.209 555.808C991.633 555.808 992.133 555.824 992.709 555.854C993.299 555.884 993.762 555.922 994.095 555.968V562.468C993.822 562.392 993.337 562.308 992.64 562.218C991.943 562.111 991.246 562.058 990.549 562.058C988.943 562.058 987.512 562.399 986.254 563.081C985.012 563.748 984.027 564.68 983.299 565.877C982.572 567.058 982.209 568.407 982.209 569.922V591.24H975.413ZM1030.2 556.331L1017.54 591.24H1010.27L997.584 556.331H1004.88L1013.72 583.195H1014.08L1022.9 556.331H1030.2ZM1049.74 591.945C1046.3 591.945 1043.34 591.21 1040.85 589.74C1038.38 588.255 1036.47 586.172 1035.12 583.49C1033.79 580.793 1033.12 577.634 1033.12 574.013C1033.12 570.437 1033.79 567.286 1035.12 564.558C1036.47 561.831 1038.35 559.702 1040.76 558.172C1043.18 556.642 1046.02 555.877 1049.26 555.877C1051.23 555.877 1053.14 556.202 1054.99 556.854C1056.84 557.505 1058.5 558.528 1059.97 559.922C1061.43 561.316 1062.59 563.127 1063.44 565.354C1064.29 567.566 1064.72 570.255 1064.72 573.422V575.831H1036.97V570.74H1058.06C1058.06 568.952 1057.69 567.369 1056.97 565.99C1056.24 564.596 1055.22 563.498 1053.9 562.695C1052.59 561.892 1051.06 561.49 1049.31 561.49C1047.4 561.49 1045.73 561.96 1044.31 562.899C1042.9 563.824 1041.81 565.036 1041.03 566.536C1040.28 568.021 1039.9 569.634 1039.9 571.377V575.354C1039.9 577.687 1040.31 579.672 1041.12 581.308C1041.96 582.945 1043.12 584.195 1044.6 585.058C1046.09 585.907 1047.82 586.331 1049.81 586.331C1051.09 586.331 1052.27 586.149 1053.33 585.786C1054.39 585.407 1055.31 584.846 1056.08 584.104C1056.85 583.361 1057.44 582.445 1057.85 581.354L1064.28 582.513C1063.77 584.407 1062.84 586.066 1061.51 587.49C1060.19 588.899 1058.53 589.998 1056.53 590.786C1054.55 591.558 1052.28 591.945 1049.74 591.945ZM1084.62 591.922C1081.8 591.922 1079.29 591.202 1077.07 589.763C1074.88 588.308 1073.15 586.24 1071.89 583.558C1070.65 580.861 1070.03 577.627 1070.03 573.854C1070.03 570.081 1070.66 566.854 1071.91 564.172C1073.19 561.49 1074.93 559.437 1077.14 558.013C1079.35 556.589 1081.86 555.877 1084.66 555.877C1086.83 555.877 1088.57 556.24 1089.89 556.968C1091.23 557.68 1092.26 558.513 1092.98 559.468C1093.73 560.422 1094.3 561.263 1094.71 561.99H1095.12V544.695H1101.91V591.24H1095.28V585.808H1094.71C1094.3 586.551 1093.71 587.399 1092.94 588.354C1092.18 589.308 1091.13 590.142 1089.8 590.854C1088.47 591.566 1086.74 591.922 1084.62 591.922ZM1086.12 586.127C1088.07 586.127 1089.73 585.611 1091.07 584.581C1092.44 583.536 1093.47 582.089 1094.16 580.24C1094.88 578.392 1095.23 576.24 1095.23 573.786C1095.23 571.361 1094.88 569.24 1094.19 567.422C1093.49 565.604 1092.47 564.187 1091.12 563.172C1089.77 562.157 1088.1 561.649 1086.12 561.649C1084.07 561.649 1082.37 562.18 1081.01 563.24C1079.64 564.301 1078.61 565.748 1077.91 567.581C1077.23 569.414 1076.89 571.483 1076.89 573.786C1076.89 576.119 1077.24 578.218 1077.94 580.081C1078.63 581.945 1079.66 583.422 1081.03 584.513C1082.41 585.589 1084.1 586.127 1086.12 586.127ZM1115.39 591.672C1114.14 591.672 1113.08 591.233 1112.18 590.354C1111.29 589.46 1110.84 588.384 1110.84 587.127C1110.84 585.884 1111.29 584.824 1112.18 583.945C1113.08 583.051 1114.14 582.604 1115.39 582.604C1116.63 582.604 1117.7 583.051 1118.59 583.945C1119.49 584.824 1119.93 585.884 1119.93 587.127C1119.93 587.96 1119.72 588.725 1119.3 589.422C1118.89 590.104 1118.34 590.649 1117.66 591.058C1116.98 591.468 1116.22 591.672 1115.39 591.672Z" fill="#6E6E6E"/>
<path d="M366.374 355.75C366.385 364.659 366.558 371.566 367.448 377.094C368.325 382.546 369.808 386.008 371.965 388.437C374.096 390.837 377.508 392.929 383.62 394.398C389.809 395.885 398.296 396.618 410.019 396.604C433.45 396.576 456.907 393.59 474.249 386.592C491.635 379.577 501.096 369.42 501.079 355.587C501.058 338.158 499.003 315.824 491.495 298.092C487.766 289.285 482.829 281.946 476.447 276.834C470.169 271.805 462.171 268.666 451.697 268.679C430.455 268.705 409.107 281.789 392.741 300.031C376.314 318.342 366.355 340.234 366.374 355.75Z" fill="white" stroke="url(#paint0_linear_1640_1516)" stroke-width="13"/>
<path d="M141.635 356.022C141.646 364.93 141.49 371.838 140.614 377.368C139.749 382.822 138.275 386.287 136.123 388.722C133.999 391.127 130.592 393.228 124.483 394.711C118.297 396.213 109.813 396.967 98.0892 396.981C74.6582 397.009 51.1941 394.081 33.8353 387.125C16.4324 380.151 6.9473 370.018 6.93055 356.185C6.90945 338.756 8.91029 316.417 16.3755 298.667C20.0832 289.851 25.0016 282.5 31.3713 277.372C37.6375 272.328 45.6274 269.17 56.1019 269.157C77.3436 269.131 98.7233 282.164 115.133 300.366C131.605 318.637 141.617 340.505 141.635 356.022Z" fill="white" stroke="url(#paint1_linear_1640_1516)" stroke-width="13"/>
<path d="M500.082 237.667C500.125 273.198 493.127 293.423 482.105 304.808C471.201 316.072 454.95 320.117 432.665 319.704C413.401 319.346 390.907 315.711 365.442 311.595C361.398 310.942 357.279 310.276 353.087 309.609C322.747 304.786 289.012 300.013 253.51 300.056C218.008 300.099 184.285 304.953 153.957 309.851C149.766 310.527 145.649 311.203 141.607 311.866C116.152 316.043 93.6669 319.733 74.4037 320.137C52.1193 320.605 35.8592 316.599 24.9272 305.361C13.8779 294.003 6.83077 273.795 6.78775 238.264C6.70124 166.814 21.8223 109.363 59.4343 69.6902C96.9907 30.0761 158.186 6.92175 253.155 6.80676C343.112 6.69784 404.467 29.6559 443.412 69.2972C482.381 108.963 499.996 166.433 500.082 237.667Z" fill="url(#paint2_linear_1640_1516)" stroke="url(#paint3_linear_1640_1516)" stroke-width="13"/>
<path d="M446.328 265.902C446.384 312.044 425.245 344.331 390.678 365.427C355.734 386.753 306.824 396.729 251.92 396.795C197.016 396.862 148.081 387.004 113.086 365.763C78.4678 344.75 57.2511 312.515 57.1952 266.373C57.0835 174.128 142.642 108.541 251.571 108.409C360.5 108.277 446.216 173.657 446.328 265.902Z" fill="white" stroke="url(#paint4_linear_1640_1516)" stroke-width="13"/>
<circle cx="221.92" cy="299.597" r="12.3799" transform="rotate(-0.069374 221.92 299.597)" fill="url(#paint5_linear_1640_1516)"/>
<circle cx="285.953" cy="299.521" r="12.3799" transform="rotate(-0.069374 285.953 299.521)" fill="url(#paint6_linear_1640_1516)"/>
<path d="M354.716 326.756C309.492 362.507 197.228 362.693 151.949 328.28" stroke="#4D79E0" stroke-width="13" strokeLinecap="round"/>
<ellipse cx="421.72" cy="311.734" rx="32.017" ry="17.0757" transform="rotate(-0.069374 421.72 311.734)" fill="#FFDCDC"/>
<ellipse cx="87.8872" cy="309.578" rx="32.017" ry="17.0757" transform="rotate(-0.069374 87.8872 309.578)" fill="#FFDCDC"/>
<rect x="78.3402" y="294.221" width="6.08528" height="28.2804" rx="3.04264" transform="rotate(27.5183 78.3402 294.221)" fill="#FFB7B7"/>
<rect x="91.1479" y="295.061" width="6.08528" height="28.2804" rx="3.04264" transform="rotate(27.5183 91.1479 295.061)" fill="#FFB7B7"/>
<rect x="104.81" y="295.896" width="6.08528" height="28.2804" rx="3.04264" transform="rotate(27.5183 104.81 295.896)" fill="#FFB7B7"/>
<rect x="412.175" y="298.086" width="6.08528" height="28.2804" rx="3.04264" transform="rotate(27.5183 412.175 298.086)" fill="#FFB7B7"/>
<rect x="425.833" y="295.508" width="6.08528" height="28.2804" rx="3.04264" transform="rotate(27.5183 425.833 295.508)" fill="#FFB7B7"/>
<rect x="438.645" y="299.762" width="6.08528" height="28.2804" rx="3.04264" transform="rotate(27.5183 438.645 299.762)" fill="#FFB7B7"/>
<path d="M683.721 123.36C699.737 123.36 713.201 126.528 724.113 132.864C735.201 139.2 743.649 148.88 749.457 161.904L738.369 170.352C733.265 158.032 726.049 149.144 716.721 143.688C707.569 138.232 696.217 135.504 682.665 135.504C672.281 135.504 663.481 137.176 656.265 140.52C649.049 143.688 643.505 148 639.633 153.456C635.937 158.736 634.089 164.72 634.089 171.408C634.089 179.504 636.729 186.192 642.009 191.472C647.289 196.752 656.969 200.976 671.049 204.144L705.369 211.536C722.441 215.232 734.409 220.6 741.273 227.64C748.313 234.504 751.833 243.392 751.833 254.304C751.833 263.808 749.017 272.256 743.385 279.648C737.929 287.04 730.361 292.76 720.681 296.808C711.001 300.856 699.649 302.88 686.625 302.88C674.129 302.88 662.953 301.208 653.097 297.864C643.417 294.344 635.233 289.504 628.545 283.344C621.857 277.008 616.929 269.44 613.761 260.64L625.377 251.664C627.841 259.936 631.889 267.064 637.521 273.048C643.329 278.856 650.457 283.256 658.905 286.248C667.353 289.24 676.769 290.736 687.153 290.736C697.009 290.736 705.809 289.416 713.553 286.776C721.297 283.96 727.281 279.912 731.505 274.632C735.905 269.352 738.105 262.84 738.105 255.096C738.105 247.704 735.465 241.456 730.185 236.352C725.081 231.248 715.929 227.376 702.729 224.736L666.825 216.816C655.737 214.352 646.761 211.096 639.897 207.048C633.033 203 628.017 198.16 624.849 192.528C621.857 186.72 620.361 180.208 620.361 172.992C620.361 164.016 622.913 155.832 628.017 148.44C633.121 140.872 640.425 134.8 649.929 130.224C659.433 125.648 670.697 123.36 683.721 123.36ZM805.463 131.544V265.392C805.463 273.664 807.399 280 811.271 284.4C815.319 288.624 821.127 290.736 828.695 290.736C833.623 290.736 837.935 289.944 841.631 288.36C845.503 286.6 848.935 284.136 851.927 280.968L856.943 291.792C853.599 295.136 849.375 297.864 844.271 299.976C839.167 301.912 833.447 302.88 827.111 302.88C820.247 302.88 814.175 301.648 808.895 299.184C803.615 296.544 799.479 292.584 796.487 287.304C793.671 282.024 792.263 275.336 792.263 267.24V135.24L805.463 131.544ZM854.831 168.24V179.592H765.863V168.24H854.831ZM931.114 302.88C918.97 302.88 908.146 300.152 898.642 294.696C889.138 289.24 881.658 281.408 876.202 271.2C870.922 260.816 868.282 248.496 868.282 234.24C868.282 219.984 870.922 207.752 876.202 197.544C881.658 187.16 888.962 179.24 898.114 173.784C907.266 168.328 917.738 165.6 929.53 165.6C941.498 165.6 951.706 168.24 960.154 173.52C968.602 178.8 975.114 186.192 979.69 195.696C984.266 205.024 986.554 215.848 986.554 228.168C986.554 229.752 986.466 231.336 986.29 232.92C986.29 234.328 986.202 235.648 986.026 236.88H876.466V225H980.218L973.618 226.848C973.442 211.712 969.394 199.656 961.474 190.68C953.73 181.704 942.994 177.216 929.266 177.216C919.762 177.216 911.402 179.504 904.186 184.08C896.97 188.48 891.338 194.992 887.29 203.616C883.242 212.064 881.218 222.272 881.218 234.24C881.218 246.032 883.242 256.24 887.29 264.864C891.514 273.488 897.322 280.088 904.714 284.664C912.282 289.064 920.994 291.264 930.85 291.264C941.058 291.264 949.77 289.064 956.986 284.664C964.378 280.264 970.098 274.192 974.146 266.448L984.706 272.52C981.538 278.856 977.314 284.312 972.034 288.888C966.754 293.288 960.682 296.72 953.818 299.184C946.954 301.648 939.386 302.88 931.114 302.88ZM1099.19 213.384C1099.19 201.944 1096.11 193.056 1089.95 186.72C1083.79 180.384 1074.99 177.216 1063.55 177.216C1053.52 177.216 1044.89 179.416 1037.68 183.816C1030.46 188.04 1025.09 195.168 1021.57 205.2L1010.75 198.336C1014.62 187.952 1021.04 179.944 1030.02 174.312C1039.17 168.504 1050.44 165.6 1063.81 165.6C1073.49 165.6 1081.94 167.36 1089.16 170.88C1096.55 174.224 1102.27 179.24 1106.32 185.928C1110.36 192.616 1112.39 200.976 1112.39 211.008V277.008C1112.39 286.336 1116.61 291 1125.06 291C1128.76 291 1131.92 290.384 1134.56 289.152L1133.77 299.712C1130.78 301.296 1126.91 302.088 1122.16 302.088C1118.11 302.088 1114.32 301.296 1110.8 299.712C1107.28 298.128 1104.38 295.488 1102.09 291.792C1099.98 288.096 1098.92 283.08 1098.92 276.744V269.616L1102.62 269.352C1101.04 276.92 1097.52 283.256 1092.06 288.36C1086.78 293.288 1080.62 296.984 1073.58 299.448C1066.54 301.736 1059.5 302.88 1052.46 302.88C1044.19 302.88 1036.8 301.56 1030.28 298.92C1023.77 296.28 1018.67 292.496 1014.97 287.568C1011.28 282.464 1009.43 276.216 1009.43 268.824C1009.43 258.968 1012.68 251.048 1019.2 245.064C1025.88 238.904 1035.21 234.68 1047.18 232.392L1101.83 221.568V232.656L1053.78 242.16C1043.4 244.272 1035.65 247.352 1030.55 251.4C1025.44 255.448 1022.89 260.992 1022.89 268.032C1022.89 275.248 1025.62 280.968 1031.08 285.192C1036.53 289.24 1044.28 291.264 1054.31 291.264C1059.41 291.264 1064.6 290.56 1069.88 289.152C1075.16 287.744 1080 285.544 1084.4 282.552C1088.98 279.384 1092.59 275.512 1095.23 270.936C1097.87 266.184 1099.19 260.464 1099.19 253.776V213.384ZM1207.42 302.88C1195.98 302.88 1185.68 300.152 1176.53 294.696C1167.38 289.24 1160.16 281.408 1154.88 271.2C1149.78 260.816 1147.23 248.496 1147.23 234.24C1147.23 219.632 1149.95 207.224 1155.41 197.016C1160.87 186.808 1168.26 179.064 1177.59 173.784C1186.91 168.328 1197.21 165.6 1208.47 165.6C1220.79 165.6 1231.27 168.856 1239.89 175.368C1248.69 181.88 1254.59 190.944 1257.58 202.56L1255.99 203.616V107.52H1269.19V300.24H1257.31L1256.52 263.544L1258.11 263.016C1256.52 271.464 1253.27 278.68 1248.34 284.664C1243.59 290.648 1237.6 295.224 1230.39 298.392C1223.35 301.384 1215.69 302.88 1207.42 302.88ZM1209 291.264C1218.33 291.264 1226.51 288.976 1233.55 284.4C1240.59 279.648 1246.05 272.872 1249.92 264.072C1253.97 255.272 1255.99 244.976 1255.99 233.184C1255.99 221.568 1253.97 211.624 1249.92 203.352C1246.05 194.904 1240.59 188.48 1233.55 184.08C1226.69 179.504 1218.68 177.216 1209.53 177.216C1194.39 177.216 1182.43 182.32 1173.63 192.528C1164.83 202.736 1160.43 216.64 1160.43 234.24C1160.43 251.84 1164.74 265.744 1173.36 275.952C1182.16 286.16 1194.04 291.264 1209 291.264ZM1414.51 168.24L1350.62 324.528C1347.45 332.624 1344.02 339.048 1340.32 343.8C1336.63 348.552 1332.49 351.896 1327.91 353.832C1323.34 355.944 1318.06 357 1312.07 357C1306.79 357 1301.95 356.208 1297.55 354.624C1293.15 353.04 1289.55 350.84 1286.73 348.024L1290.95 336.672C1293.59 339.84 1296.76 342.04 1300.46 343.272C1304.15 344.68 1307.94 345.384 1311.81 345.384C1317.44 345.384 1322.46 343.712 1326.86 340.368C1331.26 337.2 1335.39 330.864 1339.27 321.36L1347.98 300.24L1333.99 267.504L1292.27 168.24H1307.32L1347.71 268.296L1354.31 285.984L1361.44 266.976L1400.25 168.24H1414.51Z" fill="url(#paint7_linear_1640_1516)"/>
<defs>
<linearGradient id="paint0_linear_1640_1516" x1="433.613" y1="262.201" x2="433.784" y2="403.075" gradientUnits="userSpaceOnUse">
<stop stop-color="#0F3493"/>
<stop offset="1" stop-color="#5682EB"/>
</linearGradient>
<linearGradient id="paint1_linear_1640_1516" x1="74.1698" y1="262.635" x2="74.3404" y2="403.51" gradientUnits="userSpaceOnUse">
<stop stop-color="#0F3493"/>
<stop offset="1" stop-color="#5682EB"/>
</linearGradient>
<linearGradient id="paint2_linear_1640_1516" x1="253.147" y1="0.306769" x2="253.542" y2="326.453" gradientUnits="userSpaceOnUse">
<stop stop-color="#82B894"/>
<stop offset="1" stop-color="#5682EB"/>
</linearGradient>
<linearGradient id="paint3_linear_1640_1516" x1="253.147" y1="0.306769" x2="253.542" y2="326.453" gradientUnits="userSpaceOnUse">
<stop stop-color="#0F3493"/>
<stop offset="1" stop-color="#5682EB"/>
</linearGradient>
<linearGradient id="paint4_linear_1640_1516" x1="251.563" y1="101.909" x2="251.928" y2="403.295" gradientUnits="userSpaceOnUse">
<stop stop-color="#0F3493"/>
<stop offset="1" stop-color="#5682EB"/>
</linearGradient>
<linearGradient id="paint5_linear_1640_1516" x1="221.92" y1="287.217" x2="221.92" y2="311.977" gradientUnits="userSpaceOnUse">
<stop stop-color="#2E5ACD"/>
<stop offset="1" stop-color="#4D7DEE"/>
</linearGradient>
<linearGradient id="paint6_linear_1640_1516" x1="285.953" y1="287.141" x2="285.953" y2="311.901" gradientUnits="userSpaceOnUse">
<stop stop-color="#2E5ACD"/>
<stop offset="1" stop-color="#4D7DEE"/>
</linearGradient>
<linearGradient id="paint7_linear_1640_1516" x1="536.016" y1="210.748" x2="1485.39" y2="210.748" gradientUnits="userSpaceOnUse">
<stop stop-color="#34A7D9"/>
<stop offset="0.9997" stop-color="#4B47FF"/>
<stop offset="0.9998"/>
<stop offset="0.9999" stop-color="#0A22DD" stop-opacity="0.157052"/>
<stop offset="1" stop-color="#0944DC" stop-opacity="0.130208"/>
</linearGradient>
</defs>
</svg>
