<svg width="225" height="179" viewBox="0 0 225 179" fill="none" xmlns="http://www.w3.org/2000/svg">
<path d="M161.47 157.941C161.47 161.892 161.541 165.027 161.946 167.562C162.346 170.074 163.046 171.797 164.156 173.052C165.257 174.297 166.955 175.297 169.777 175.979C172.623 176.667 176.469 176.998 181.695 176.998C192.143 176.998 202.679 175.681 210.525 172.522C218.385 169.358 223 164.619 223 157.941C223 150.158 222.099 140.095 218.709 132.052C217.021 128.048 214.76 124.647 211.783 122.254C208.839 119.887 205.096 118.424 200.254 118.424C190.481 118.424 180.783 124.42 173.425 132.611C166.048 140.823 161.47 150.745 161.47 157.941Z" fill="white" stroke="url(#paint0_linear_1635_1513)" stroke-width="4"/>
<path d="M63.5303 157.941C63.5303 161.892 63.4586 165.027 63.0544 167.562C62.6537 170.074 61.9542 171.797 60.8444 173.052C59.743 174.297 58.0449 175.297 55.223 175.979C52.3772 176.667 48.5313 176.998 43.305 176.998C32.8574 176.998 22.3213 175.681 14.4747 172.522C6.61529 169.358 2 164.619 2 157.941C2 150.158 2.9008 140.095 6.29106 132.052C7.97856 128.048 10.2405 124.647 13.217 122.254C16.1615 119.887 19.9043 118.424 24.7457 118.424C34.5189 118.424 44.217 124.42 51.5749 132.611C58.9516 140.823 63.5303 150.745 63.5303 157.941Z" fill="white" stroke="url(#paint1_linear_1635_1513)" stroke-width="4"/>
<path d="M222.621 105.564C222.621 121.425 219.497 130.695 214.359 135.996C209.258 141.259 201.736 143.051 191.766 142.854C183.151 142.684 173.102 141.045 161.815 139.204C160.022 138.912 158.198 138.614 156.344 138.317C142.892 136.159 127.987 134.031 112.311 134.031C96.6344 134.031 81.7288 136.159 68.2775 138.317C66.4229 138.614 64.5988 138.912 62.806 139.204C51.519 141.045 41.4698 142.684 32.8554 142.854C22.8847 143.051 15.3633 141.259 10.262 135.996C5.12413 130.695 2 121.425 2 105.564C2 73.7229 8.75864 47.9413 25.6915 30.1027C42.6068 12.2828 70.0491 2 112.311 2C152.362 2 179.836 12.268 197.316 30.1249C214.804 47.9897 222.621 73.7893 222.621 105.564Z" fill="url(#paint2_linear_1635_1513)" stroke="url(#paint3_linear_1635_1513)" stroke-width="4"/>
<path d="M198.758 118.078C198.758 138.906 189.181 153.513 173.59 163.013C157.883 172.584 135.996 177.001 111.553 177.001C87.1108 177.001 65.2236 172.584 49.5168 163.013C33.9258 153.513 24.3486 138.906 24.3486 118.078C24.3486 76.4326 62.9406 47.1299 111.553 47.1299C160.166 47.1299 198.758 76.4326 198.758 118.078Z" fill="white" stroke="url(#paint4_linear_1635_1513)" stroke-width="4"/>
<ellipse cx="158.521" cy="137.286" rx="14.2045" ry="7.58475" fill="#FFDCDC"/>
<ellipse cx="64.5854" cy="137.286" rx="14.2045" ry="7.58475" fill="#FFDCDC"/>
<path d="M67.2715 157.031C87.4544 141.301 137.26 141.589 157.233 157.024" stroke="#4D79E0" stroke-width="4" strokeLinecap="round"/>
<path d="M101 121L90 132M101 132L90 121" stroke="black" stroke-width="2" strokeLinecap="round"/>
<path d="M133 121L122 132M133 132L122 121" stroke="black" stroke-width="2" strokeLinecap="round"/>
<defs>
<linearGradient id="paint0_linear_1635_1513" x1="192.235" y1="116.424" x2="192.235" y2="178.998" gradientUnits="userSpaceOnUse">
<stop stop-color="#0F3493"/>
<stop offset="1" stop-color="#5682EB"/>
</linearGradient>
<linearGradient id="paint1_linear_1635_1513" x1="32.7652" y1="116.424" x2="32.7652" y2="178.998" gradientUnits="userSpaceOnUse">
<stop stop-color="#0F3493"/>
<stop offset="1" stop-color="#5682EB"/>
</linearGradient>
<linearGradient id="paint2_linear_1635_1513" x1="112.311" y1="0" x2="112.311" y2="144.869" gradientUnits="userSpaceOnUse">
<stop stop-color="#82B894"/>
<stop offset="1" stop-color="#5682EB"/>
</linearGradient>
<linearGradient id="paint3_linear_1635_1513" x1="112.311" y1="0" x2="112.311" y2="144.869" gradientUnits="userSpaceOnUse">
<stop stop-color="#0F3493"/>
<stop offset="1" stop-color="#5682EB"/>
</linearGradient>
<linearGradient id="paint4_linear_1635_1513" x1="111.553" y1="45.1299" x2="111.553" y2="179.001" gradientUnits="userSpaceOnUse">
<stop stop-color="#0F3493"/>
<stop offset="1" stop-color="#5682EB"/>
</linearGradient>
</defs>
</svg>
