<svg width="40" height="39" viewBox="0 0 40 39" fill="none" xmlns="http://www.w3.org/2000/svg">
<g clip-path="url(#clip0_131_4828)">
<path d="M28.8519 38.0408L9.4172 37.5094L0.839111 29.0075H6.46848L0.839111 18.1143L9.4172 21.8339L12.634 1.11035L22.8205 15.9888L28.7179 7.75252L27.1095 23.1624L37.0279 18.1143L32.4708 27.5462L39.4405 26.3506L28.8519 38.0408Z" fill="#FF5959"/>
<path d="M14.105 37.9254C10.7042 30.2372 11.9408 16.9527 15.4962 16.7827C19.0515 16.6127 17.5057 31.5678 16.1145 31.5678C14.7233 31.5678 20.2882 18.4155 23.5344 20.0354C27.0897 21.8096 20.1336 32.6028 19.6698 32.6028C19.2061 32.6028 24.5284 25.3585 26.6259 28.1672C28.1717 30.2372 22.4523 35.7076 22.2977 35.2641C22.1431 34.8205 25.6984 32.8985 26.3168 34.0813C26.8114 35.0275 25.5439 37.0383 23.5343 37.9254" stroke="#FFD43E" stroke-width="2" strokeLinecap="square" strokeLinejoin="round"/>
<path d="M31.6565 14.9147C33.8026 14.2393 35.7875 9.60646 33.8887 9.28827C31.8325 8.9437 33.3583 15.5548 38.2144 12.1359" stroke="#FFD43E" stroke-width="2" strokeLinecap="square" strokeLinejoin="round"/>
<path d="M25.3467 2.5791L24.918 5.93134L26.8275 2.97299L25.3467 2.5791Z" fill="#FF4C4C"/>
<path d="M0.078125 25.3398L2.22252 25.7286L0.665598 23.9341L0.078125 25.3398Z" fill="#FF4C4C"/>
<path d="M2.71201 10.0372C3.61308 9.63152 5.99081 9.34197 7.07544 12.4828" stroke="#FF4C4C" stroke-width="2" strokeLinecap="square" strokeLinejoin="round"/>
<path d="M21.5385 9.99579L21.2588 8.74626L22.2378 8.60742L22.3777 9.99579H21.5385Z" fill="#FF4C4C"/>
<path d="M3.25104 1.17214L4.30795 1.60205L5.40959 0.749381L5.42168 1.90331L6.99564 2.62822L5.30958 3.067L5.07967 4.48414L4.14912 3.26563L2.98905 3.34065L3.67167 2.28321L3.25104 1.17214Z" fill="#FFD43E"/>
<path d="M37.9509 6.06045L38.1377 6.76549L39.0052 6.99677L38.4131 7.44969L38.6476 8.53244L37.7679 7.8431L36.9461 8.27461L37.2159 7.32863L36.728 6.7665L37.5391 6.70497L37.9509 6.06045Z" fill="#FF4C4C"/>
</g>
<defs>
<clipPath id="clip0_131_4828">
<rect width="40" height="38.5965" fill="white"/>
</clipPath>
</defs>
</svg>
