<svg width="60" height="54" viewBox="0 0 60 54" fill="none" xmlns="http://www.w3.org/2000/svg">
<g clip-path="url(#clip0_117_1853)">
<path d="M0 27.9621L11.8248 38.35V17.5742L0 27.9621Z" fill="url(#paint0_linear_117_1853)"/>
<path d="M15.0004 54.0001L29.8891 48.9309L11.9365 38.543L15.0004 54.0001Z" fill="url(#paint1_linear_117_1853)"/>
<path d="M45 54.0004L48.0639 38.543L30.1113 48.9309L45 54.0004Z" fill="url(#paint2_linear_117_1853)"/>
<path d="M59.9996 27.9621L48.1748 17.5742V38.35L59.9996 27.9621Z" fill="url(#paint3_linear_117_1853)"/>
<path d="M45 1.9248L30.1113 6.99399L48.0639 17.3819L45 1.9248Z" fill="url(#paint4_linear_117_1853)"/>
<path d="M15.0004 1.92383L11.9365 17.3812L29.8891 6.99331L15.0004 1.92383Z" fill="url(#paint5_linear_117_1853)"/>
<path d="M0 27.9619L11.8251 38.3498V27.9619H0Z" fill="url(#paint6_linear_117_1853)"/>
<path d="M15 54.0004L29.8887 48.9313L20.9124 43.7373L15 54.0004Z" fill="url(#paint7_linear_117_1853)"/>
<path d="M45.0003 54.0001L48.0642 38.543L39.0879 43.7369L45.0003 54.0001Z" fill="url(#paint8_linear_117_1853)"/>
<path d="M59.9999 27.9621L48.1748 17.5742V27.9621H59.9999Z" fill="url(#paint9_linear_117_1853)"/>
<path d="M45 1.9248L30.1113 6.99399L39.0876 12.1879L45 1.9248Z" fill="url(#paint10_linear_117_1853)"/>
<path d="M15.0004 1.9248L11.9365 17.3819L20.9128 12.1879L15.0004 1.9248Z" fill="url(#paint11_linear_117_1853)"/>
<path d="M30.0002 49.4889C41.8631 49.4889 51.4799 39.8509 51.4799 27.9618C51.4799 16.0726 41.8631 6.43457 30.0002 6.43457C18.1373 6.43457 8.52051 16.0726 8.52051 27.9618C8.52051 39.8509 18.1373 49.4889 30.0002 49.4889Z" fill="url(#paint12_linear_117_1853)"/>
<path d="M30.0004 45.0733C39.4298 45.0733 47.074 37.4123 47.074 27.9619C47.074 18.5116 39.4298 10.8506 30.0004 10.8506C20.5709 10.8506 12.9268 18.5116 12.9268 27.9619C12.9268 37.4123 20.5709 45.0733 30.0004 45.0733Z" fill="url(#paint13_linear_117_1853)"/>
<path d="M29.9996 41.7622C37.604 41.7622 43.7687 35.5839 43.7687 27.9626C43.7687 20.3413 37.604 14.1631 29.9996 14.1631C22.3951 14.1631 16.2305 20.3413 16.2305 27.9626C16.2305 35.5839 22.3951 41.7622 29.9996 41.7622Z" fill="url(#paint14_linear_117_1853)"/>
<g filter="url(#filter0_d_117_1853)">
<path d="M25.5 32.6175H28.6194V24.2482H25.9146V22.0717C27.4941 21.7753 28.5207 21.3793 29.547 20.7461H32.1336V32.6175H34.779V35.4669H25.5V32.6175Z" fill="#E5920E"/>
</g>
</g>
<defs>
<filter id="filter0_d_117_1853" x="24.5" y="20.7461" width="11.2793" height="16.7207" filterUnits="userSpaceOnUse" color-interpolation-filters="sRGB">
<feFlood flood-opacity="0" result="BackgroundImageFix"/>
<feColorMatrix in="SourceAlpha" type="matrix" values="0 0 0 0 0 0 0 0 0 0 0 0 0 0 0 0 0 0 127 0" result="hardAlpha"/>
<feOffset dy="1"/>
<feGaussianBlur stdDeviation="0.5"/>
<feComposite in2="hardAlpha" operator="out"/>
<feColorMatrix type="matrix" values="0 0 0 0 0 0 0 0 0 0 0 0 0 0 0 0 0 0 0.25 0"/>
<feBlend mode="normal" in2="BackgroundImageFix" result="effect1_dropShadow_117_1853"/>
<feBlend mode="normal" in="SourceGraphic" in2="effect1_dropShadow_117_1853" result="shape"/>
</filter>
<linearGradient id="paint0_linear_117_1853" x1="6.87828" y1="30.8265" x2="12.2663" y2="17.8882" gradientUnits="userSpaceOnUse">
<stop offset="0.2852" stop-color="#EFA716"/>
<stop offset="0.8758" stop-color="#FFD757"/>
</linearGradient>
<linearGradient id="paint1_linear_117_1853" x1="19.0778" y1="47.1693" x2="12.4675" y2="38.7719" gradientUnits="userSpaceOnUse">
<stop stop-color="#EFA716"/>
<stop offset="1" stop-color="#FFD757"/>
</linearGradient>
<linearGradient id="paint2_linear_117_1853" x1="36.0219" y1="52.2909" x2="41.9577" y2="48.9063" gradientUnits="userSpaceOnUse">
<stop stop-color="#FFD757"/>
<stop offset="1" stop-color="#EFA716"/>
</linearGradient>
<linearGradient id="paint3_linear_117_1853" x1="53.5837" y1="28.444" x2="53.0503" y2="34.4323" gradientUnits="userSpaceOnUse">
<stop stop-color="#EFA716"/>
<stop offset="1" stop-color="#FFD757"/>
</linearGradient>
<linearGradient id="paint4_linear_117_1853" x1="39.9139" y1="18.4603" x2="38.094" y2="4.70653" gradientUnits="userSpaceOnUse">
<stop offset="0.1242" stop-color="#FFD757"/>
<stop offset="0.7148" stop-color="#EFA716"/>
</linearGradient>
<linearGradient id="paint5_linear_117_1853" x1="11.9366" y1="9.65258" x2="29.8892" y2="9.65258" gradientUnits="userSpaceOnUse">
<stop offset="0.2852" stop-color="#EFA716"/>
<stop offset="0.8758" stop-color="#FFD757"/>
</linearGradient>
<linearGradient id="paint6_linear_117_1853" x1="3.89168e-05" y1="33.1558" x2="11.8249" y2="33.1558" gradientUnits="userSpaceOnUse">
<stop stop-color="#FEF7A5"/>
<stop offset="1" stop-color="#F1CD59"/>
</linearGradient>
<linearGradient id="paint7_linear_117_1853" x1="15" y1="48.8689" x2="29.8887" y2="48.8689" gradientUnits="userSpaceOnUse">
<stop stop-color="#FEF7A5"/>
<stop offset="1" stop-color="#F1CD59"/>
</linearGradient>
<linearGradient id="paint8_linear_117_1853" x1="39.0878" y1="46.2716" x2="48.0641" y2="46.2716" gradientUnits="userSpaceOnUse">
<stop stop-color="#FEF7A5"/>
<stop offset="1" stop-color="#F1CD59"/>
</linearGradient>
<linearGradient id="paint9_linear_117_1853" x1="45.9042" y1="21.4222" x2="59.8425" y2="29.6478" gradientUnits="userSpaceOnUse">
<stop offset="0.2895" stop-color="#F1CD59"/>
<stop offset="1" stop-color="#FEF7A5"/>
</linearGradient>
<linearGradient id="paint10_linear_117_1853" x1="31.6079" y1="10.7791" x2="47.9393" y2="4.32153" gradientUnits="userSpaceOnUse">
<stop offset="0.2261" stop-color="#F1CD59"/>
<stop offset="1" stop-color="#FEF7A5"/>
</linearGradient>
<linearGradient id="paint11_linear_117_1853" x1="19.2963" y1="4.20762" x2="13.749" y2="15.9518" gradientUnits="userSpaceOnUse">
<stop stop-color="#FEF7A5"/>
<stop offset="1" stop-color="#F1CD59"/>
</linearGradient>
<linearGradient id="paint12_linear_117_1853" x1="30.0002" y1="49.4888" x2="30.0002" y2="6.43466" gradientUnits="userSpaceOnUse">
<stop stop-color="#FFA517"/>
<stop offset="1" stop-color="#FFCE42"/>
</linearGradient>
<linearGradient id="paint13_linear_117_1853" x1="30.0004" y1="45.0732" x2="30.0004" y2="10.8506" gradientUnits="userSpaceOnUse">
<stop offset="0.008" stop-color="#F8C200"/>
<stop offset="1" stop-color="#F8D926"/>
</linearGradient>
<linearGradient id="paint14_linear_117_1853" x1="29.9996" y1="41.762" x2="29.9996" y2="14.1632" gradientUnits="userSpaceOnUse">
<stop stop-color="#FEDB33"/>
<stop offset="1" stop-color="#FFF83D"/>
</linearGradient>
<clipPath id="clip0_117_1853">
<rect width="60" height="54" fill="white"/>
</clipPath>
</defs>
</svg>
