<svg width="1485" height="414" viewBox="0 0 1485 414" fill="none" xmlns="http://www.w3.org/2000/svg">
<path d="M367.172 356.51C367.183 365.419 367.356 372.326 368.246 377.854C369.123 383.306 370.606 386.767 372.763 389.197C374.894 391.597 378.306 393.689 384.418 395.158C390.607 396.645 399.094 397.378 410.817 397.364C434.248 397.335 457.705 394.35 475.047 387.352C492.433 380.336 501.894 370.18 501.877 356.347C501.856 338.918 499.801 316.584 492.293 298.852C488.564 290.045 483.628 282.706 477.246 277.594C470.967 272.565 462.97 269.426 452.495 269.439C431.253 269.464 409.905 282.549 393.539 300.791C377.112 319.102 367.153 340.994 367.172 356.51Z" fill="white" stroke="url(#paint0_linear_1611_1520)" stroke-width="13"/>
<path d="M142.433 356.781C142.444 365.69 142.288 372.598 141.412 378.127C140.547 383.582 139.073 387.047 136.922 389.482C134.797 391.887 131.39 393.987 125.281 395.471C119.096 396.973 110.611 397.727 98.8873 397.741C75.4563 397.769 51.9922 394.84 34.6334 387.884C17.2305 380.911 7.74539 370.778 7.72865 356.945C7.70754 339.516 9.70839 317.176 17.1736 299.426C20.8813 290.61 25.7997 283.259 32.1694 278.132C38.4355 273.088 46.4255 269.93 56.9 269.917C78.1417 269.891 99.5214 282.924 115.931 301.126C132.403 319.397 142.415 341.265 142.433 356.781Z" fill="white" stroke="url(#paint1_linear_1611_1520)" stroke-width="13"/>
<path d="M500.88 238.427C500.924 273.957 493.925 294.182 482.904 305.567C471.999 316.832 455.748 320.877 433.463 320.463C414.199 320.106 391.705 316.471 366.24 312.355C362.196 311.701 358.077 311.036 353.885 310.369C323.545 305.546 289.81 300.773 254.308 300.816C218.806 300.859 185.083 305.713 154.755 310.61C150.564 311.287 146.447 311.963 142.405 312.626C116.95 316.803 94.465 320.493 75.2018 320.897C52.9174 321.365 36.6573 317.359 25.7253 306.121C14.676 294.763 7.62887 274.555 7.58585 239.024C7.49934 167.574 22.6204 110.123 60.2324 70.45C97.7888 30.8359 158.984 7.68152 253.953 7.56653C343.91 7.45761 405.265 30.4157 444.21 70.057C483.179 109.723 500.794 167.193 500.88 238.427Z" fill="url(#paint2_linear_1611_1520)" stroke="url(#paint3_linear_1611_1520)" stroke-width="13"/>
<path d="M447.126 266.662C447.182 312.803 426.043 345.09 391.476 366.187C356.532 387.513 307.622 397.488 252.718 397.555C197.814 397.621 148.879 387.764 113.884 366.523C79.2659 345.51 58.0491 313.275 57.9933 267.133C57.8816 174.888 143.44 109.301 252.369 109.169C361.298 109.037 447.014 174.417 447.126 266.662Z" fill="white" stroke="url(#paint4_linear_1611_1520)" stroke-width="13"/>
<circle cx="222.718" cy="300.357" r="12.3799" transform="rotate(-0.069374 222.718 300.357)" fill="url(#paint5_linear_1611_1520)"/>
<circle cx="286.752" cy="300.281" r="12.3799" transform="rotate(-0.069374 286.752 300.281)" fill="url(#paint6_linear_1611_1520)"/>
<path d="M355.514 327.516C310.29 363.267 198.026 363.453 152.747 329.04" stroke="#4D79E0" stroke-width="13" stroke-linecap="round"/>
<ellipse cx="422.518" cy="312.494" rx="32.017" ry="17.0757" transform="rotate(-0.069374 422.518 312.494)" fill="#FFDCDC"/>
<ellipse cx="88.6853" cy="310.338" rx="32.017" ry="17.0757" transform="rotate(-0.069374 88.6853 310.338)" fill="#FFDCDC"/>
<rect x="79.1383" y="294.98" width="6.08528" height="28.2804" rx="3.04264" transform="rotate(27.5183 79.1383 294.98)" fill="#FFB7B7"/>
<rect x="91.946" y="295.82" width="6.08528" height="28.2804" rx="3.04264" transform="rotate(27.5183 91.946 295.82)" fill="#FFB7B7"/>
<rect x="105.608" y="296.656" width="6.08528" height="28.2804" rx="3.04264" transform="rotate(27.5183 105.608 296.656)" fill="#FFB7B7"/>
<rect x="412.974" y="298.846" width="6.08528" height="28.2804" rx="3.04264" transform="rotate(27.5183 412.974 298.846)" fill="#FFB7B7"/>
<rect x="426.631" y="296.268" width="6.08528" height="28.2804" rx="3.04264" transform="rotate(27.5183 426.631 296.268)" fill="#FFB7B7"/>
<rect x="439.443" y="300.521" width="6.08528" height="28.2804" rx="3.04264" transform="rotate(27.5183 439.443 300.521)" fill="#FFB7B7"/>
<path d="M684.519 124.12C700.535 124.12 713.999 127.288 724.911 133.624C735.999 139.96 744.448 149.64 750.255 162.664L739.168 171.112C734.063 158.792 726.847 149.904 717.519 144.448C708.367 138.992 697.015 136.264 683.463 136.264C673.079 136.264 664.279 137.936 657.063 141.28C649.847 144.448 644.303 148.76 640.431 154.216C636.735 159.496 634.887 165.48 634.887 172.168C634.887 180.264 637.527 186.952 642.807 192.232C648.087 197.512 657.767 201.736 671.847 204.904L706.167 212.296C723.239 215.992 735.207 221.36 742.071 228.4C749.111 235.264 752.632 244.152 752.632 255.064C752.632 264.568 749.816 273.016 744.183 280.408C738.727 287.8 731.159 293.52 721.479 297.568C711.799 301.616 700.447 303.64 687.423 303.64C674.927 303.64 663.751 301.968 653.895 298.624C644.215 295.104 636.031 290.264 629.343 284.104C622.655 277.768 617.727 270.2 614.559 261.4L626.175 252.424C628.639 260.696 632.687 267.824 638.319 273.808C644.127 279.616 651.255 284.016 659.703 287.008C668.151 290 677.567 291.496 687.951 291.496C697.807 291.496 706.607 290.176 714.351 287.536C722.095 284.72 728.079 280.672 732.303 275.392C736.703 270.112 738.903 263.6 738.903 255.856C738.903 248.464 736.263 242.216 730.983 237.112C725.879 232.008 716.727 228.136 703.527 225.496L667.623 217.576C656.535 215.112 647.559 211.856 640.695 207.808C633.831 203.76 628.815 198.92 625.647 193.288C622.655 187.48 621.159 180.968 621.159 173.752C621.159 164.776 623.711 156.592 628.815 149.2C633.919 141.632 641.223 135.56 650.727 130.984C660.231 126.408 671.495 124.12 684.519 124.12ZM806.261 132.304V266.152C806.261 274.424 808.197 280.76 812.069 285.16C816.117 289.384 821.925 291.496 829.493 291.496C834.421 291.496 838.733 290.704 842.429 289.12C846.301 287.36 849.733 284.896 852.725 281.728L857.741 292.552C854.397 295.896 850.173 298.624 845.069 300.736C839.965 302.672 834.245 303.64 827.909 303.64C821.045 303.64 814.973 302.408 809.693 299.944C804.413 297.304 800.277 293.344 797.285 288.064C794.469 282.784 793.061 276.096 793.061 268V136L806.261 132.304ZM855.629 169V180.352H766.661V169H855.629ZM931.912 303.64C919.768 303.64 908.944 300.912 899.44 295.456C889.936 290 882.456 282.168 877 271.96C871.72 261.576 869.08 249.256 869.08 235C869.08 220.744 871.72 208.512 877 198.304C882.456 187.92 889.76 180 898.912 174.544C908.064 169.088 918.536 166.36 930.328 166.36C942.296 166.36 952.504 169 960.952 174.28C969.4 179.56 975.912 186.952 980.488 196.456C985.064 205.784 987.352 216.608 987.352 228.928C987.352 230.512 987.264 232.096 987.088 233.68C987.088 235.088 987 236.408 986.824 237.64H877.264V225.76H981.016L974.416 227.608C974.24 212.472 970.192 200.416 962.272 191.44C954.528 182.464 943.792 177.976 930.064 177.976C920.56 177.976 912.2 180.264 904.984 184.84C897.768 189.24 892.136 195.752 888.088 204.376C884.04 212.824 882.016 223.032 882.016 235C882.016 246.792 884.04 257 888.088 265.624C892.312 274.248 898.12 280.848 905.512 285.424C913.08 289.824 921.792 292.024 931.648 292.024C941.856 292.024 950.568 289.824 957.784 285.424C965.176 281.024 970.896 274.952 974.944 267.208L985.504 273.28C982.336 279.616 978.112 285.072 972.832 289.648C967.552 294.048 961.48 297.48 954.616 299.944C947.752 302.408 940.184 303.64 931.912 303.64ZM1099.99 214.144C1099.99 202.704 1096.91 193.816 1090.75 187.48C1084.59 181.144 1075.79 177.976 1064.35 177.976C1054.31 177.976 1045.69 180.176 1038.47 184.576C1031.26 188.8 1025.89 195.928 1022.37 205.96L1011.55 199.096C1015.42 188.712 1021.84 180.704 1030.82 175.072C1039.97 169.264 1051.23 166.36 1064.61 166.36C1074.29 166.36 1082.74 168.12 1089.95 171.64C1097.35 174.984 1103.07 180 1107.11 186.688C1111.16 193.376 1113.19 201.736 1113.19 211.768V277.768C1113.19 287.096 1117.41 291.76 1125.86 291.76C1129.55 291.76 1132.72 291.144 1135.36 289.912L1134.57 300.472C1131.58 302.056 1127.71 302.848 1122.95 302.848C1118.91 302.848 1115.12 302.056 1111.6 300.472C1108.08 298.888 1105.18 296.248 1102.89 292.552C1100.78 288.856 1099.72 283.84 1099.72 277.504V270.376L1103.42 270.112C1101.83 277.68 1098.31 284.016 1092.86 289.12C1087.58 294.048 1081.42 297.744 1074.38 300.208C1067.34 302.496 1060.3 303.64 1053.26 303.64C1044.99 303.64 1037.59 302.32 1031.08 299.68C1024.57 297.04 1019.47 293.256 1015.77 288.328C1012.07 283.224 1010.23 276.976 1010.23 269.584C1010.23 259.728 1013.48 251.808 1019.99 245.824C1026.68 239.664 1036.01 235.44 1047.98 233.152L1102.63 222.328V233.416L1054.58 242.92C1044.19 245.032 1036.45 248.112 1031.35 252.16C1026.24 256.208 1023.69 261.752 1023.69 268.792C1023.69 276.008 1026.42 281.728 1031.87 285.952C1037.33 290 1045.07 292.024 1055.11 292.024C1060.21 292.024 1065.4 291.32 1070.68 289.912C1075.96 288.504 1080.8 286.304 1085.2 283.312C1089.78 280.144 1093.39 276.272 1096.03 271.696C1098.67 266.944 1099.99 261.224 1099.99 254.536V214.144ZM1208.22 303.64C1196.78 303.64 1186.48 300.912 1177.33 295.456C1168.18 290 1160.96 282.168 1155.68 271.96C1150.58 261.576 1148.03 249.256 1148.03 235C1148.03 220.392 1150.75 207.984 1156.21 197.776C1161.67 187.568 1169.06 179.824 1178.39 174.544C1187.71 169.088 1198.01 166.36 1209.27 166.36C1221.59 166.36 1232.07 169.616 1240.69 176.128C1249.49 182.64 1255.39 191.704 1258.38 203.32L1256.79 204.376V108.28H1269.99V301H1258.11L1257.32 264.304L1258.91 263.776C1257.32 272.224 1254.07 279.44 1249.14 285.424C1244.39 291.408 1238.4 295.984 1231.19 299.152C1224.15 302.144 1216.49 303.64 1208.22 303.64ZM1209.8 292.024C1219.13 292.024 1227.31 289.736 1234.35 285.16C1241.39 280.408 1246.85 273.632 1250.72 264.832C1254.77 256.032 1256.79 245.736 1256.79 233.944C1256.79 222.328 1254.77 212.384 1250.72 204.112C1246.85 195.664 1241.39 189.24 1234.35 184.84C1227.49 180.264 1219.48 177.976 1210.33 177.976C1195.19 177.976 1183.23 183.08 1174.43 193.288C1165.63 203.496 1161.23 217.4 1161.23 235C1161.23 252.6 1165.54 266.504 1174.16 276.712C1182.96 286.92 1194.84 292.024 1209.8 292.024ZM1415.3 169L1351.42 325.288C1348.25 333.384 1344.82 339.808 1341.12 344.56C1337.42 349.312 1333.29 352.656 1328.71 354.592C1324.14 356.704 1318.86 357.76 1312.87 357.76C1307.59 357.76 1302.75 356.968 1298.35 355.384C1293.95 353.8 1290.34 351.6 1287.53 348.784L1291.75 337.432C1294.39 340.6 1297.56 342.8 1301.26 344.032C1304.95 345.44 1308.74 346.144 1312.61 346.144C1318.24 346.144 1323.26 344.472 1327.66 341.128C1332.06 337.96 1336.19 331.624 1340.06 322.12L1348.78 301L1334.78 268.264L1293.07 169H1308.12L1348.51 269.056L1355.11 286.744L1362.24 267.736L1401.05 169H1415.3Z" fill="url(#paint7_linear_1611_1520)"/>
<defs>
<linearGradient id="paint0_linear_1611_1520" x1="434.411" y1="262.961" x2="434.582" y2="403.835" gradientUnits="userSpaceOnUse">
<stop stop-color="#0F3493"/>
<stop offset="1" stop-color="#5682EB"/>
</linearGradient>
<linearGradient id="paint1_linear_1611_1520" x1="74.9679" y1="263.395" x2="75.1385" y2="404.27" gradientUnits="userSpaceOnUse">
<stop stop-color="#0F3493"/>
<stop offset="1" stop-color="#5682EB"/>
</linearGradient>
<linearGradient id="paint2_linear_1611_1520" x1="253.945" y1="1.06653" x2="254.34" y2="327.212" gradientUnits="userSpaceOnUse">
<stop stop-color="#82B894"/>
<stop offset="1" stop-color="#5682EB"/>
</linearGradient>
<linearGradient id="paint3_linear_1611_1520" x1="253.945" y1="1.06653" x2="254.34" y2="327.212" gradientUnits="userSpaceOnUse">
<stop stop-color="#0F3493"/>
<stop offset="1" stop-color="#5682EB"/>
</linearGradient>
<linearGradient id="paint4_linear_1611_1520" x1="252.361" y1="102.669" x2="252.726" y2="404.055" gradientUnits="userSpaceOnUse">
<stop stop-color="#0F3493"/>
<stop offset="1" stop-color="#5682EB"/>
</linearGradient>
<linearGradient id="paint5_linear_1611_1520" x1="222.718" y1="287.977" x2="222.718" y2="312.737" gradientUnits="userSpaceOnUse">
<stop stop-color="#2E5ACD"/>
<stop offset="1" stop-color="#4D7DEE"/>
</linearGradient>
<linearGradient id="paint6_linear_1611_1520" x1="286.752" y1="287.901" x2="286.752" y2="312.661" gradientUnits="userSpaceOnUse">
<stop stop-color="#2E5ACD"/>
<stop offset="1" stop-color="#4D7DEE"/>
</linearGradient>
<linearGradient id="paint7_linear_1611_1520" x1="536.814" y1="211.508" x2="1486.19" y2="211.508" gradientUnits="userSpaceOnUse">
<stop stop-color="#34A7D9"/>
<stop offset="0.9997" stop-color="#4B47FF"/>
<stop offset="0.9998"/>
<stop offset="0.9999" stop-color="#0A22DD" stop-opacity="0.157052"/>
<stop offset="1" stop-color="#0944DC" stop-opacity="0.130208"/>
</linearGradient>
</defs>
</svg>
