<svg width="40" height="30" viewBox="0 0 40 30" fill="none" xmlns="http://www.w3.org/2000/svg">
<path d="M9.13797 9.88965C10.6502 16.1847 12.471 18.3261 17.5862 19.4501C12.7417 20.9779 10.9417 23.1422 9.13797 29.0105C7.79062 23.4531 6.06524 21.2408 0.689697 19.4501C5.9293 18.2782 7.56906 15.9076 9.13797 9.88965Z" fill="#006FFF"/>
<path d="M3.75979 2.91833C0.585928 5.93053 0.585929 10.8143 3.75979 13.8265L19.734 29.0108L36.2404 14.0101C39.4142 10.9979 39.4142 6.11417 36.2404 3.10197C33.0665 0.0897738 27.9207 0.0897738 24.7468 3.10197L20.0968 7.5389L15.2534 2.91833C12.0795 -0.0938703 6.93366 -0.0938703 3.75979 2.91833Z" fill="#FF5454"/>
<path d="M33.9378 16.1427C33.9439 16.1165 33.9471 16.0893 33.9471 16.0613C33.9471 15.8534 33.7697 15.6848 33.5507 15.6848C33.3318 15.6848 33.1543 15.8534 33.1543 16.0613C33.1543 16.2693 33.3318 16.4378 33.5507 16.4378C33.5737 16.4378 33.5962 16.436 33.6181 16.4324L33.9378 16.1427Z" fill="#FF9182"/>
<path d="M32.7153 17.2503C32.6763 17.0225 32.4682 16.8485 32.2173 16.8485C31.9386 16.8485 31.7127 17.0631 31.7127 17.3277C31.7127 17.5582 31.8841 17.7507 32.1124 17.7965L32.7153 17.2503Z" fill="#FF9182"/>
<path d="M31.4576 18.3897C31.3705 18.1692 31.1465 18.0122 30.8838 18.0122C30.5455 18.0122 30.2712 18.2727 30.2712 18.5941C30.2712 18.8338 30.4238 19.0397 30.6418 19.1288L31.4576 18.3897Z" fill="#FF9182"/>
<path d="M30.1239 19.598C30.0103 19.3881 29.78 19.2444 29.5143 19.2444C29.1362 19.2444 28.8296 19.5355 28.8296 19.8947C28.8296 20.136 28.9681 20.3467 29.1736 20.4589L30.1239 19.598Z" fill="#FF9182"/>
<path d="M28.7948 20.8021C28.6678 20.6068 28.4404 20.4765 28.1809 20.4765C27.7828 20.4765 27.4601 20.783 27.4601 21.1611C27.4601 21.3959 27.5847 21.6032 27.7745 21.7265L28.7948 20.8021Z" fill="#FF9182"/>
<path d="M27.4524 22.0183C27.3082 21.8306 27.0748 21.7087 26.8114 21.7087C26.3735 21.7087 26.0186 22.0458 26.0186 22.4617C26.0186 22.699 26.1342 22.9108 26.3149 23.0488L27.4524 22.0183Z" fill="#FF9182"/>
<path d="M26.1177 23.2275C25.9657 23.0524 25.7356 22.9408 25.478 22.9408C25.0202 22.9408 24.6491 23.2933 24.6491 23.7281C24.6491 23.9593 24.7541 24.1673 24.9213 24.3113L26.1177 23.2275Z" fill="#FF9182"/>
<path d="M24.7704 24.4481C24.6058 24.2789 24.3702 24.173 24.1085 24.173C23.6109 24.173 23.2075 24.5561 23.2075 25.0287C23.2075 25.24 23.2882 25.4335 23.422 25.5828C23.2538 25.4303 23.0259 25.3367 22.7751 25.3367C22.2576 25.3367 21.838 25.7351 21.838 26.2266C21.838 26.4724 21.943 26.6949 22.1126 26.8559L24.7704 24.4481Z" fill="#FF9182"/>
<path d="M22.0292 26.9315C21.8636 26.7911 21.6451 26.7058 21.4056 26.7058C21.1812 26.7058 20.9753 26.7806 20.814 26.9055C20.9584 26.7397 21.0452 26.527 21.0452 26.295C21.0452 26.0631 20.9584 25.8504 20.814 25.6846C20.9753 25.8095 21.1812 25.8843 21.4056 25.8843C21.9231 25.8843 22.3426 25.4859 22.3426 24.9944C22.3426 24.503 21.9231 24.1045 21.4056 24.1045C20.8881 24.1045 20.4686 24.503 20.4686 24.9944C20.4686 25.2075 20.5474 25.403 20.6789 25.5562C20.5043 25.4191 20.2803 25.3367 20.0361 25.3367C19.4788 25.3367 19.027 25.7658 19.027 26.295C19.027 26.8243 19.4788 27.2534 20.0361 27.2534C20.2803 27.2534 20.5043 27.171 20.6789 27.0338C20.5474 27.187 20.4686 27.3826 20.4686 27.5956C20.4686 27.808 20.5469 28.003 20.6776 28.156L22.0292 26.9315Z" fill="#FF9182"/>
<path d="M20.6643 28.1681C20.4927 27.9849 20.2425 27.8695 19.964 27.8695C19.7532 27.8695 19.5587 27.9355 19.4022 28.0471C19.4844 27.9147 19.5315 27.7604 19.5315 27.5956C19.5315 27.1042 19.112 26.7058 18.5945 26.7058C18.2446 26.7058 17.9396 26.8879 17.7786 27.1577L19.0574 28.3695C19.0918 28.3509 19.1249 28.3303 19.1564 28.3079C19.1358 28.341 19.1174 28.3755 19.1014 28.4112L19.7341 29.0108L20.6643 28.1681Z" fill="#FF9182"/>
<path d="M17.686 27.07C17.9702 26.9172 18.1621 26.6274 18.1621 26.295C18.1621 25.8036 17.7425 25.4051 17.225 25.4051C16.8744 25.4051 16.5687 25.5881 16.408 25.859L17.686 27.07Z" fill="#FF9182"/>
<path d="M16.3241 25.7795C16.6033 25.6341 16.7926 25.3524 16.7926 25.0287C16.7926 24.5561 16.3892 24.173 15.8916 24.173C15.55 24.173 15.2529 24.3535 15.1001 24.6196L16.3241 25.7795Z" fill="#FF9182"/>
<path d="M14.8993 24.4292C15.1674 24.2989 15.351 24.0338 15.351 23.7281C15.351 23.2933 14.9799 22.9408 14.5221 22.9408C14.1995 22.9408 13.9199 23.1159 13.783 23.3714L14.8993 24.4292Z" fill="#FF9182"/>
<path d="M13.5369 23.1383C13.8002 23.0159 13.9815 22.7589 13.9815 22.4617C13.9815 22.0458 13.6266 21.7087 13.1887 21.7087C12.8751 21.7087 12.6041 21.8816 12.4754 22.1324L13.5369 23.1383Z" fill="#FF9182"/>
<path d="M12.1111 21.7871C12.3637 21.6808 12.54 21.4405 12.54 21.1611C12.54 20.783 12.2173 20.4765 11.8192 20.4765C11.5244 20.4765 11.271 20.6446 11.1593 20.8853L12.1111 21.7871Z" fill="#FF9182"/>
<path d="M10.7481 20.4956C10.9961 20.3978 11.1705 20.1656 11.1705 19.8947C11.1705 19.5355 10.8639 19.2444 10.4858 19.2444C10.2 19.2444 9.95508 19.4107 9.85248 19.6469L10.7481 20.4956Z" fill="#FF9182"/>
<path d="M9.32052 19.1428C9.55847 19.0629 9.72894 18.8474 9.72894 18.5941C9.72894 18.2727 9.45464 18.0122 9.11628 18.0122C8.84905 18.0122 8.62178 18.1747 8.53803 18.4013L9.32052 19.1428Z" fill="#FF9182"/>
<path d="M7.89758 17.7944C8.12095 17.7451 8.28738 17.5549 8.28738 17.3277C8.28738 17.0631 8.06149 16.8485 7.78283 16.8485C7.54326 16.8485 7.34269 17.0071 7.29114 17.2198L7.89758 17.7944Z" fill="#FF9182"/>
<path d="M6.46563 16.4375C6.67704 16.4294 6.84582 16.2641 6.84582 16.0613C6.84582 15.8534 6.66833 15.6848 6.44939 15.6848C6.23559 15.6848 6.06132 15.8456 6.05325 16.0467L6.46563 16.4375Z" fill="#FF9182"/>
<path d="M18.6306 7.26512C18.531 7.26512 18.4504 7.1885 18.4504 7.09398C18.4504 6.99947 18.531 6.92285 18.6306 6.92285C18.7301 6.92285 18.8108 6.99947 18.8108 7.09398C18.8108 7.1885 18.7301 7.26512 18.6306 7.26512Z" fill="#FF9182"/>
<path d="M20.0361 8.56572C20.1953 8.56572 20.3244 8.44313 20.3244 8.29191C20.3244 8.14069 20.1953 8.0181 20.0361 8.0181C19.8769 8.0181 19.7478 8.14069 19.7478 8.29191C19.7478 8.44313 19.8769 8.56572 20.0361 8.56572Z" fill="#FF9182"/>
<path d="M20.5406 10.8931C20.5406 11.1578 20.3147 11.3723 20.0361 11.3723C19.7574 11.3723 19.5315 11.1578 19.5315 10.8931C19.5315 10.6285 19.7574 10.414 20.0361 10.414C20.3147 10.414 20.5406 10.6285 20.5406 10.8931Z" fill="#FF9182"/>
<path d="M20.0361 13.9735C20.3545 13.9735 20.6127 13.7283 20.6127 13.4259C20.6127 13.1234 20.3545 12.8783 20.0361 12.8783C19.7176 12.8783 19.4595 13.1234 19.4595 13.4259C19.4595 13.7283 19.7176 13.9735 20.0361 13.9735Z" fill="#FF9182"/>
<path d="M20.7569 16.0271C20.7569 16.4051 20.4342 16.7116 20.0361 16.7116C19.638 16.7116 19.3153 16.4051 19.3153 16.0271C19.3153 15.649 19.638 15.3426 20.0361 15.3426C20.4342 15.3426 20.7569 15.649 20.7569 16.0271Z" fill="#FF9182"/>
<path d="M20.0361 19.3128C20.474 19.3128 20.8289 18.9757 20.8289 18.5599C20.8289 18.144 20.474 17.8069 20.0361 17.8069C19.5982 17.8069 19.2432 18.144 19.2432 18.5599C19.2432 18.9757 19.5982 19.3128 20.0361 19.3128Z" fill="#FF9182"/>
<path d="M20.901 21.1611C20.901 21.6147 20.5138 21.9825 20.0361 21.9825C19.5584 21.9825 19.1712 21.6147 19.1712 21.1611C19.1712 20.7074 19.5584 20.3396 20.0361 20.3396C20.5138 20.3396 20.901 20.7074 20.901 21.1611Z" fill="#FF9182"/>
<path d="M20.0361 24.6522C20.5536 24.6522 20.9731 24.2537 20.9731 23.7623C20.9731 23.2708 20.5536 22.8724 20.0361 22.8724C19.5186 22.8724 19.0991 23.2708 19.0991 23.7623C19.0991 24.2537 19.5186 24.6522 20.0361 24.6522Z" fill="#FF9182"/>
<path d="M18.09 21.1611C18.09 21.5769 17.735 21.914 17.2971 21.914C16.8592 21.914 16.5043 21.5769 16.5043 21.1611C16.5043 20.7452 16.8592 20.4081 17.2971 20.4081C17.735 20.4081 18.09 20.7452 18.09 21.1611Z" fill="#FF9182"/>
<path d="M18.6306 23.3516C19.1282 23.3516 19.5315 22.9685 19.5315 22.4959C19.5315 22.0233 19.1282 21.6402 18.6306 21.6402C18.133 21.6402 17.7296 22.0233 17.7296 22.4959C17.7296 22.9685 18.133 23.3516 18.6306 23.3516Z" fill="#FF9182"/>
<path d="M18.6666 18.0807C18.2685 18.0807 17.9458 17.7742 17.9458 17.3962C17.9458 17.0181 18.2685 16.7116 18.6666 16.7116C19.0647 16.7116 19.3874 17.0181 19.3874 17.3962C19.3874 17.7742 19.0647 18.0807 18.6666 18.0807Z" fill="#FF9182"/>
<path d="M17.2611 16.6432C17.6393 16.6432 17.9458 16.352 17.9458 15.9929C17.9458 15.6337 17.6393 15.3426 17.2611 15.3426C16.8829 15.3426 16.5763 15.6337 16.5763 15.9929C16.5763 16.352 16.8829 16.6432 17.2611 16.6432Z" fill="#FF9182"/>
<path d="M18.6666 15.411C18.3083 15.411 18.0179 15.1352 18.0179 14.7949C18.0179 14.4547 18.3083 14.1789 18.6666 14.1789C19.0249 14.1789 19.3153 14.4547 19.3153 14.7949C19.3153 15.1352 19.0249 15.411 18.6666 15.411Z" fill="#FF9182"/>
<path d="M18.6306 12.7414C18.9291 12.7414 19.1712 12.5115 19.1712 12.228C19.1712 11.9444 18.9291 11.7146 18.6306 11.7146C18.332 11.7146 18.09 11.9444 18.09 12.228C18.09 12.5115 18.332 12.7414 18.6306 12.7414Z" fill="#FF9182"/>
<path d="M17.8737 13.4601C17.8737 13.7815 17.5995 14.042 17.2611 14.042C16.9227 14.042 16.6484 13.7815 16.6484 13.4601C16.6484 13.1388 16.9227 12.8783 17.2611 12.8783C17.5995 12.8783 17.8737 13.1388 17.8737 13.4601Z" fill="#FF9182"/>
<path d="M15.9276 15.3426C16.2859 15.3426 16.5763 15.0667 16.5763 14.7265C16.5763 14.3862 16.2859 14.1104 15.9276 14.1104C15.5694 14.1104 15.2789 14.3862 15.2789 14.7265C15.2789 15.0667 15.5694 15.3426 15.9276 15.3426Z" fill="#FF9182"/>
<path d="M15.1348 13.4601C15.1348 13.7436 14.8928 13.9735 14.5942 13.9735C14.2956 13.9735 14.0536 13.7436 14.0536 13.4601C14.0536 13.1766 14.2956 12.9467 14.5942 12.9467C14.8928 12.9467 15.1348 13.1766 15.1348 13.4601Z" fill="#FF9182"/>
<path d="M15.8556 12.6729C16.1342 12.6729 16.3601 12.4584 16.3601 12.1937C16.3601 11.9291 16.1342 11.7146 15.8556 11.7146C15.5769 11.7146 15.351 11.9291 15.351 12.1937C15.351 12.4584 15.5769 12.6729 15.8556 12.6729Z" fill="#FF9182"/>
<path d="M17.7296 10.9273C17.7296 11.1731 17.5198 11.3723 17.2611 11.3723C17.0023 11.3723 16.7926 11.1731 16.7926 10.9273C16.7926 10.6816 17.0023 10.4824 17.2611 10.4824C17.5198 10.4824 17.7296 10.6816 17.7296 10.9273Z" fill="#FF9182"/>
<path d="M18.3062 9.66097C18.3062 9.85 18.4676 10.0032 18.6666 10.0032C18.8656 10.0032 19.027 9.85 19.027 9.66097C19.027 9.47194 18.8656 9.3187 18.6666 9.3187C18.4676 9.3187 18.3062 9.47194 18.3062 9.66097Z" fill="#FF9182"/>
<path d="M15.8916 9.93478C16.0707 9.93478 16.216 9.79687 16.216 9.62674C16.216 9.45662 16.0707 9.3187 15.8916 9.3187C15.7125 9.3187 15.5673 9.45662 15.5673 9.62674C15.5673 9.79687 15.7125 9.93478 15.8916 9.93478Z" fill="#FF9182"/>
<path d="M17.5134 8.32614C17.5134 8.45846 17.4004 8.56572 17.2611 8.56572C17.1218 8.56572 17.0088 8.45846 17.0088 8.32614C17.0088 8.19382 17.1218 8.08655 17.2611 8.08655C17.4004 8.08655 17.5134 8.19382 17.5134 8.32614Z" fill="#FF9182"/>
<path d="M14.5221 11.2354C14.7411 11.2354 14.9186 11.0668 14.9186 10.8589C14.9186 10.651 14.7411 10.4824 14.5221 10.4824C14.3032 10.4824 14.1257 10.651 14.1257 10.8589C14.1257 11.0668 14.3032 11.2354 14.5221 11.2354Z" fill="#FF9182"/>
<path d="M13.6211 12.1253C13.6211 12.3521 13.4275 12.536 13.1887 12.536C12.9498 12.536 12.7562 12.3521 12.7562 12.1253C12.7562 11.8984 12.9498 11.7146 13.1887 11.7146C13.4275 11.7146 13.6211 11.8984 13.6211 12.1253Z" fill="#FF9182"/>
<path d="M11.8552 11.1669C12.0344 11.1669 12.1796 11.029 12.1796 10.8589C12.1796 10.6888 12.0344 10.5509 11.8552 10.5509C11.6761 10.5509 11.5309 10.6888 11.5309 10.8589C11.5309 11.029 11.6761 11.1669 11.8552 11.1669Z" fill="#FF9182"/>
<path d="M13.4049 9.62674C13.4049 9.75906 13.292 9.86633 13.1526 9.86633C13.0133 9.86633 12.9004 9.75906 12.9004 9.62674C12.9004 9.49442 13.0133 9.38716 13.1526 9.38716C13.292 9.38716 13.4049 9.49442 13.4049 9.62674Z" fill="#FF9182"/>
<path d="M14.5582 8.56572C14.6776 8.56572 14.7744 8.47378 14.7744 8.36036C14.7744 8.24695 14.6776 8.155 14.5582 8.155C14.4387 8.155 14.3419 8.24695 14.3419 8.36036C14.3419 8.47378 14.4387 8.56572 14.5582 8.56572Z" fill="#FF9182"/>
<path d="M11.9634 8.36036C11.9634 8.43597 11.8988 8.49727 11.8192 8.49727C11.7396 8.49727 11.675 8.43597 11.675 8.36036C11.675 8.28475 11.7396 8.22346 11.8192 8.22346C11.8988 8.22346 11.9634 8.28475 11.9634 8.36036Z" fill="#FF9182"/>
<path d="M10.4858 9.72942C10.5853 9.72942 10.666 9.6528 10.666 9.55829C10.666 9.46378 10.5853 9.38716 10.4858 9.38716C10.3862 9.38716 10.3056 9.46378 10.3056 9.55829C10.3056 9.6528 10.3862 9.72942 10.4858 9.72942Z" fill="#FF9182"/>
<path d="M18.6306 20.6819C18.1728 20.6819 17.8017 20.3294 17.8017 19.8947C17.8017 19.4599 18.1728 19.1075 18.6306 19.1075C19.0884 19.1075 19.4595 19.4599 19.4595 19.8947C19.4595 20.3294 19.0884 20.6819 18.6306 20.6819Z" fill="#FF9182"/>
<path d="M5.07991 15.0003C5.21924 15.0003 5.33218 14.893 5.33218 14.7607C5.33218 14.6284 5.21924 14.5211 5.07991 14.5211C4.94058 14.5211 4.82764 14.6284 4.82764 14.7607C4.82764 14.893 4.94058 15.0003 5.07991 15.0003Z" fill="#FF9182"/>
<path d="M19.5315 24.9944C19.5315 25.4859 19.112 25.8843 18.5945 25.8843C18.077 25.8843 17.6575 25.4859 17.6575 24.9944C17.6575 24.503 18.077 24.1045 18.5945 24.1045C19.112 24.1045 19.5315 24.503 19.5315 24.9944Z" fill="#FF9182"/>
<path d="M17.2611 24.5837C17.7587 24.5837 18.1621 24.2006 18.1621 23.7281C18.1621 23.2555 17.7587 22.8724 17.2611 22.8724C16.7635 22.8724 16.3601 23.2555 16.3601 23.7281C16.3601 24.2006 16.7635 24.5837 17.2611 24.5837Z" fill="#FF9182"/>
<path d="M16.7205 22.4274C16.7205 22.8622 16.3494 23.2147 15.8916 23.2147C15.4338 23.2147 15.0627 22.8622 15.0627 22.4274C15.0627 21.9927 15.4338 21.6402 15.8916 21.6402C16.3494 21.6402 16.7205 21.9927 16.7205 22.4274Z" fill="#FF9182"/>
<path d="M14.5582 21.914C14.996 21.914 15.351 21.5769 15.351 21.1611C15.351 20.7452 14.996 20.4081 14.5582 20.4081C14.1203 20.4081 13.7653 20.7452 13.7653 21.1611C13.7653 21.5769 14.1203 21.914 14.5582 21.914Z" fill="#FF9182"/>
<path d="M18.0179 18.5599C18.0179 18.9757 17.6629 19.3128 17.225 19.3128C16.7872 19.3128 16.4322 18.9757 16.4322 18.5599C16.4322 18.144 16.7872 17.8069 17.225 17.8069C17.6629 17.8069 18.0179 18.144 18.0179 18.5599Z" fill="#FF9182"/>
<path d="M13.1887 20.545C13.5868 20.545 13.9095 20.2385 13.9095 19.8605C13.9095 19.4824 13.5868 19.1759 13.1887 19.1759C12.7906 19.1759 12.4679 19.4824 12.4679 19.8605C12.4679 20.2385 12.7906 20.545 13.1887 20.545Z" fill="#FF9182"/>
<path d="M16.5763 17.2935C16.5763 17.6526 16.2698 17.9438 15.8916 17.9438C15.5134 17.9438 15.2069 17.6526 15.2069 17.2935C15.2069 16.9343 15.5134 16.6432 15.8916 16.6432C16.2698 16.6432 16.5763 16.9343 16.5763 17.2935Z" fill="#FF9182"/>
<path d="M11.7832 19.2444C12.1613 19.2444 12.4679 18.9532 12.4679 18.5941C12.4679 18.2349 12.1613 17.9438 11.7832 17.9438C11.405 17.9438 11.0984 18.2349 11.0984 18.5941C11.0984 18.9532 11.405 19.2444 11.7832 19.2444Z" fill="#FF9182"/>
<path d="M15.2069 16.0271C15.2069 16.3673 14.9164 16.6432 14.5582 16.6432C14.1999 16.6432 13.9095 16.3673 13.9095 16.0271C13.9095 15.6868 14.1999 15.411 14.5582 15.411C14.9164 15.411 15.2069 15.6868 15.2069 16.0271Z" fill="#FF9182"/>
<path d="M10.4858 17.8753C10.8241 17.8753 11.0984 17.6148 11.0984 17.2935C11.0984 16.9721 10.8241 16.7116 10.4858 16.7116C10.1474 16.7116 9.8731 16.9721 9.8731 17.2935C9.8731 17.6148 10.1474 17.8753 10.4858 17.8753Z" fill="#FF9182"/>
<path d="M13.7653 14.7265C13.7653 15.0289 13.5071 15.2741 13.1887 15.2741C12.8702 15.2741 12.6121 15.0289 12.6121 14.7265C12.6121 14.424 12.8702 14.1789 13.1887 14.1789C13.5071 14.1789 13.7653 14.424 13.7653 14.7265Z" fill="#FF9182"/>
<path d="M9.15232 16.5063C9.43097 16.5063 9.65686 16.2917 9.65686 16.0271C9.65686 15.7625 9.43097 15.5479 9.15232 15.5479C8.87366 15.5479 8.64777 15.7625 8.64777 16.0271C8.64777 16.2917 8.87366 16.5063 9.15232 16.5063Z" fill="#FF9182"/>
<path d="M12.3237 13.4601C12.3237 13.7058 12.114 13.9051 11.8552 13.9051C11.5965 13.9051 11.3867 13.7058 11.3867 13.4601C11.3867 13.2144 11.5965 13.0152 11.8552 13.0152C12.114 13.0152 12.3237 13.2144 12.3237 13.4601Z" fill="#FF9182"/>
<path d="M7.81887 15.1372C8.03782 15.1372 8.2153 14.9686 8.2153 14.7607C8.2153 14.5528 8.03782 14.3842 7.81887 14.3842C7.59993 14.3842 7.42244 14.5528 7.42244 14.7607C7.42244 14.9686 7.59993 15.1372 7.81887 15.1372Z" fill="#FF9182"/>
<path d="M10.8822 12.1937C10.8822 12.3828 10.7208 12.536 10.5218 12.536C10.3228 12.536 10.1614 12.3828 10.1614 12.1937C10.1614 12.0047 10.3228 11.8515 10.5218 11.8515C10.7208 11.8515 10.8822 12.0047 10.8822 12.1937Z" fill="#FF9182"/>
<path d="M6.44939 13.6997C6.58872 13.6997 6.70166 13.5924 6.70166 13.4601C6.70166 13.3278 6.58872 13.2205 6.44939 13.2205C6.31006 13.2205 6.19712 13.3278 6.19712 13.4601C6.19712 13.5924 6.31006 13.6997 6.44939 13.6997Z" fill="#FF9182"/>
<path d="M9.36855 10.8931C9.36855 11.0065 9.27174 11.0985 9.15232 11.0985C9.03289 11.0985 8.93608 11.0065 8.93608 10.8931C8.93608 10.7797 9.03289 10.6878 9.15232 10.6878C9.27174 10.6878 9.36855 10.7797 9.36855 10.8931Z" fill="#FF9182"/>
<path d="M15.8556 20.6134C16.2934 20.6134 16.6484 20.2763 16.6484 19.8605C16.6484 19.4446 16.2934 19.1075 15.8556 19.1075C15.4177 19.1075 15.0627 19.4446 15.0627 19.8605C15.0627 20.2763 15.4177 20.6134 15.8556 20.6134Z" fill="#FF9182"/>
<path d="M15.2789 18.5599C15.2789 18.9379 14.9562 19.2444 14.5582 19.2444C14.1601 19.2444 13.8374 18.9379 13.8374 18.5599C13.8374 18.1818 14.1601 17.8753 14.5582 17.8753C14.9562 17.8753 15.2789 18.1818 15.2789 18.5599Z" fill="#FF9182"/>
<path d="M13.1526 17.9438C13.5308 17.9438 13.8374 17.6526 13.8374 17.2935C13.8374 16.9343 13.5308 16.6432 13.1526 16.6432C12.7745 16.6432 12.4679 16.9343 12.4679 17.2935C12.4679 17.6526 12.7745 17.9438 13.1526 17.9438Z" fill="#FF9182"/>
<path d="M12.3958 15.9586C12.3958 16.2611 12.1377 16.5063 11.8192 16.5063C11.5007 16.5063 11.2426 16.2611 11.2426 15.9586C11.2426 15.6562 11.5007 15.411 11.8192 15.411C12.1377 15.411 12.3958 15.6562 12.3958 15.9586Z" fill="#FF9182"/>
<path d="M10.4858 15.1372C10.7445 15.1372 10.9543 14.938 10.9543 14.6923C10.9543 14.4465 10.7445 14.2473 10.4858 14.2473C10.227 14.2473 10.0173 14.4465 10.0173 14.6923C10.0173 14.938 10.227 15.1372 10.4858 15.1372Z" fill="#FF9182"/>
<path d="M9.51271 13.4601C9.51271 13.668 9.33522 13.8366 9.11628 13.8366C8.89734 13.8366 8.71985 13.668 8.71985 13.4601C8.71985 13.2522 8.89734 13.0836 9.11628 13.0836C9.33522 13.0836 9.51271 13.2522 9.51271 13.4601Z" fill="#FF9182"/>
<path d="M7.78283 12.3991C7.94206 12.3991 8.07115 12.2765 8.07115 12.1253C8.07115 11.9741 7.94206 11.8515 7.78283 11.8515C7.6236 11.8515 7.49452 11.9741 7.49452 12.1253C7.49452 12.2765 7.6236 12.3991 7.78283 12.3991Z" fill="#FF9182"/>
<path d="M21.9101 21.1611C21.9101 21.5769 22.2651 21.914 22.703 21.914C23.1409 21.914 23.4958 21.5769 23.4958 21.1611C23.4958 20.7452 23.1409 20.4081 22.703 20.4081C22.2651 20.4081 21.9101 20.7452 21.9101 21.1611Z" fill="#FF9182"/>
<path d="M21.3695 23.3516C20.8719 23.3516 20.4686 22.9685 20.4686 22.4959C20.4686 22.0233 20.8719 21.6402 21.3695 21.6402C21.8671 21.6402 22.2705 22.0233 22.2705 22.4959C22.2705 22.9685 21.8671 23.3516 21.3695 23.3516Z" fill="#FF9182"/>
<path d="M21.3335 18.0807C21.7316 18.0807 22.0543 17.7742 22.0543 17.3962C22.0543 17.0181 21.7316 16.7116 21.3335 16.7116C20.9354 16.7116 20.6127 17.0181 20.6127 17.3962C20.6127 17.7742 20.9354 18.0807 21.3335 18.0807Z" fill="#FF9182"/>
<path d="M22.739 16.6432C22.3608 16.6432 22.0543 16.352 22.0543 15.9929C22.0543 15.6337 22.3608 15.3426 22.739 15.3426C23.1172 15.3426 23.4238 15.6337 23.4238 15.9929C23.4238 16.352 23.1172 16.6432 22.739 16.6432Z" fill="#FF9182"/>
<path d="M21.3335 15.411C21.6918 15.411 21.9822 15.1352 21.9822 14.7949C21.9822 14.4547 21.6918 14.1789 21.3335 14.1789C20.9752 14.1789 20.6848 14.4547 20.6848 14.7949C20.6848 15.1352 20.9752 15.411 21.3335 15.411Z" fill="#FF9182"/>
<path d="M21.3695 12.7414C21.071 12.7414 20.8289 12.5115 20.8289 12.228C20.8289 11.9444 21.071 11.7146 21.3695 11.7146C21.6681 11.7146 21.9101 11.9444 21.9101 12.228C21.9101 12.5115 21.6681 12.7414 21.3695 12.7414Z" fill="#FF9182"/>
<path d="M22.1264 13.4601C22.1264 13.7815 22.4006 14.042 22.739 14.042C23.0774 14.042 23.3517 13.7815 23.3517 13.4601C23.3517 13.1388 23.0774 12.8783 22.739 12.8783C22.4006 12.8783 22.1264 13.1388 22.1264 13.4601Z" fill="#FF9182"/>
<path d="M24.0725 15.3426C23.7142 15.3426 23.4238 15.0667 23.4238 14.7265C23.4238 14.3862 23.7142 14.1104 24.0725 14.1104C24.4307 14.1104 24.7212 14.3862 24.7212 14.7265C24.7212 15.0667 24.4307 15.3426 24.0725 15.3426Z" fill="#FF9182"/>
<path d="M24.8653 13.4601C24.8653 13.7436 25.1073 13.9735 25.4059 13.9735C25.7045 13.9735 25.9465 13.7436 25.9465 13.4601C25.9465 13.1766 25.7045 12.9467 25.4059 12.9467C25.1073 12.9467 24.8653 13.1766 24.8653 13.4601Z" fill="#FF9182"/>
<path d="M24.1445 12.6729C23.8659 12.6729 23.64 12.4584 23.64 12.1937C23.64 11.9291 23.8659 11.7146 24.1445 11.7146C24.4232 11.7146 24.6491 11.9291 24.6491 12.1937C24.6491 12.4584 24.4232 12.6729 24.1445 12.6729Z" fill="#FF9182"/>
<path d="M22.2705 10.9273C22.2705 11.1731 22.4803 11.3723 22.739 11.3723C22.9978 11.3723 23.2075 11.1731 23.2075 10.9273C23.2075 10.6816 22.9978 10.4824 22.739 10.4824C22.4803 10.4824 22.2705 10.6816 22.2705 10.9273Z" fill="#FF9182"/>
<path d="M21.6939 9.66097C21.6939 9.85 21.5325 10.0032 21.3335 10.0032C21.1345 10.0032 20.9731 9.85 20.9731 9.66097C20.9731 9.47194 21.1345 9.3187 21.3335 9.3187C21.5325 9.3187 21.6939 9.47194 21.6939 9.66097Z" fill="#FF9182"/>
<path d="M21.3695 7.26512C21.469 7.26512 21.5497 7.1885 21.5497 7.09398C21.5497 6.99947 21.469 6.92285 21.3695 6.92285C21.27 6.92285 21.1893 6.99947 21.1893 7.09398C21.1893 7.1885 21.27 7.26512 21.3695 7.26512Z" fill="#FF9182"/>
<path d="M24.1085 9.93478C23.9294 9.93478 23.7841 9.79687 23.7841 9.62674C23.7841 9.45662 23.9294 9.3187 24.1085 9.3187C24.2876 9.3187 24.4328 9.45662 24.4328 9.62674C24.4328 9.79687 24.2876 9.93478 24.1085 9.93478Z" fill="#FF9182"/>
<path d="M22.4867 8.32614C22.4867 8.45846 22.5997 8.56572 22.739 8.56572C22.8783 8.56572 22.9913 8.45846 22.9913 8.32614C22.9913 8.19382 22.8783 8.08655 22.739 8.08655C22.5997 8.08655 22.4867 8.19382 22.4867 8.32614Z" fill="#FF9182"/>
<path d="M25.478 11.2354C25.259 11.2354 25.0815 11.0668 25.0815 10.8589C25.0815 10.651 25.259 10.4824 25.478 10.4824C25.6969 10.4824 25.8744 10.651 25.8744 10.8589C25.8744 11.0668 25.6969 11.2354 25.478 11.2354Z" fill="#FF9182"/>
<path d="M26.379 12.1253C26.379 12.3521 26.5726 12.536 26.8114 12.536C27.0503 12.536 27.2439 12.3521 27.2439 12.1253C27.2439 11.8984 27.0503 11.7146 26.8114 11.7146C26.5726 11.7146 26.379 11.8984 26.379 12.1253Z" fill="#FF9182"/>
<path d="M28.1449 11.1669C27.9657 11.1669 27.8205 11.029 27.8205 10.8589C27.8205 10.6888 27.9657 10.5509 28.1449 10.5509C28.324 10.5509 28.4692 10.6888 28.4692 10.8589C28.4692 11.029 28.324 11.1669 28.1449 11.1669Z" fill="#FF9182"/>
<path d="M26.5952 9.62674C26.5952 9.75906 26.7081 9.86633 26.8475 9.86633C26.9868 9.86633 27.0997 9.75906 27.0997 9.62674C27.0997 9.49442 26.9868 9.38716 26.8475 9.38716C26.7081 9.38716 26.5952 9.49442 26.5952 9.62674Z" fill="#FF9182"/>
<path d="M25.4419 8.56572C25.3225 8.56572 25.2257 8.47378 25.2257 8.36036C25.2257 8.24695 25.3225 8.155 25.4419 8.155C25.5614 8.155 25.6582 8.24695 25.6582 8.36036C25.6582 8.47378 25.5614 8.56572 25.4419 8.56572Z" fill="#FF9182"/>
<path d="M28.0367 8.36036C28.0367 8.43597 28.1013 8.49727 28.1809 8.49727C28.2605 8.49727 28.3251 8.43597 28.3251 8.36036C28.3251 8.28475 28.2605 8.22346 28.1809 8.22346C28.1013 8.22346 28.0367 8.28475 28.0367 8.36036Z" fill="#FF9182"/>
<path d="M29.5143 9.72942C29.4148 9.72942 29.3342 9.6528 29.3342 9.55829C29.3342 9.46378 29.4148 9.38716 29.5143 9.38716C29.6139 9.38716 29.6945 9.46378 29.6945 9.55829C29.6945 9.6528 29.6139 9.72942 29.5143 9.72942Z" fill="#FF9182"/>
<path d="M21.3695 20.6819C21.8273 20.6819 22.1984 20.3294 22.1984 19.8947C22.1984 19.4599 21.8273 19.1075 21.3695 19.1075C20.9117 19.1075 20.5406 19.4599 20.5406 19.8947C20.5406 20.3294 20.9117 20.6819 21.3695 20.6819Z" fill="#FF9182"/>
<path d="M34.9202 15.0003C34.7809 15.0003 34.6679 14.893 34.6679 14.7607C34.6679 14.6284 34.7809 14.5211 34.9202 14.5211C35.0595 14.5211 35.1725 14.6284 35.1725 14.7607C35.1725 14.893 35.0595 15.0003 34.9202 15.0003Z" fill="#FF9182"/>
<path d="M22.739 24.5837C22.2414 24.5837 21.838 24.2006 21.838 23.7281C21.838 23.2555 22.2414 22.8724 22.739 22.8724C23.2366 22.8724 23.64 23.2555 23.64 23.7281C23.64 24.2006 23.2366 24.5837 22.739 24.5837Z" fill="#FF9182"/>
<path d="M23.2796 22.4274C23.2796 22.8622 23.6507 23.2147 24.1085 23.2147C24.5663 23.2147 24.9374 22.8622 24.9374 22.4274C24.9374 21.9927 24.5663 21.6402 24.1085 21.6402C23.6507 21.6402 23.2796 21.9927 23.2796 22.4274Z" fill="#FF9182"/>
<path d="M25.4419 21.914C25.0041 21.914 24.6491 21.5769 24.6491 21.1611C24.6491 20.7452 25.0041 20.4081 25.4419 20.4081C25.8798 20.4081 26.2348 20.7452 26.2348 21.1611C26.2348 21.5769 25.8798 21.914 25.4419 21.914Z" fill="#FF9182"/>
<path d="M21.9822 18.5599C21.9822 18.9757 22.3372 19.3128 22.7751 19.3128C23.2129 19.3128 23.5679 18.9757 23.5679 18.5599C23.5679 18.144 23.2129 17.8069 22.7751 17.8069C22.3372 17.8069 21.9822 18.144 21.9822 18.5599Z" fill="#FF9182"/>
<path d="M26.8114 20.545C26.4133 20.545 26.0906 20.2385 26.0906 19.8605C26.0906 19.4824 26.4133 19.1759 26.8114 19.1759C27.2095 19.1759 27.5322 19.4824 27.5322 19.8605C27.5322 20.2385 27.2095 20.545 26.8114 20.545Z" fill="#FF9182"/>
<path d="M23.4238 17.2935C23.4238 17.6526 23.7303 17.9438 24.1085 17.9438C24.4867 17.9438 24.7932 17.6526 24.7932 17.2935C24.7932 16.9343 24.4867 16.6432 24.1085 16.6432C23.7303 16.6432 23.4238 16.9343 23.4238 17.2935Z" fill="#FF9182"/>
<path d="M28.2169 19.2444C27.8388 19.2444 27.5322 18.9532 27.5322 18.5941C27.5322 18.2349 27.8388 17.9438 28.2169 17.9438C28.5951 17.9438 28.9017 18.2349 28.9017 18.5941C28.9017 18.9532 28.5951 19.2444 28.2169 19.2444Z" fill="#FF9182"/>
<path d="M24.7932 16.0271C24.7932 16.3673 25.0837 16.6432 25.4419 16.6432C25.8002 16.6432 26.0906 16.3673 26.0906 16.0271C26.0906 15.6868 25.8002 15.411 25.4419 15.411C25.0837 15.411 24.7932 15.6868 24.7932 16.0271Z" fill="#FF9182"/>
<path d="M29.5143 17.8753C29.176 17.8753 28.9017 17.6148 28.9017 17.2935C28.9017 16.9721 29.176 16.7116 29.5143 16.7116C29.8527 16.7116 30.127 16.9721 30.127 17.2935C30.127 17.6148 29.8527 17.8753 29.5143 17.8753Z" fill="#FF9182"/>
<path d="M26.2348 14.7265C26.2348 15.0289 26.493 15.2741 26.8114 15.2741C27.1299 15.2741 27.388 15.0289 27.388 14.7265C27.388 14.424 27.1299 14.1789 26.8114 14.1789C26.493 14.1789 26.2348 14.424 26.2348 14.7265Z" fill="#FF9182"/>
<path d="M30.8478 16.5063C30.5691 16.5063 30.3432 16.2917 30.3432 16.0271C30.3432 15.7625 30.5691 15.5479 30.8478 15.5479C31.1264 15.5479 31.3523 15.7625 31.3523 16.0271C31.3523 16.2917 31.1264 16.5063 30.8478 16.5063Z" fill="#FF9182"/>
<path d="M27.6764 13.4601C27.6764 13.7058 27.8861 13.9051 28.1449 13.9051C28.4036 13.9051 28.6134 13.7058 28.6134 13.4601C28.6134 13.2144 28.4036 13.0152 28.1449 13.0152C27.8861 13.0152 27.6764 13.2144 27.6764 13.4601Z" fill="#FF9182"/>
<path d="M32.1812 15.1372C31.9623 15.1372 31.7848 14.9686 31.7848 14.7607C31.7848 14.5528 31.9623 14.3842 32.1812 14.3842C32.4002 14.3842 32.5777 14.5528 32.5777 14.7607C32.5777 14.9686 32.4002 15.1372 32.1812 15.1372Z" fill="#FF9182"/>
<path d="M29.1179 12.1937C29.1179 12.3828 29.2793 12.536 29.4783 12.536C29.6773 12.536 29.8387 12.3828 29.8387 12.1937C29.8387 12.0047 29.6773 11.8515 29.4783 11.8515C29.2793 11.8515 29.1179 12.0047 29.1179 12.1937Z" fill="#FF9182"/>
<path d="M33.5507 13.6997C33.4114 13.6997 33.2984 13.5924 33.2984 13.4601C33.2984 13.3278 33.4114 13.2205 33.5507 13.2205C33.69 13.2205 33.803 13.3278 33.803 13.4601C33.803 13.5924 33.69 13.6997 33.5507 13.6997Z" fill="#FF9182"/>
<path d="M30.6316 10.8931C30.6316 11.0065 30.7284 11.0985 30.8478 11.0985C30.9672 11.0985 31.064 11.0065 31.064 10.8931C31.064 10.7797 30.9672 10.6878 30.8478 10.6878C30.7284 10.6878 30.6316 10.7797 30.6316 10.8931Z" fill="#FF9182"/>
<path d="M24.1445 20.6134C23.7066 20.6134 23.3517 20.2763 23.3517 19.8605C23.3517 19.4446 23.7066 19.1075 24.1445 19.1075C24.5824 19.1075 24.9374 19.4446 24.9374 19.8605C24.9374 20.2763 24.5824 20.6134 24.1445 20.6134Z" fill="#FF9182"/>
<path d="M24.7212 18.5599C24.7212 18.9379 25.0439 19.2444 25.4419 19.2444C25.84 19.2444 26.1627 18.9379 26.1627 18.5599C26.1627 18.1818 25.84 17.8753 25.4419 17.8753C25.0439 17.8753 24.7212 18.1818 24.7212 18.5599Z" fill="#FF9182"/>
<path d="M26.8475 17.9438C26.4693 17.9438 26.1627 17.6526 26.1627 17.2935C26.1627 16.9343 26.4693 16.6432 26.8475 16.6432C27.2256 16.6432 27.5322 16.9343 27.5322 17.2935C27.5322 17.6526 27.2256 17.9438 26.8475 17.9438Z" fill="#FF9182"/>
<path d="M27.6043 15.9586C27.6043 16.2611 27.8624 16.5063 28.1809 16.5063C28.4994 16.5063 28.7575 16.2611 28.7575 15.9586C28.7575 15.6562 28.4994 15.411 28.1809 15.411C27.8624 15.411 27.6043 15.6562 27.6043 15.9586Z" fill="#FF9182"/>
<path d="M29.5143 15.1372C29.2556 15.1372 29.0458 14.938 29.0458 14.6923C29.0458 14.4465 29.2556 14.2473 29.5143 14.2473C29.7731 14.2473 29.9829 14.4465 29.9829 14.6923C29.9829 14.938 29.7731 15.1372 29.5143 15.1372Z" fill="#FF9182"/>
<path d="M30.4874 13.4601C30.4874 13.668 30.6649 13.8366 30.8838 13.8366C31.1028 13.8366 31.2803 13.668 31.2803 13.4601C31.2803 13.2522 31.1028 13.0836 30.8838 13.0836C30.6649 13.0836 30.4874 13.2522 30.4874 13.4601Z" fill="#FF9182"/>
<path d="M32.2173 12.3991C32.058 12.3991 31.929 12.2765 31.929 12.1253C31.929 11.9741 32.058 11.8515 32.2173 11.8515C32.3765 11.8515 32.5056 11.9741 32.5056 12.1253C32.5056 12.2765 32.3765 12.3991 32.2173 12.3991Z" fill="#FF9182"/>
<path fill-rule="evenodd" clip-rule="evenodd" d="M12.5486 22.1974C13.8013 20.9106 15.407 20.0642 17.6692 19.3544C12.4963 18.2234 10.655 16.0687 9.12566 9.73438C8.3483 12.7012 7.55375 14.7871 6.32227 16.2818L12.5486 22.1974Z" fill="#FEE798"/>
<path d="M30.8622 4.61523C31.3868 6.89448 32.0186 7.66982 33.7932 8.07677C32.1124 8.62994 31.488 9.41358 30.8622 11.5383C30.3947 9.52613 29.7961 8.72513 27.9312 8.07677C29.749 7.65247 30.3179 6.79414 30.8622 4.61523Z" fill="#FEE798"/>
<path d="M29.2728 25.8462L30.792 29.192M32.6326 22.743L36.1192 25.891M35.9813 18.8508L39.2601 20.2926" stroke="#FFC85C" stroke-width="2"/>
</svg>
