<svg width="802" height="250" viewBox="0 0 802 250" fill="none" xmlns="http://www.w3.org/2000/svg">
<path d="M70.5195 16.12C86.5355 16.12 99.9995 19.288 110.911 25.624C121.999 31.96 130.448 41.64 136.255 54.664L125.168 63.112C120.063 50.792 112.847 41.904 103.519 36.448C94.3675 30.992 83.0155 28.264 69.4635 28.264C59.0795 28.264 50.2795 29.936 43.0635 33.28C35.8475 36.448 30.3035 40.76 26.4315 46.216C22.7355 51.496 20.8875 57.48 20.8875 64.168C20.8875 72.264 23.5275 78.952 28.8075 84.232C34.0875 89.512 43.7675 93.736 57.8475 96.904L92.1675 104.296C109.239 107.992 121.207 113.36 128.071 120.4C135.111 127.264 138.632 136.152 138.632 147.064C138.632 156.568 135.816 165.016 130.183 172.408C124.727 179.8 117.159 185.52 107.479 189.568C97.7995 193.616 86.4475 195.64 73.4235 195.64C60.9275 195.64 49.7515 193.968 39.8955 190.624C30.2155 187.104 22.0315 182.264 15.3435 176.104C8.65549 169.768 3.72749 162.2 0.559489 153.4L12.1755 144.424C14.6395 152.696 18.6875 159.824 24.3195 165.808C30.1275 171.616 37.2555 176.016 45.7035 179.008C54.1515 182 63.5675 183.496 73.9515 183.496C83.8075 183.496 92.6075 182.176 100.351 179.536C108.095 176.72 114.079 172.672 118.303 167.392C122.703 162.112 124.903 155.6 124.903 147.856C124.903 140.464 122.263 134.216 116.983 129.112C111.879 124.008 102.727 120.136 89.5275 117.496L53.6235 109.576C42.5355 107.112 33.5595 103.856 26.6955 99.808C19.8315 95.76 14.8155 90.92 11.6475 85.288C8.65549 79.48 7.15949 72.968 7.15949 65.752C7.15949 56.776 9.71149 48.592 14.8155 41.2C19.9195 33.632 27.2235 27.56 36.7275 22.984C46.2315 18.408 57.4955 16.12 70.5195 16.12ZM192.261 24.304V158.152C192.261 166.424 194.197 172.76 198.069 177.16C202.117 181.384 207.925 183.496 215.493 183.496C220.421 183.496 224.733 182.704 228.429 181.12C232.301 179.36 235.733 176.896 238.725 173.728L243.741 184.552C240.397 187.896 236.173 190.624 231.069 192.736C225.965 194.672 220.245 195.64 213.909 195.64C207.045 195.64 200.973 194.408 195.693 191.944C190.413 189.304 186.277 185.344 183.285 180.064C180.469 174.784 179.061 168.096 179.061 160V28L192.261 24.304ZM241.629 61V72.352H152.661V61H241.629ZM317.912 195.64C305.768 195.64 294.944 192.912 285.44 187.456C275.936 182 268.456 174.168 263 163.96C257.72 153.576 255.08 141.256 255.08 127C255.08 112.744 257.72 100.512 263 90.304C268.456 79.92 275.76 72 284.912 66.544C294.064 61.088 304.536 58.36 316.328 58.36C328.296 58.36 338.504 61 346.952 66.28C355.4 71.56 361.912 78.952 366.488 88.456C371.064 97.784 373.352 108.608 373.352 120.928C373.352 122.512 373.264 124.096 373.088 125.68C373.088 127.088 373 128.408 372.824 129.64H263.264V117.76H367.016L360.416 119.608C360.24 104.472 356.192 92.416 348.272 83.44C340.528 74.464 329.792 69.976 316.064 69.976C306.56 69.976 298.2 72.264 290.984 76.84C283.768 81.24 278.136 87.752 274.088 96.376C270.04 104.824 268.016 115.032 268.016 127C268.016 138.792 270.04 149 274.088 157.624C278.312 166.248 284.12 172.848 291.512 177.424C299.08 181.824 307.792 184.024 317.648 184.024C327.856 184.024 336.568 181.824 343.784 177.424C351.176 173.024 356.896 166.952 360.944 159.208L371.504 165.28C368.336 171.616 364.112 177.072 358.832 181.648C353.552 186.048 347.48 189.48 340.616 191.944C333.752 194.408 326.184 195.64 317.912 195.64ZM485.985 106.144C485.985 94.704 482.905 85.816 476.745 79.48C470.585 73.144 461.785 69.976 450.345 69.976C440.313 69.976 431.689 72.176 424.473 76.576C417.257 80.8 411.889 87.928 408.369 97.96L397.545 91.096C401.417 80.712 407.841 72.704 416.817 67.072C425.969 61.264 437.233 58.36 450.609 58.36C460.289 58.36 468.737 60.12 475.953 63.64C483.345 66.984 489.065 72 493.113 78.688C497.161 85.376 499.185 93.736 499.185 103.768V169.768C499.185 179.096 503.409 183.76 511.857 183.76C515.553 183.76 518.721 183.144 521.361 181.912L520.569 192.472C517.577 194.056 513.705 194.848 508.953 194.848C504.905 194.848 501.121 194.056 497.601 192.472C494.081 190.888 491.177 188.248 488.889 184.552C486.777 180.856 485.721 175.84 485.721 169.504V162.376L489.417 162.112C487.833 169.68 484.313 176.016 478.857 181.12C473.577 186.048 467.417 189.744 460.377 192.208C453.337 194.496 446.297 195.64 439.257 195.64C430.985 195.64 423.593 194.32 417.081 191.68C410.569 189.04 405.465 185.256 401.769 180.328C398.073 175.224 396.225 168.976 396.225 161.584C396.225 151.728 399.481 143.808 405.993 137.824C412.681 131.664 422.009 127.44 433.977 125.152L488.625 114.328V125.416L440.577 134.92C430.193 137.032 422.449 140.112 417.345 144.16C412.241 148.208 409.689 153.752 409.689 160.792C409.689 168.008 412.417 173.728 417.873 177.952C423.329 182 431.073 184.024 441.105 184.024C446.209 184.024 451.401 183.32 456.681 181.912C461.961 180.504 466.801 178.304 471.201 175.312C475.777 172.144 479.385 168.272 482.025 163.696C484.665 158.944 485.985 153.224 485.985 146.536V106.144ZM594.217 195.64C582.777 195.64 572.481 192.912 563.329 187.456C554.177 182 546.961 174.168 541.681 163.96C536.577 153.576 534.025 141.256 534.025 127C534.025 112.392 536.753 99.984 542.209 89.776C547.665 79.568 555.057 71.824 564.385 66.544C573.713 61.088 584.009 58.36 595.273 58.36C607.593 58.36 618.065 61.616 626.689 68.128C635.489 74.64 641.385 83.704 644.377 95.32L642.793 96.376V0.279995H655.993V193H644.113L643.321 156.304L644.905 155.776C643.321 164.224 640.065 171.44 635.137 177.424C630.385 183.408 624.401 187.984 617.185 191.152C610.145 194.144 602.489 195.64 594.217 195.64ZM595.801 184.024C605.129 184.024 613.313 181.736 620.353 177.16C627.393 172.408 632.849 165.632 636.721 156.832C640.769 148.032 642.793 137.736 642.793 125.944C642.793 114.328 640.769 104.384 636.721 96.112C632.849 87.664 627.393 81.24 620.353 76.84C613.489 72.264 605.481 69.976 596.329 69.976C581.193 69.976 569.225 75.08 560.425 85.288C551.625 95.496 547.225 109.4 547.225 127C547.225 144.6 551.537 158.504 560.161 168.712C568.961 178.92 580.841 184.024 595.801 184.024ZM801.304 61L737.416 217.288C734.248 225.384 730.816 231.808 727.12 236.56C723.424 241.312 719.288 244.656 714.712 246.592C710.136 248.704 704.856 249.76 698.872 249.76C693.592 249.76 688.752 248.968 684.352 247.384C679.952 245.8 676.344 243.6 673.528 240.784L677.752 229.432C680.392 232.6 683.56 234.8 687.256 236.032C690.952 237.44 694.736 238.144 698.608 238.144C704.24 238.144 709.256 236.472 713.656 233.128C718.056 229.96 722.192 223.624 726.064 214.12L734.776 193L720.784 160.264L679.072 61H694.12L734.512 161.056L741.112 178.744L748.24 159.736L787.048 61H801.304Z" fill="url(#paint0_linear_797_1183)"/>
<defs>
<linearGradient id="paint0_linear_797_1183" x1="-77.1859" y1="103.508" x2="872.187" y2="103.508" gradientUnits="userSpaceOnUse">
<stop stop-color="#34A7D9"/>
<stop offset="0.9997" stop-color="#4B47FF"/>
<stop offset="0.9998"/>
<stop offset="0.9999" stop-color="#0A22DD" stop-opacity="0.157052"/>
<stop offset="1" stop-color="#0944DC" stop-opacity="0.130208"/>
</linearGradient>
</defs>
</svg>
