<svg width="40" height="40" viewBox="0 0 40 40" fill="none" xmlns="http://www.w3.org/2000/svg">
<path d="M0 11.6641H13.5656V25.4108H0L0 11.6641Z" fill="#CCE2FF"/>
<mask id="mask0_131_4880" style="mask-type:alpha" maskUnits="userSpaceOnUse" x="0" y="11" width="14" height="15">
<path d="M0 11.6641H13.5656V25.4108H0L0 11.6641Z" fill="#CCE2FF"/>
</mask>
<g mask="url(#mask0_131_4880)">
<path d="M0.174454 25.8542C0.475347 25.8542 0.71927 25.5501 0.71927 25.175C0.71927 24.7998 0.475347 24.4957 0.174454 24.4957C-0.12644 24.4957 -0.370361 24.7998 -0.370361 25.175C-0.370361 25.5501 -0.12644 25.8542 0.174454 25.8542Z" fill="#66A9FF"/>
<path d="M0.71927 23.7825C0.71927 24.1389 0.950995 24.4278 1.23684 24.4278C1.52269 24.4278 1.75442 24.1389 1.75442 23.7825C1.75442 23.4261 1.52269 23.1372 1.23684 23.1372C0.950995 23.1372 0.71927 23.4261 0.71927 23.7825Z" fill="#66A9FF"/>
<path d="M0.174454 23.2051C0.445257 23.2051 0.664788 22.9314 0.664788 22.5938C0.664788 22.2561 0.445257 21.9824 0.174454 21.9824C-0.0963503 21.9824 -0.31588 22.2561 -0.31588 22.5938C-0.31588 22.9314 -0.0963503 23.2051 0.174454 23.2051Z" fill="#66A9FF"/>
<path d="M-0.206917 20.0465C-0.206917 20.3279 -0.0239756 20.556 0.201694 20.556C0.427364 20.556 0.610307 20.3279 0.610307 20.0465C0.610307 19.7652 0.427364 19.5371 0.201694 19.5371C-0.0239756 19.5371 -0.206917 19.7652 -0.206917 20.0465Z" fill="#66A9FF"/>
<path d="M0.773751 21.2692C0.773751 21.5881 0.981085 21.8466 1.23684 21.8466C1.4926 21.8466 1.69994 21.5881 1.69994 21.2692C1.69994 20.9503 1.4926 20.6918 1.23684 20.6918C0.981085 20.6918 0.773751 20.9503 0.773751 21.2692Z" fill="#66A9FF"/>
<path d="M1.75442 22.5258C1.75442 22.8635 1.97395 23.1372 2.24475 23.1372C2.51556 23.1372 2.73509 22.8635 2.73509 22.5258C2.73509 22.1882 2.51556 21.9145 2.24475 21.9145C1.97395 21.9145 1.75442 22.1882 1.75442 22.5258Z" fill="#66A9FF"/>
<path d="M2.84405 21.2692C2.84405 21.5506 3.02699 21.7786 3.25266 21.7786C3.47833 21.7786 3.66127 21.5506 3.66127 21.2692C3.66127 20.9878 3.47833 20.7597 3.25266 20.7597C3.02699 20.7597 2.84405 20.9878 2.84405 21.2692Z" fill="#66A9FF"/>
<path d="M1.91786 20.0126C1.91786 20.2752 2.08861 20.488 2.29923 20.488C2.50986 20.488 2.6806 20.2752 2.6806 20.0126C2.6806 19.75 2.50986 19.5371 2.29923 19.5371C2.08861 19.5371 1.91786 19.75 1.91786 20.0126Z" fill="#66A9FF"/>
<path d="M0.882714 18.7559C0.882714 18.9998 1.04126 19.1974 1.23684 19.1974C1.43242 19.1974 1.59097 18.9998 1.59097 18.7559C1.59097 18.5121 1.43242 18.3144 1.23684 18.3144C1.04126 18.3144 0.882714 18.5121 0.882714 18.7559Z" fill="#66A9FF"/>
<path d="M0.174454 17.8389C0.3249 17.8389 0.446862 17.6869 0.446862 17.4993C0.446862 17.3117 0.3249 17.1596 0.174454 17.1596C0.024007 17.1596 -0.0979539 17.3117 -0.0979539 17.4993C-0.0979539 17.6869 0.024007 17.8389 0.174454 17.8389Z" fill="#66A9FF"/>
<path d="M0.201694 15.1219C0.276918 15.1219 0.337899 15.0458 0.337899 14.952C0.337899 14.8583 0.276918 14.7822 0.201694 14.7822C0.126471 14.7822 0.0654906 14.8583 0.0654906 14.952C0.0654906 15.0458 0.126471 15.1219 0.201694 15.1219Z" fill="#66A9FF"/>
<path d="M2.02683 17.4653C2.02683 17.6341 2.13659 17.771 2.27199 17.771C2.4074 17.771 2.51716 17.6341 2.51716 17.4653C2.51716 17.2965 2.4074 17.1596 2.27199 17.1596C2.13659 17.1596 2.02683 17.2965 2.02683 17.4653Z" fill="#66A9FF"/>
<path d="M1.04616 16.1747C1.04616 16.306 1.13153 16.4125 1.23684 16.4125C1.34216 16.4125 1.42753 16.306 1.42753 16.1747C1.42753 16.0434 1.34216 15.937 1.23684 15.937C1.13153 15.937 1.04616 16.0434 1.04616 16.1747Z" fill="#66A9FF"/>
<path d="M3.00749 18.688C3.00749 18.8943 3.14165 19.0616 3.30714 19.0616C3.47263 19.0616 3.60679 18.8943 3.60679 18.688C3.60679 18.4817 3.47263 18.3144 3.30714 18.3144C3.14165 18.3144 3.00749 18.4817 3.00749 18.688Z" fill="#66A9FF"/>
<path d="M3.98816 19.9446C3.98816 20.1697 4.13451 20.3522 4.31505 20.3522C4.49559 20.3522 4.64194 20.1697 4.64194 19.9446C4.64194 19.7195 4.49559 19.5371 4.31505 19.5371C4.13451 19.5371 3.98816 19.7195 3.98816 19.9446Z" fill="#66A9FF"/>
<path d="M10.1991 25.0731C10.1991 25.2419 10.3088 25.3787 10.4442 25.3787C10.5796 25.3787 10.6894 25.2419 10.6894 25.0731C10.6894 24.9043 10.5796 24.7674 10.4442 24.7674C10.3088 24.7674 10.1991 24.9043 10.1991 25.0731Z" fill="#66A9FF"/>
<path d="M5.07779 18.688C5.07779 18.8568 5.18756 18.9937 5.32296 18.9937C5.45836 18.9937 5.56813 18.8568 5.56813 18.688C5.56813 18.5192 5.45836 18.3823 5.32296 18.3823C5.18756 18.3823 5.07779 18.5192 5.07779 18.688Z" fill="#66A9FF"/>
<path d="M4.15161 17.4653C4.15161 17.5966 4.23698 17.7031 4.34229 17.7031C4.4476 17.7031 4.53298 17.5966 4.53298 17.4653C4.53298 17.334 4.4476 17.2276 4.34229 17.2276C4.23698 17.2276 4.15161 17.334 4.15161 17.4653Z" fill="#66A9FF"/>
<path d="M3.11646 16.2087C3.11646 16.3212 3.18963 16.4125 3.2799 16.4125C3.37017 16.4125 3.44335 16.3212 3.44335 16.2087C3.44335 16.0961 3.37017 16.0049 3.2799 16.0049C3.18963 16.0049 3.11646 16.0961 3.11646 16.2087Z" fill="#66A9FF"/>
<path d="M5.24124 16.2087C5.24124 16.2837 5.29002 16.3445 5.3502 16.3445C5.41038 16.3445 5.45916 16.2837 5.45916 16.2087C5.45916 16.1337 5.41038 16.0728 5.3502 16.0728C5.29002 16.0728 5.24124 16.1337 5.24124 16.2087Z" fill="#66A9FF"/>
<path d="M12.3783 25.0731C12.3783 25.1669 12.4393 25.2429 12.5145 25.2429C12.5897 25.2429 12.6507 25.1669 12.6507 25.0731C12.6507 24.9793 12.5897 24.9033 12.5145 24.9033C12.4393 24.9033 12.3783 24.9793 12.3783 25.0731Z" fill="#66A9FF"/>
<path d="M6.2219 17.3974C6.2219 17.4912 6.28289 17.5672 6.35811 17.5672C6.43333 17.5672 6.49431 17.4912 6.49431 17.3974C6.49431 17.3036 6.43333 17.2276 6.35811 17.2276C6.28289 17.2276 6.2219 17.3036 6.2219 17.3974Z" fill="#66A9FF"/>
<path d="M11.3432 23.8164C11.3432 23.929 11.4163 24.0202 11.5066 24.0202C11.5969 24.0202 11.6701 23.929 11.6701 23.8164C11.6701 23.7039 11.5969 23.6127 11.5066 23.6127C11.4163 23.6127 11.3432 23.7039 11.3432 23.8164Z" fill="#66A9FF"/>
<path d="M8.01979 25.107C8.01979 25.3696 8.19054 25.5825 8.40116 25.5825C8.61179 25.5825 8.78253 25.3696 8.78253 25.107C8.78253 24.8444 8.61179 24.6315 8.40116 24.6315C8.19054 24.6315 8.01979 24.8444 8.01979 25.107Z" fill="#66A9FF"/>
<path d="M9.10942 23.8504C9.10942 24.0567 9.24358 24.224 9.40907 24.224C9.57456 24.224 9.70872 24.0567 9.70872 23.8504C9.70872 23.6441 9.57456 23.4768 9.40907 23.4768C9.24358 23.4768 9.10942 23.6441 9.10942 23.8504Z" fill="#66A9FF"/>
<path d="M10.2535 22.5598C10.2535 22.6911 10.3389 22.7975 10.4442 22.7975C10.5495 22.7975 10.6349 22.6911 10.6349 22.5598C10.6349 22.4285 10.5495 22.3221 10.4442 22.3221C10.3389 22.3221 10.2535 22.4285 10.2535 22.5598Z" fill="#66A9FF"/>
<path d="M1.75442 25.0731C1.75442 25.4295 1.98615 25.7184 2.27199 25.7184C2.55784 25.7184 2.78957 25.4295 2.78957 25.0731C2.78957 24.7167 2.55784 24.4278 2.27199 24.4278C1.98615 24.4278 1.75442 24.7167 1.75442 25.0731Z" fill="#66A9FF"/>
<path d="M2.78957 23.8164C2.78957 24.1541 3.0091 24.4278 3.2799 24.4278C3.55071 24.4278 3.77024 24.1541 3.77024 23.8164C3.77024 23.4788 3.55071 23.2051 3.2799 23.2051C3.0091 23.2051 2.78957 23.4788 2.78957 23.8164Z" fill="#66A9FF"/>
<path d="M5.89501 25.0731C5.89501 25.3919 6.10235 25.6504 6.35811 25.6504C6.61387 25.6504 6.8212 25.3919 6.8212 25.0731C6.8212 24.7542 6.61387 24.4957 6.35811 24.4957C6.10235 24.4957 5.89501 24.7542 5.89501 25.0731Z" fill="#66A9FF"/>
<path d="M3.8792 22.5258C3.8792 22.8259 4.07434 23.0692 4.31505 23.0692C4.55577 23.0692 4.7509 22.8259 4.7509 22.5258C4.7509 22.2257 4.55577 21.9824 4.31505 21.9824C4.07434 21.9824 3.8792 22.2257 3.8792 22.5258Z" fill="#66A9FF"/>
<path d="M6.98465 23.8164C6.98465 24.079 7.15539 24.2919 7.36602 24.2919C7.57664 24.2919 7.74739 24.079 7.74739 23.8164C7.74739 23.5538 7.57664 23.3409 7.36602 23.3409C7.15539 23.3409 6.98465 23.5538 6.98465 23.8164Z" fill="#66A9FF"/>
<path d="M4.96883 21.2692C4.96883 21.513 5.12738 21.7107 5.32296 21.7107C5.51854 21.7107 5.67709 21.513 5.67709 21.2692C5.67709 21.0253 5.51854 20.8277 5.32296 20.8277C5.12738 20.8277 4.96883 21.0253 4.96883 21.2692Z" fill="#66A9FF"/>
<path d="M8.07428 22.5598C8.07428 22.7661 8.20843 22.9334 8.37392 22.9334C8.53942 22.9334 8.67357 22.7661 8.67357 22.5598C8.67357 22.3535 8.53942 22.1862 8.37392 22.1862C8.20843 22.1862 8.07428 22.3535 8.07428 22.5598Z" fill="#66A9FF"/>
<path d="M6.05846 20.0126C6.05846 20.2001 6.18042 20.3522 6.33087 20.3522C6.48131 20.3522 6.60328 20.2001 6.60328 20.0126C6.60328 19.825 6.48131 19.6729 6.33087 19.6729C6.18042 19.6729 6.05846 19.825 6.05846 20.0126Z" fill="#66A9FF"/>
<path d="M9.21839 21.2692C9.21839 21.4005 9.30376 21.5069 9.40907 21.5069C9.51439 21.5069 9.59976 21.4005 9.59976 21.2692C9.59976 21.1379 9.51439 21.0315 9.40907 21.0315C9.30376 21.0315 9.21839 21.1379 9.21839 21.2692Z" fill="#66A9FF"/>
<path d="M7.20257 18.722C7.20257 18.8345 7.27575 18.9257 7.36602 18.9257C7.45628 18.9257 7.52946 18.8345 7.52946 18.722C7.52946 18.6094 7.45628 18.5182 7.36602 18.5182C7.27575 18.5182 7.20257 18.6094 7.20257 18.722Z" fill="#66A9FF"/>
<path d="M3.82472 25.0731C3.82472 25.4295 4.05644 25.7184 4.34229 25.7184C4.62814 25.7184 4.85987 25.4295 4.85987 25.0731C4.85987 24.7167 4.62814 24.4278 4.34229 24.4278C4.05644 24.4278 3.82472 24.7167 3.82472 25.0731Z" fill="#66A9FF"/>
<path d="M4.91435 23.7485C4.91435 24.0486 5.10948 24.2919 5.3502 24.2919C5.59091 24.2919 5.78605 24.0486 5.78605 23.7485C5.78605 23.4484 5.59091 23.2051 5.3502 23.2051C5.10948 23.2051 4.91435 23.4484 4.91435 23.7485Z" fill="#66A9FF"/>
<path d="M6.00398 22.4919C6.00398 22.7357 6.16253 22.9334 6.35811 22.9334C6.55369 22.9334 6.71224 22.7357 6.71224 22.4919C6.71224 22.248 6.55369 22.0503 6.35811 22.0503C6.16253 22.0503 6.00398 22.248 6.00398 22.4919Z" fill="#66A9FF"/>
<path d="M7.09361 21.2692C7.09361 21.4755 7.22776 21.6428 7.39326 21.6428C7.55875 21.6428 7.6929 21.4755 7.6929 21.2692C7.6929 21.0629 7.55875 20.8956 7.39326 20.8956C7.22776 20.8956 7.09361 21.0629 7.09361 21.2692Z" fill="#66A9FF"/>
<path d="M8.18324 19.9446C8.18324 20.0947 8.28081 20.2163 8.40116 20.2163C8.52152 20.2163 8.61909 20.0947 8.61909 19.9446C8.61909 19.7946 8.52152 19.6729 8.40116 19.6729C8.28081 19.6729 8.18324 19.7946 8.18324 19.9446Z" fill="#66A9FF"/>
</g>
<path d="M13.5657 11.806L29.1667 0.313477L29.3333 35.6593L13.5657 25.4732V11.806Z" fill="#66A9FF"/>
<mask id="mask1_131_4880" style="mask-type:alpha" maskUnits="userSpaceOnUse" x="13" y="0" width="17" height="36">
<path d="M13.5657 11.806L29.1667 0.313477L29.3333 35.6593L13.5657 25.4732V11.806Z" fill="#66A9FF"/>
</mask>
<g mask="url(#mask1_131_4880)">
<path d="M26.0405 9.20207C26.0405 9.65225 25.7478 10.0172 25.3867 10.0172C25.0257 10.0172 24.7329 9.65225 24.7329 9.20207C24.7329 8.75189 25.0257 8.38696 25.3867 8.38696C25.7478 8.38696 26.0405 8.75189 26.0405 9.20207Z" fill="#0068D3"/>
<path d="M23.9157 9.20207C23.9157 9.61473 23.6474 9.94926 23.3164 9.94926C22.9854 9.94926 22.7171 9.61473 22.7171 9.20207C22.7171 8.78941 22.9854 8.45488 23.3164 8.45488C23.6474 8.45488 23.9157 8.78941 23.9157 9.20207Z" fill="#0068D3"/>
<path d="M21.8454 9.20207C21.8454 9.57722 21.6015 9.88134 21.3006 9.88134C20.9997 9.88134 20.7558 9.57722 20.7558 9.20207C20.7558 8.82692 20.9997 8.52281 21.3006 8.52281C21.6015 8.52281 21.8454 8.82692 21.8454 9.20207Z" fill="#0068D3"/>
<path d="M19.6662 9.20207C19.6662 9.50219 19.471 9.74548 19.2303 9.74548C18.9896 9.74548 18.7945 9.50219 18.7945 9.20207C18.7945 8.90195 18.9896 8.65866 19.2303 8.65866C19.471 8.65866 19.6662 8.90195 19.6662 9.20207Z" fill="#0068D3"/>
<path d="M17.5414 9.20207C17.5414 9.42716 17.395 9.60963 17.2145 9.60963C17.034 9.60963 16.8876 9.42716 16.8876 9.20207C16.8876 8.97698 17.034 8.79451 17.2145 8.79451C17.395 8.79451 17.5414 8.97698 17.5414 9.20207Z" fill="#0068D3"/>
<path d="M22.8806 7.91147C22.8806 8.28662 22.6367 8.59073 22.3358 8.59073C22.0349 8.59073 21.7909 8.28662 21.7909 7.91147C21.7909 7.53632 22.0349 7.23221 22.3358 7.23221C22.6367 7.23221 22.8806 7.53632 22.8806 7.91147Z" fill="#0068D3"/>
<path d="M28.4922 1.05091C28.1913 1.05091 27.9474 0.746793 27.9474 0.371646C27.9474 -0.003501 28.1913 -0.307617 28.4922 -0.307617C28.7931 -0.307617 29.037 -0.003501 29.037 0.371646C29.037 0.746793 28.7931 1.05091 28.4922 1.05091Z" fill="#0068D3"/>
<path d="M23.9157 6.65483C23.9157 7.04874 23.6596 7.36806 23.3437 7.36806C23.0277 7.36806 22.7716 7.04874 22.7716 6.65483C22.7716 6.26093 23.0277 5.94161 23.3437 5.94161C23.6596 5.94161 23.9157 6.26093 23.9157 6.65483Z" fill="#0068D3"/>
<path d="M22.8261 5.36423C22.8261 5.72062 22.5944 6.00953 22.3085 6.00953C22.0227 6.00953 21.7909 5.72062 21.7909 5.36423C21.7909 5.00784 22.0227 4.71893 22.3085 4.71893C22.5944 4.71893 22.8261 5.00784 22.8261 5.36423Z" fill="#0068D3"/>
<path d="M21.7909 6.65483C21.7909 7.01122 21.5592 7.30013 21.2734 7.30013C20.9875 7.30013 20.7558 7.01122 20.7558 6.65483C20.7558 6.29844 20.9875 6.00953 21.2734 6.00953C21.5592 6.00953 21.7909 6.29844 21.7909 6.65483Z" fill="#0068D3"/>
<path d="M20.7558 7.91147C20.7558 8.2491 20.5363 8.52281 20.2655 8.52281C19.9947 8.52281 19.7751 8.2491 19.7751 7.91147C19.7751 7.57384 19.9947 7.30013 20.2655 7.30013C20.5363 7.30013 20.7558 7.57384 20.7558 7.91147Z" fill="#0068D3"/>
<path d="M18.631 7.94544C18.631 8.2268 18.4481 8.45488 18.2224 8.45488C17.9967 8.45488 17.8138 8.2268 17.8138 7.94544C17.8138 7.66408 17.9967 7.43599 18.2224 7.43599C18.4481 7.43599 18.631 7.66408 18.631 7.94544Z" fill="#0068D3"/>
<path d="M24.9509 7.94544C24.9509 8.37685 24.6704 8.72659 24.3243 8.72659C23.9783 8.72659 23.6978 8.37685 23.6978 7.94544C23.6978 7.51402 23.9783 7.16428 24.3243 7.16428C24.6704 7.16428 24.9509 7.51402 24.9509 7.94544Z" fill="#0068D3"/>
<path d="M25.986 6.65483C25.986 7.08625 25.7055 7.43599 25.3595 7.43599C25.0135 7.43599 24.7329 7.08625 24.7329 6.65483C24.7329 6.22341 25.0135 5.87368 25.3595 5.87368C25.7055 5.87368 25.986 6.22341 25.986 6.65483Z" fill="#0068D3"/>
<path d="M24.9509 5.3982C24.9509 5.81086 24.6826 6.14539 24.3516 6.14539C24.0206 6.14539 23.7523 5.81086 23.7523 5.3982C23.7523 4.98553 24.0206 4.65101 24.3516 4.65101C24.6826 4.65101 24.9509 4.98553 24.9509 5.3982Z" fill="#0068D3"/>
<path d="M23.8612 4.1076C23.8612 4.48274 23.6173 4.78686 23.3164 4.78686C23.0155 4.78686 22.7716 4.48274 22.7716 4.1076C22.7716 3.73245 23.0155 3.42833 23.3164 3.42833C23.6173 3.42833 23.8612 3.73245 23.8612 4.1076Z" fill="#0068D3"/>
<path d="M27.0212 5.36423C27.0212 5.79565 26.7407 6.14539 26.3946 6.14539C26.0486 6.14539 25.7681 5.79565 25.7681 5.36423C25.7681 4.93282 26.0486 4.58308 26.3946 4.58308C26.7407 4.58308 27.0212 4.93282 27.0212 5.36423Z" fill="#0068D3"/>
<path d="M25.986 4.1076C25.986 4.52026 25.7177 4.85479 25.3867 4.85479C25.0557 4.85479 24.7874 4.52026 24.7874 4.1076C24.7874 3.69493 25.0557 3.36041 25.3867 3.36041C25.7177 3.36041 25.986 3.69493 25.986 4.1076Z" fill="#0068D3"/>
<path d="M28.0018 1.52639C28.0018 1.93906 27.7335 2.27358 27.4025 2.27358C27.0716 2.27358 26.8032 1.93906 26.8032 1.52639C26.8032 1.11373 27.0716 0.779204 27.4025 0.779204C27.7335 0.779204 28.0018 1.11373 28.0018 1.52639Z" fill="#0068D3"/>
<path d="M26.9667 2.817C26.9667 3.22966 26.6984 3.56419 26.3674 3.56419C26.0364 3.56419 25.7681 3.22966 25.7681 2.817C25.7681 2.40433 26.0364 2.06981 26.3674 2.06981C26.6984 2.06981 26.9667 2.40433 26.9667 2.817Z" fill="#0068D3"/>
<path d="M22.8806 10.4927C22.8806 10.1175 22.6367 9.81341 22.3358 9.81341C22.0349 9.81341 21.7909 10.1175 21.7909 10.4927C21.7909 10.8678 22.0349 11.1719 22.3358 11.1719C22.6367 11.1719 22.8806 10.8678 22.8806 10.4927Z" fill="#0068D3"/>
<path d="M23.9157 11.7493C23.9157 11.3554 23.6596 11.0361 23.3437 11.0361C23.0277 11.0361 22.7716 11.3554 22.7716 11.7493C22.7716 12.1432 23.0277 12.4625 23.3437 12.4625C23.6596 12.4625 23.9157 12.1432 23.9157 11.7493Z" fill="#0068D3"/>
<path d="M22.8261 13.0399C22.8261 12.6835 22.5944 12.3946 22.3085 12.3946C22.0227 12.3946 21.7909 12.6835 21.7909 13.0399C21.7909 13.3963 22.0227 13.6852 22.3085 13.6852C22.5944 13.6852 22.8261 13.3963 22.8261 13.0399Z" fill="#0068D3"/>
<path d="M21.7909 11.7493C21.7909 11.3929 21.5592 11.104 21.2734 11.104C20.9875 11.104 20.7558 11.3929 20.7558 11.7493C20.7558 12.1057 20.9875 12.3946 21.2734 12.3946C21.5592 12.3946 21.7909 12.1057 21.7909 11.7493Z" fill="#0068D3"/>
<path d="M20.7558 10.4927C20.7558 10.155 20.5363 9.88134 20.2655 9.88134C19.9947 9.88134 19.7751 10.155 19.7751 10.4927C19.7751 10.8303 19.9947 11.104 20.2655 11.104C20.5363 11.104 20.7558 10.8303 20.7558 10.4927Z" fill="#0068D3"/>
<path d="M18.631 10.4587C18.631 10.1773 18.4481 9.94926 18.2224 9.94926C17.9967 9.94926 17.8138 10.1773 17.8138 10.4587C17.8138 10.7401 17.9967 10.9682 18.2224 10.9682C18.4481 10.9682 18.631 10.7401 18.631 10.4587Z" fill="#0068D3"/>
<path d="M19.7206 11.7493C19.7206 11.4304 19.5133 11.1719 19.2576 11.1719C19.0018 11.1719 18.7945 11.4304 18.7945 11.7493C18.7945 12.0682 19.0018 12.3267 19.2576 12.3267C19.5133 12.3267 19.7206 12.0682 19.7206 11.7493Z" fill="#0068D3"/>
<path d="M20.7558 13.0059C20.7558 12.6683 20.5363 12.3946 20.2655 12.3946C19.9947 12.3946 19.7751 12.6683 19.7751 13.0059C19.7751 13.3436 19.9947 13.6173 20.2655 13.6173C20.5363 13.6173 20.7558 13.3436 20.7558 13.0059Z" fill="#0068D3"/>
<path d="M21.7909 14.2626C21.7909 13.9062 21.5592 13.6173 21.2734 13.6173C20.9875 13.6173 20.7558 13.9062 20.7558 14.2626C20.7558 14.619 20.9875 14.9079 21.2734 14.9079C21.5592 14.9079 21.7909 14.619 21.7909 14.2626Z" fill="#0068D3"/>
<path d="M20.7013 15.5872C20.7013 15.287 20.5062 15.0437 20.2655 15.0437C20.0247 15.0437 19.8296 15.287 19.8296 15.5872C19.8296 15.8873 20.0247 16.1306 20.2655 16.1306C20.5062 16.1306 20.7013 15.8873 20.7013 15.5872Z" fill="#0068D3"/>
<path d="M19.6662 14.2626C19.6662 13.9812 19.4832 13.7531 19.2576 13.7531C19.0319 13.7531 18.8489 13.9812 18.8489 14.2626C18.8489 14.5439 19.0319 14.772 19.2576 14.772C19.4832 14.772 19.6662 14.5439 19.6662 14.2626Z" fill="#0068D3"/>
<path d="M18.5765 13.0059C18.5765 12.7433 18.4058 12.5305 18.1952 12.5305C17.9845 12.5305 17.8138 12.7433 17.8138 13.0059C17.8138 13.2686 17.9845 13.4814 18.1952 13.4814C18.4058 13.4814 18.5765 13.2686 18.5765 13.0059Z" fill="#0068D3"/>
<path d="M17.5414 11.7493C17.5414 11.5055 17.3828 11.3078 17.1873 11.3078C16.9917 11.3078 16.8331 11.5055 16.8331 11.7493C16.8331 11.9932 16.9917 12.1908 17.1873 12.1908C17.3828 12.1908 17.5414 11.9932 17.5414 11.7493Z" fill="#0068D3"/>
<path d="M16.4518 10.4927C16.4518 10.3051 16.3298 10.153 16.1793 10.153C16.0289 10.153 15.9069 10.3051 15.9069 10.4927C15.9069 10.6802 16.0289 10.8323 16.1793 10.8323C16.3298 10.8323 16.4518 10.6802 16.4518 10.4927Z" fill="#0068D3"/>
<path d="M15.3076 11.7493C15.3076 11.618 15.2223 11.5116 15.117 11.5116C15.0116 11.5116 14.9263 11.618 14.9263 11.7493C14.9263 11.8806 15.0116 11.9871 15.117 11.9871C15.2223 11.9871 15.3076 11.8806 15.3076 11.7493Z" fill="#0068D3"/>
<path d="M16.4518 13.0059C16.4518 12.8184 16.3298 12.6663 16.1793 12.6663C16.0289 12.6663 15.9069 12.8184 15.9069 13.0059C15.9069 13.1935 16.0289 13.3456 16.1793 13.3456C16.3298 13.3456 16.4518 13.1935 16.4518 13.0059Z" fill="#0068D3"/>
<path d="M17.4869 14.3305C17.4869 14.1242 17.3527 13.9569 17.1873 13.9569C17.0218 13.9569 16.8876 14.1242 16.8876 14.3305C16.8876 14.5368 17.0218 14.7041 17.1873 14.7041C17.3527 14.7041 17.4869 14.5368 17.4869 14.3305Z" fill="#0068D3"/>
<path d="M18.5221 15.5872C18.5221 15.3621 18.3757 15.1796 18.1952 15.1796C18.0146 15.1796 17.8683 15.3621 17.8683 15.5872C17.8683 15.8122 18.0146 15.9947 18.1952 15.9947C18.3757 15.9947 18.5221 15.8122 18.5221 15.5872Z" fill="#0068D3"/>
<path d="M24.6785 23.2628C24.6785 23.0377 24.5321 22.8553 24.3516 22.8553C24.171 22.8553 24.0247 23.0377 24.0247 23.2628C24.0247 23.4879 24.171 23.6704 24.3516 23.6704C24.5321 23.6704 24.6785 23.4879 24.6785 23.2628Z" fill="#0068D3"/>
<path d="M19.6117 16.8778C19.6117 16.6152 19.4409 16.4023 19.2303 16.4023C19.0197 16.4023 18.8489 16.6152 18.8489 16.8778C18.8489 17.1404 19.0197 17.3532 19.2303 17.3532C19.4409 17.3532 19.6117 17.1404 19.6117 16.8778Z" fill="#0068D3"/>
<path d="M18.4676 18.1344C18.4676 17.9656 18.3578 17.8287 18.2224 17.8287C18.087 17.8287 17.9772 17.9656 17.9772 18.1344C17.9772 18.3032 18.087 18.4401 18.2224 18.4401C18.3578 18.4401 18.4676 18.3032 18.4676 18.1344Z" fill="#0068D3"/>
<path d="M17.4324 16.8438C17.4324 16.675 17.3227 16.5381 17.1873 16.5381C17.0519 16.5381 16.9421 16.675 16.9421 16.8438C16.9421 17.0126 17.0519 17.1495 17.1873 17.1495C17.3227 17.1495 17.4324 17.0126 17.4324 16.8438Z" fill="#0068D3"/>
<path d="M23.5888 24.5195C23.5888 24.3507 23.4791 24.2138 23.3437 24.2138C23.2083 24.2138 23.0985 24.3507 23.0985 24.5195C23.0985 24.6883 23.2083 24.8251 23.3437 24.8251C23.4791 24.8251 23.5888 24.6883 23.5888 24.5195Z" fill="#0068D3"/>
<path d="M16.3428 15.5532C16.3428 15.4219 16.2574 15.3154 16.1521 15.3154C16.0468 15.3154 15.9614 15.4219 15.9614 15.5532C15.9614 15.6845 16.0468 15.7909 16.1521 15.7909C16.2574 15.7909 16.3428 15.6845 16.3428 15.5532Z" fill="#0068D3"/>
<path d="M24.515 25.7421C24.515 25.6108 24.4296 25.5044 24.3243 25.5044C24.219 25.5044 24.1336 25.6108 24.1336 25.7421C24.1336 25.8734 24.219 25.9799 24.3243 25.9799C24.4296 25.9799 24.515 25.8734 24.515 25.7421Z" fill="#0068D3"/>
<path d="M15.3076 14.2965C15.3076 14.184 15.2345 14.0928 15.1442 14.0928C15.0539 14.0928 14.9808 14.184 14.9808 14.2965C14.9808 14.4091 15.0539 14.5003 15.1442 14.5003C15.2345 14.5003 15.3076 14.4091 15.3076 14.2965Z" fill="#0068D3"/>
<path d="M25.5502 26.9988C25.5502 26.8862 25.477 26.795 25.3867 26.795C25.2965 26.795 25.2233 26.8862 25.2233 26.9988C25.2233 27.1113 25.2965 27.2026 25.3867 27.2026C25.477 27.2026 25.5502 27.1113 25.5502 26.9988Z" fill="#0068D3"/>
<path d="M15.2532 16.8098C15.2532 16.7348 15.2044 16.674 15.1442 16.674C15.084 16.674 15.0352 16.7348 15.0352 16.8098C15.0352 16.8849 15.084 16.9457 15.1442 16.9457C15.2044 16.9457 15.2532 16.8849 15.2532 16.8098Z" fill="#0068D3"/>
<path d="M23.4254 26.9988C23.4254 26.9238 23.3766 26.8629 23.3164 26.8629C23.2562 26.8629 23.2075 26.9238 23.2075 26.9988C23.2075 27.0738 23.2562 27.1346 23.3164 27.1346C23.3766 27.1346 23.4254 27.0738 23.4254 26.9988Z" fill="#0068D3"/>
<path d="M16.2883 18.1344C16.2883 18.0406 16.2273 17.9646 16.1521 17.9646C16.0769 17.9646 16.0159 18.0406 16.0159 18.1344C16.0159 18.2282 16.0769 18.3042 16.1521 18.3042C16.2273 18.3042 16.2883 18.2282 16.2883 18.1344Z" fill="#0068D3"/>
<path d="M22.4447 25.8101C22.4447 25.7163 22.3837 25.6402 22.3085 25.6402C22.2333 25.6402 22.1723 25.7163 22.1723 25.8101C22.1723 25.9039 22.2333 25.9799 22.3085 25.9799C22.3837 25.9799 22.4447 25.9039 22.4447 25.8101Z" fill="#0068D3"/>
<path d="M17.3235 19.391C17.3235 19.2785 17.2503 19.1872 17.16 19.1872C17.0697 19.1872 16.9966 19.2785 16.9966 19.391C16.9966 19.5036 17.0697 19.5948 17.16 19.5948C17.2503 19.5948 17.3235 19.5036 17.3235 19.391Z" fill="#0068D3"/>
<path d="M24.9509 10.4587C24.9509 10.0273 24.6704 9.67756 24.3243 9.67756C23.9783 9.67756 23.6978 10.0273 23.6978 10.4587C23.6978 10.8901 23.9783 11.2399 24.3243 11.2399C24.6704 11.2399 24.9509 10.8901 24.9509 10.4587Z" fill="#0068D3"/>
<path d="M25.986 11.7493C25.986 11.3179 25.7055 10.9682 25.3595 10.9682C25.0135 10.9682 24.7329 11.3179 24.7329 11.7493C24.7329 12.1807 25.0135 12.5305 25.3595 12.5305C25.7055 12.5305 25.986 12.1807 25.986 11.7493Z" fill="#0068D3"/>
<path d="M24.9509 13.0059C24.9509 12.5933 24.6826 12.2588 24.3516 12.2588C24.0206 12.2588 23.7523 12.5933 23.7523 13.0059C23.7523 13.4186 24.0206 13.7531 24.3516 13.7531C24.6826 13.7531 24.9509 13.4186 24.9509 13.0059Z" fill="#0068D3"/>
<path d="M23.8612 14.2965C23.8612 13.9214 23.6173 13.6173 23.3164 13.6173C23.0155 13.6173 22.7716 13.9214 22.7716 14.2965C22.7716 14.6717 23.0155 14.9758 23.3164 14.9758C23.6173 14.9758 23.8612 14.6717 23.8612 14.2965Z" fill="#0068D3"/>
<path d="M22.8261 15.5532C22.8261 15.1968 22.5944 14.9079 22.3085 14.9079C22.0227 14.9079 21.7909 15.1968 21.7909 15.5532C21.7909 15.9096 22.0227 16.1985 22.3085 16.1985C22.5944 16.1985 22.8261 15.9096 22.8261 15.5532Z" fill="#0068D3"/>
<path d="M21.7365 16.8438C21.7365 16.5249 21.5291 16.2664 21.2734 16.2664C21.0176 16.2664 20.8103 16.5249 20.8103 16.8438C20.8103 17.1627 21.0176 17.4212 21.2734 17.4212C21.5291 17.4212 21.7365 17.1627 21.7365 16.8438Z" fill="#0068D3"/>
<path d="M20.6468 18.1004C20.6468 17.8378 20.4761 17.6249 20.2655 17.6249C20.0548 17.6249 19.8841 17.8378 19.8841 18.1004C19.8841 18.363 20.0548 18.5759 20.2655 18.5759C20.4761 18.5759 20.6468 18.363 20.6468 18.1004Z" fill="#0068D3"/>
<path d="M19.5572 19.3571C19.5572 19.1507 19.423 18.9835 19.2576 18.9835C19.0921 18.9835 18.9579 19.1507 18.9579 19.3571C18.9579 19.5634 19.0921 19.7307 19.2576 19.7307C19.423 19.7307 19.5572 19.5634 19.5572 19.3571Z" fill="#0068D3"/>
<path d="M18.4131 20.6477C18.4131 20.5164 18.3277 20.4099 18.2224 20.4099C18.1171 20.4099 18.0317 20.5164 18.0317 20.6477C18.0317 20.779 18.1171 20.8854 18.2224 20.8854C18.3277 20.8854 18.4131 20.779 18.4131 20.6477Z" fill="#0068D3"/>
<path d="M24.8964 15.5872C24.8964 15.212 24.6525 14.9079 24.3516 14.9079C24.0507 14.9079 23.8068 15.212 23.8068 15.5872C23.8068 15.9623 24.0507 16.2664 24.3516 16.2664C24.6525 16.2664 24.8964 15.9623 24.8964 15.5872Z" fill="#0068D3"/>
<path d="M23.8068 16.8438C23.8068 16.4874 23.575 16.1985 23.2892 16.1985C23.0033 16.1985 22.7716 16.4874 22.7716 16.8438C22.7716 17.2002 23.0033 17.4891 23.2892 17.4891C23.575 17.4891 23.8068 17.2002 23.8068 16.8438Z" fill="#0068D3"/>
<path d="M22.7716 18.1344C22.7716 17.8155 22.5643 17.557 22.3085 17.557C22.0528 17.557 21.8454 17.8155 21.8454 18.1344C21.8454 18.4533 22.0528 18.7118 22.3085 18.7118C22.5643 18.7118 22.7716 18.4533 22.7716 18.1344Z" fill="#0068D3"/>
<path d="M24.7874 20.6816C24.7874 20.3815 24.5923 20.1382 24.3516 20.1382C24.1109 20.1382 23.9157 20.3815 23.9157 20.6816C23.9157 20.9817 24.1109 21.225 24.3516 21.225C24.5923 21.225 24.7874 20.9817 24.7874 20.6816Z" fill="#0068D3"/>
<path d="M21.682 19.391C21.682 19.1284 21.5112 18.9155 21.3006 18.9155C21.09 18.9155 20.9192 19.1284 20.9192 19.391C20.9192 19.6536 21.09 19.8665 21.3006 19.8665C21.5112 19.8665 21.682 19.6536 21.682 19.391Z" fill="#0068D3"/>
<path d="M23.6978 21.9383C23.6978 21.6944 23.5392 21.4967 23.3437 21.4967C23.1481 21.4967 22.9895 21.6944 22.9895 21.9383C22.9895 22.1821 23.1481 22.3798 23.3437 22.3798C23.5392 22.3798 23.6978 22.1821 23.6978 21.9383Z" fill="#0068D3"/>
<path d="M20.5924 20.6477C20.5924 20.4413 20.4582 20.2741 20.2927 20.2741C20.1272 20.2741 19.9931 20.4413 19.9931 20.6477C19.9931 20.854 20.1272 21.0213 20.2927 21.0213C20.4582 21.0213 20.5924 20.854 20.5924 20.6477Z" fill="#0068D3"/>
<path d="M22.6082 23.1949C22.6082 23.0073 22.4862 22.8553 22.3358 22.8553C22.1853 22.8553 22.0634 23.0073 22.0634 23.1949C22.0634 23.3825 22.1853 23.5345 22.3358 23.5345C22.4862 23.5345 22.6082 23.3825 22.6082 23.1949Z" fill="#0068D3"/>
<path d="M19.4482 21.9383C19.4482 21.807 19.3629 21.7005 19.2576 21.7005C19.1522 21.7005 19.0669 21.807 19.0669 21.9383C19.0669 22.0696 19.1522 22.176 19.2576 22.176C19.3629 22.176 19.4482 22.0696 19.4482 21.9383Z" fill="#0068D3"/>
<path d="M21.4641 24.4855C21.4641 24.373 21.3909 24.2817 21.3006 24.2817C21.2103 24.2817 21.1372 24.373 21.1372 24.4855C21.1372 24.598 21.2103 24.6893 21.3006 24.6893C21.3909 24.6893 21.4641 24.598 21.4641 24.4855Z" fill="#0068D3"/>
<path d="M24.8419 18.1344C24.8419 17.778 24.6102 17.4891 24.3243 17.4891C24.0385 17.4891 23.8068 17.778 23.8068 18.1344C23.8068 18.4908 24.0385 18.7797 24.3243 18.7797C24.6102 18.7797 24.8419 18.4908 24.8419 18.1344Z" fill="#0068D3"/>
<path d="M23.7523 19.459C23.7523 19.1588 23.5571 18.9155 23.3164 18.9155C23.0757 18.9155 22.8806 19.1588 22.8806 19.459C22.8806 19.7591 23.0757 20.0024 23.3164 20.0024C23.5571 20.0024 23.7523 19.7591 23.7523 19.459Z" fill="#0068D3"/>
<path d="M22.6626 20.7156C22.6626 20.4717 22.5041 20.2741 22.3085 20.2741C22.1129 20.2741 21.9544 20.4717 21.9544 20.7156C21.9544 20.9594 22.1129 21.1571 22.3085 21.1571C22.5041 21.1571 22.6626 20.9594 22.6626 20.7156Z" fill="#0068D3"/>
<path d="M21.573 21.9383C21.573 21.7319 21.4389 21.5647 21.2734 21.5647C21.1079 21.5647 20.9737 21.7319 20.9737 21.9383C20.9737 22.1446 21.1079 22.3119 21.2734 22.3119C21.4389 22.3119 21.573 22.1446 21.573 21.9383Z" fill="#0068D3"/>
<path d="M20.4834 23.2628C20.4834 23.1128 20.3858 22.9911 20.2655 22.9911C20.1451 22.9911 20.0475 23.1128 20.0475 23.2628C20.0475 23.4129 20.1451 23.5345 20.2655 23.5345C20.3858 23.5345 20.4834 23.4129 20.4834 23.2628Z" fill="#0068D3"/>
</g>
<ellipse cx="30.0877" cy="17.9124" rx="5.39146" ry="17.9124" fill="#9AFBD7"/>
<mask id="mask2_131_4880" style="mask-type:alpha" maskUnits="userSpaceOnUse" x="24" y="0" width="12" height="36">
<ellipse cx="30.0877" cy="17.9124" rx="5.39146" ry="17.9124" fill="#9AFBD7"/>
</mask>
<g mask="url(#mask2_131_4880)">
<path d="M25.0496 24.3259C25.0496 24.53 24.9162 24.6954 24.7517 24.6954C24.5872 24.6954 24.4539 24.53 24.4539 24.3259C24.4539 24.1219 24.5872 23.9565 24.7517 23.9565C24.9162 23.9565 25.0496 24.1219 25.0496 24.3259Z" fill="#66A9FF" fill-opacity="0.7"/>
<path d="M25.9432 25.8036C25.9432 26.0077 25.8099 26.173 25.6453 26.173C25.4808 26.173 25.3475 26.0077 25.3475 25.8036C25.3475 25.5996 25.4808 25.4342 25.6453 25.4342C25.8099 25.4342 25.9432 25.5996 25.9432 25.8036Z" fill="#66A9FF" fill-opacity="0.7"/>
<path d="M28.6241 24.3259C28.6241 24.53 28.4907 24.6954 28.3262 24.6954C28.1617 24.6954 28.0283 24.53 28.0283 24.3259C28.0283 24.1219 28.1617 23.9565 28.3262 23.9565C28.4907 23.9565 28.6241 24.1219 28.6241 24.3259Z" fill="#66A9FF" fill-opacity="0.7"/>
<path d="M29.5177 25.8036C29.5177 26.0077 29.3843 26.173 29.2198 26.173C29.0553 26.173 28.9219 26.0077 28.9219 25.8036C28.9219 25.5996 29.0553 25.4342 29.2198 25.4342C29.3843 25.4342 29.5177 25.5996 29.5177 25.8036Z" fill="#66A9FF" fill-opacity="0.7"/>
<path d="M26.8368 24.3259C26.8368 24.53 26.7035 24.6954 26.539 24.6954C26.3745 24.6954 26.2411 24.53 26.2411 24.3259C26.2411 24.1219 26.3745 23.9565 26.539 23.9565C26.7035 23.9565 26.8368 24.1219 26.8368 24.3259Z" fill="#66A9FF" fill-opacity="0.7"/>
<path d="M27.7305 25.8036C27.7305 26.0077 27.5971 26.173 27.4326 26.173C27.2681 26.173 27.1347 26.0077 27.1347 25.8036C27.1347 25.5996 27.2681 25.4342 27.4326 25.4342C27.5971 25.4342 27.7305 25.5996 27.7305 25.8036Z" fill="#66A9FF" fill-opacity="0.7"/>
<path d="M32.1985 24.3259C32.1985 24.53 32.0652 24.6954 31.9007 24.6954C31.7362 24.6954 31.6028 24.53 31.6028 24.3259C31.6028 24.1219 31.7362 23.9565 31.9007 23.9565C32.0652 23.9565 32.1985 24.1219 32.1985 24.3259Z" fill="#66A9FF" fill-opacity="0.7"/>
<path d="M33.0922 25.8036C33.0922 26.0077 32.9588 26.173 32.7943 26.173C32.6298 26.173 32.4964 26.0077 32.4964 25.8036C32.4964 25.5996 32.6298 25.4342 32.7943 25.4342C32.9588 25.4342 33.0922 25.5996 33.0922 25.8036Z" fill="#66A9FF" fill-opacity="0.7"/>
<path d="M30.4113 24.3259C30.4113 24.53 30.2779 24.6954 30.1134 24.6954C29.9489 24.6954 29.8156 24.53 29.8156 24.3259C29.8156 24.1219 29.9489 23.9565 30.1134 23.9565C30.2779 23.9565 30.4113 24.1219 30.4113 24.3259Z" fill="#66A9FF" fill-opacity="0.7"/>
<path d="M31.3049 25.8036C31.3049 26.0077 31.1716 26.173 31.007 26.173C30.8425 26.173 30.7092 26.0077 30.7092 25.8036C30.7092 25.5996 30.8425 25.4342 31.007 25.4342C31.1716 25.4342 31.3049 25.5996 31.3049 25.8036Z" fill="#66A9FF" fill-opacity="0.7"/>
<path d="M35.773 24.3259C35.773 24.53 35.6396 24.6954 35.4751 24.6954C35.3106 24.6954 35.1773 24.53 35.1773 24.3259C35.1773 24.1219 35.3106 23.9565 35.4751 23.9565C35.6396 23.9565 35.773 24.1219 35.773 24.3259Z" fill="#66A9FF" fill-opacity="0.7"/>
<path d="M33.9858 24.3259C33.9858 24.53 33.8524 24.6954 33.6879 24.6954C33.5234 24.6954 33.39 24.53 33.39 24.3259C33.39 24.1219 33.5234 23.9565 33.6879 23.9565C33.8524 23.9565 33.9858 24.1219 33.9858 24.3259Z" fill="#66A9FF" fill-opacity="0.7"/>
<path d="M34.8794 25.8036C34.8794 26.0077 34.746 26.173 34.5815 26.173C34.417 26.173 34.2836 26.0077 34.2836 25.8036C34.2836 25.5996 34.417 25.4342 34.5815 25.4342C34.746 25.4342 34.8794 25.5996 34.8794 25.8036Z" fill="#66A9FF" fill-opacity="0.7"/>
<path d="M25.0496 27.2813C25.0496 27.4853 24.9162 27.6507 24.7517 27.6507C24.5872 27.6507 24.4539 27.4853 24.4539 27.2813C24.4539 27.0773 24.5872 26.9119 24.7517 26.9119C24.9162 26.9119 25.0496 27.0773 25.0496 27.2813Z" fill="#66A9FF" fill-opacity="0.7"/>
<path d="M25.9432 28.759C25.9432 28.963 25.8099 29.1284 25.6453 29.1284C25.4808 29.1284 25.3475 28.963 25.3475 28.759C25.3475 28.555 25.4808 28.3896 25.6453 28.3896C25.8099 28.3896 25.9432 28.555 25.9432 28.759Z" fill="#66A9FF" fill-opacity="0.7"/>
<path d="M28.6241 27.2813C28.6241 27.4853 28.4907 27.6507 28.3262 27.6507C28.1617 27.6507 28.0283 27.4853 28.0283 27.2813C28.0283 27.0773 28.1617 26.9119 28.3262 26.9119C28.4907 26.9119 28.6241 27.0773 28.6241 27.2813Z" fill="#66A9FF" fill-opacity="0.7"/>
<path d="M29.5177 28.759C29.5177 28.963 29.3843 29.1284 29.2198 29.1284C29.0553 29.1284 28.9219 28.963 28.9219 28.759C28.9219 28.555 29.0553 28.3896 29.2198 28.3896C29.3843 28.3896 29.5177 28.555 29.5177 28.759Z" fill="#66A9FF" fill-opacity="0.7"/>
<path d="M26.8368 27.2813C26.8368 27.4853 26.7035 27.6507 26.539 27.6507C26.3745 27.6507 26.2411 27.4853 26.2411 27.2813C26.2411 27.0773 26.3745 26.9119 26.539 26.9119C26.7035 26.9119 26.8368 27.0773 26.8368 27.2813Z" fill="#66A9FF" fill-opacity="0.7"/>
<path d="M27.7305 28.759C27.7305 28.963 27.5971 29.1284 27.4326 29.1284C27.2681 29.1284 27.1347 28.963 27.1347 28.759C27.1347 28.555 27.2681 28.3896 27.4326 28.3896C27.5971 28.3896 27.7305 28.555 27.7305 28.759Z" fill="#66A9FF" fill-opacity="0.7"/>
<path d="M32.1985 27.2813C32.1985 27.4853 32.0652 27.6507 31.9007 27.6507C31.7362 27.6507 31.6028 27.4853 31.6028 27.2813C31.6028 27.0773 31.7362 26.9119 31.9007 26.9119C32.0652 26.9119 32.1985 27.0773 32.1985 27.2813Z" fill="#66A9FF" fill-opacity="0.7"/>
<path d="M33.0922 28.759C33.0922 28.963 32.9588 29.1284 32.7943 29.1284C32.6298 29.1284 32.4964 28.963 32.4964 28.759C32.4964 28.555 32.6298 28.3896 32.7943 28.3896C32.9588 28.3896 33.0922 28.555 33.0922 28.759Z" fill="#66A9FF" fill-opacity="0.7"/>
<path d="M30.4113 27.2813C30.4113 27.4853 30.2779 27.6507 30.1134 27.6507C29.9489 27.6507 29.8156 27.4853 29.8156 27.2813C29.8156 27.0773 29.9489 26.9119 30.1134 26.9119C30.2779 26.9119 30.4113 27.0773 30.4113 27.2813Z" fill="#66A9FF" fill-opacity="0.7"/>
<path d="M31.3049 28.759C31.3049 28.963 31.1716 29.1284 31.007 29.1284C30.8425 29.1284 30.7092 28.963 30.7092 28.759C30.7092 28.555 30.8425 28.3896 31.007 28.3896C31.1716 28.3896 31.3049 28.555 31.3049 28.759Z" fill="#66A9FF" fill-opacity="0.7"/>
<path d="M33.9858 27.2813C33.9858 27.4853 33.8524 27.6507 33.6879 27.6507C33.5234 27.6507 33.39 27.4853 33.39 27.2813C33.39 27.0773 33.5234 26.9119 33.6879 26.9119C33.8524 26.9119 33.9858 27.0773 33.9858 27.2813Z" fill="#66A9FF" fill-opacity="0.7"/>
<path d="M25.0496 30.2367C25.0496 30.4407 24.9162 30.6061 24.7517 30.6061C24.5872 30.6061 24.4539 30.4407 24.4539 30.2367C24.4539 30.0327 24.5872 29.8673 24.7517 29.8673C24.9162 29.8673 25.0496 30.0327 25.0496 30.2367Z" fill="#66A9FF" fill-opacity="0.7"/>
<path d="M25.9432 31.7144C25.9432 31.9184 25.8099 32.0838 25.6453 32.0838C25.4808 32.0838 25.3475 31.9184 25.3475 31.7144C25.3475 31.5104 25.4808 31.345 25.6453 31.345C25.8099 31.345 25.9432 31.5104 25.9432 31.7144Z" fill="#66A9FF" fill-opacity="0.7"/>
<path d="M28.6241 30.2367C28.6241 30.4407 28.4907 30.6061 28.3262 30.6061C28.1617 30.6061 28.0283 30.4407 28.0283 30.2367C28.0283 30.0327 28.1617 29.8673 28.3262 29.8673C28.4907 29.8673 28.6241 30.0327 28.6241 30.2367Z" fill="#66A9FF" fill-opacity="0.7"/>
<path d="M29.5177 31.7144C29.5177 31.9184 29.3843 32.0838 29.2198 32.0838C29.0553 32.0838 28.9219 31.9184 28.9219 31.7144C28.9219 31.5104 29.0553 31.345 29.2198 31.345C29.3843 31.345 29.5177 31.5104 29.5177 31.7144Z" fill="#66A9FF" fill-opacity="0.7"/>
<path d="M26.8368 30.2367C26.8368 30.4407 26.7035 30.6061 26.539 30.6061C26.3745 30.6061 26.2411 30.4407 26.2411 30.2367C26.2411 30.0327 26.3745 29.8673 26.539 29.8673C26.7035 29.8673 26.8368 30.0327 26.8368 30.2367Z" fill="#66A9FF" fill-opacity="0.7"/>
<path d="M27.7305 31.7144C27.7305 31.9184 27.5971 32.0838 27.4326 32.0838C27.2681 32.0838 27.1347 31.9184 27.1347 31.7144C27.1347 31.5104 27.2681 31.345 27.4326 31.345C27.5971 31.345 27.7305 31.5104 27.7305 31.7144Z" fill="#66A9FF" fill-opacity="0.7"/>
<path d="M32.1985 30.2367C32.1985 30.4407 32.0652 30.6061 31.9007 30.6061C31.7362 30.6061 31.6028 30.4407 31.6028 30.2367C31.6028 30.0327 31.7362 29.8673 31.9007 29.8673C32.0652 29.8673 32.1985 30.0327 32.1985 30.2367Z" fill="#66A9FF" fill-opacity="0.7"/>
<path d="M33.0922 31.7144C33.0922 31.9184 32.9588 32.0838 32.7943 32.0838C32.6298 32.0838 32.4964 31.9184 32.4964 31.7144C32.4964 31.5104 32.6298 31.345 32.7943 31.345C32.9588 31.345 33.0922 31.5104 33.0922 31.7144Z" fill="#66A9FF" fill-opacity="0.7"/>
<path d="M30.4113 30.2367C30.4113 30.4407 30.2779 30.6061 30.1134 30.6061C29.9489 30.6061 29.8156 30.4407 29.8156 30.2367C29.8156 30.0327 29.9489 29.8673 30.1134 29.8673C30.2779 29.8673 30.4113 30.0327 30.4113 30.2367Z" fill="#66A9FF" fill-opacity="0.7"/>
<path d="M31.3049 31.7144C31.3049 31.9184 31.1716 32.0838 31.007 32.0838C30.8425 32.0838 30.7092 31.9184 30.7092 31.7144C30.7092 31.5104 30.8425 31.345 31.007 31.345C31.1716 31.345 31.3049 31.5104 31.3049 31.7144Z" fill="#66A9FF" fill-opacity="0.7"/>
<path d="M33.9858 30.2367C33.9858 30.4407 33.8524 30.6061 33.6879 30.6061C33.5234 30.6061 33.39 30.4407 33.39 30.2367C33.39 30.0327 33.5234 29.8673 33.6879 29.8673C33.8524 29.8673 33.9858 30.0327 33.9858 30.2367Z" fill="#66A9FF" fill-opacity="0.7"/>
<path d="M28.6241 33.1921C28.6241 33.3961 28.4907 33.5615 28.3262 33.5615C28.1617 33.5615 28.0283 33.3961 28.0283 33.1921C28.0283 32.988 28.1617 32.8227 28.3262 32.8227C28.4907 32.8227 28.6241 32.988 28.6241 33.1921Z" fill="#66A9FF" fill-opacity="0.7"/>
<path d="M29.5177 34.6698C29.5177 34.8738 29.3843 35.0392 29.2198 35.0392C29.0553 35.0392 28.9219 34.8738 28.9219 34.6698C28.9219 34.4657 29.0553 34.3003 29.2198 34.3003C29.3843 34.3003 29.5177 34.4657 29.5177 34.6698Z" fill="#66A9FF" fill-opacity="0.7"/>
<path d="M26.8368 33.1921C26.8368 33.3961 26.7035 33.5615 26.539 33.5615C26.3745 33.5615 26.2411 33.3961 26.2411 33.1921C26.2411 32.988 26.3745 32.8227 26.539 32.8227C26.7035 32.8227 26.8368 32.988 26.8368 33.1921Z" fill="#66A9FF" fill-opacity="0.7"/>
<path d="M27.7305 34.6698C27.7305 34.8738 27.5971 35.0392 27.4326 35.0392C27.2681 35.0392 27.1347 34.8738 27.1347 34.6698C27.1347 34.4657 27.2681 34.3003 27.4326 34.3003C27.5971 34.3003 27.7305 34.4657 27.7305 34.6698Z" fill="#66A9FF" fill-opacity="0.7"/>
<path d="M32.1985 33.1921C32.1985 33.3961 32.0652 33.5615 31.9007 33.5615C31.7362 33.5615 31.6028 33.3961 31.6028 33.1921C31.6028 32.988 31.7362 32.8227 31.9007 32.8227C32.0652 32.8227 32.1985 32.988 32.1985 33.1921Z" fill="#66A9FF" fill-opacity="0.7"/>
<path d="M30.4113 33.1921C30.4113 33.3961 30.2779 33.5615 30.1134 33.5615C29.9489 33.5615 29.8156 33.3961 29.8156 33.1921C29.8156 32.988 29.9489 32.8227 30.1134 32.8227C30.2779 32.8227 30.4113 32.988 30.4113 33.1921Z" fill="#66A9FF" fill-opacity="0.7"/>
<path d="M31.3049 34.6698C31.3049 34.8738 31.1716 35.0392 31.007 35.0392C30.8425 35.0392 30.7092 34.8738 30.7092 34.6698C30.7092 34.4657 30.8425 34.3003 31.007 34.3003C31.1716 34.3003 31.3049 34.4657 31.3049 34.6698Z" fill="#66A9FF" fill-opacity="0.7"/>
<path d="M25.0496 12.5044C25.0496 12.7084 24.9162 12.8738 24.7517 12.8738C24.5872 12.8738 24.4539 12.7084 24.4539 12.5044C24.4539 12.3004 24.5872 12.135 24.7517 12.135C24.9162 12.135 25.0496 12.3004 25.0496 12.5044Z" fill="#66A9FF" fill-opacity="0.7"/>
<path d="M25.9432 13.9821C25.9432 14.1861 25.8099 14.3515 25.6453 14.3515C25.4808 14.3515 25.3475 14.1861 25.3475 13.9821C25.3475 13.7781 25.4808 13.6127 25.6453 13.6127C25.8099 13.6127 25.9432 13.7781 25.9432 13.9821Z" fill="#66A9FF" fill-opacity="0.7"/>
<path d="M28.6241 12.5044C28.6241 12.7084 28.4907 12.8738 28.3262 12.8738C28.1617 12.8738 28.0283 12.7084 28.0283 12.5044C28.0283 12.3004 28.1617 12.135 28.3262 12.135C28.4907 12.135 28.6241 12.3004 28.6241 12.5044Z" fill="#66A9FF" fill-opacity="0.7"/>
<path d="M29.5177 13.9821C29.5177 14.1861 29.3843 14.3515 29.2198 14.3515C29.0553 14.3515 28.9219 14.1861 28.9219 13.9821C28.9219 13.7781 29.0553 13.6127 29.2198 13.6127C29.3843 13.6127 29.5177 13.7781 29.5177 13.9821Z" fill="#66A9FF" fill-opacity="0.7"/>
<path d="M26.8368 12.5044C26.8368 12.7084 26.7035 12.8738 26.539 12.8738C26.3745 12.8738 26.2411 12.7084 26.2411 12.5044C26.2411 12.3004 26.3745 12.135 26.539 12.135C26.7035 12.135 26.8368 12.3004 26.8368 12.5044Z" fill="#66A9FF" fill-opacity="0.7"/>
<path d="M27.7305 13.9821C27.7305 14.1861 27.5971 14.3515 27.4326 14.3515C27.2681 14.3515 27.1347 14.1861 27.1347 13.9821C27.1347 13.7781 27.2681 13.6127 27.4326 13.6127C27.5971 13.6127 27.7305 13.7781 27.7305 13.9821Z" fill="#66A9FF" fill-opacity="0.7"/>
<path d="M32.1985 12.5044C32.1985 12.7084 32.0652 12.8738 31.9007 12.8738C31.7362 12.8738 31.6028 12.7084 31.6028 12.5044C31.6028 12.3004 31.7362 12.135 31.9007 12.135C32.0652 12.135 32.1985 12.3004 32.1985 12.5044Z" fill="#66A9FF" fill-opacity="0.7"/>
<path d="M33.0922 13.9821C33.0922 14.1861 32.9588 14.3515 32.7943 14.3515C32.6298 14.3515 32.4964 14.1861 32.4964 13.9821C32.4964 13.7781 32.6298 13.6127 32.7943 13.6127C32.9588 13.6127 33.0922 13.7781 33.0922 13.9821Z" fill="#66A9FF" fill-opacity="0.7"/>
<path d="M30.4113 12.5044C30.4113 12.7084 30.2779 12.8738 30.1134 12.8738C29.9489 12.8738 29.8156 12.7084 29.8156 12.5044C29.8156 12.3004 29.9489 12.135 30.1134 12.135C30.2779 12.135 30.4113 12.3004 30.4113 12.5044Z" fill="#66A9FF" fill-opacity="0.7"/>
<path d="M31.3049 13.9821C31.3049 14.1861 31.1716 14.3515 31.007 14.3515C30.8425 14.3515 30.7092 14.1861 30.7092 13.9821C30.7092 13.7781 30.8425 13.6127 31.007 13.6127C31.1716 13.6127 31.3049 13.7781 31.3049 13.9821Z" fill="#66A9FF" fill-opacity="0.7"/>
<path d="M35.773 12.5044C35.773 12.7084 35.6396 12.8738 35.4751 12.8738C35.3106 12.8738 35.1773 12.7084 35.1773 12.5044C35.1773 12.3004 35.3106 12.135 35.4751 12.135C35.6396 12.135 35.773 12.3004 35.773 12.5044Z" fill="#66A9FF" fill-opacity="0.7"/>
<path d="M33.9858 12.5044C33.9858 12.7084 33.8524 12.8738 33.6879 12.8738C33.5234 12.8738 33.39 12.7084 33.39 12.5044C33.39 12.3004 33.5234 12.135 33.6879 12.135C33.8524 12.135 33.9858 12.3004 33.9858 12.5044Z" fill="#66A9FF" fill-opacity="0.7"/>
<path d="M34.8794 13.9821C34.8794 14.1861 34.746 14.3515 34.5815 14.3515C34.417 14.3515 34.2836 14.1861 34.2836 13.9821C34.2836 13.7781 34.417 13.6127 34.5815 13.6127C34.746 13.6127 34.8794 13.7781 34.8794 13.9821Z" fill="#66A9FF" fill-opacity="0.7"/>
<path d="M25.0496 15.4598C25.0496 15.6638 24.9162 15.8292 24.7517 15.8292C24.5872 15.8292 24.4539 15.6638 24.4539 15.4598C24.4539 15.2558 24.5872 15.0904 24.7517 15.0904C24.9162 15.0904 25.0496 15.2558 25.0496 15.4598Z" fill="#66A9FF" fill-opacity="0.7"/>
<path d="M25.9432 16.9375C25.9432 17.1415 25.8099 17.3069 25.6453 17.3069C25.4808 17.3069 25.3475 17.1415 25.3475 16.9375C25.3475 16.7335 25.4808 16.5681 25.6453 16.5681C25.8099 16.5681 25.9432 16.7335 25.9432 16.9375Z" fill="#66A9FF" fill-opacity="0.7"/>
<path d="M28.6241 15.4598C28.6241 15.6638 28.4907 15.8292 28.3262 15.8292C28.1617 15.8292 28.0283 15.6638 28.0283 15.4598C28.0283 15.2558 28.1617 15.0904 28.3262 15.0904C28.4907 15.0904 28.6241 15.2558 28.6241 15.4598Z" fill="#66A9FF" fill-opacity="0.7"/>
<path d="M29.5177 16.9375C29.5177 17.1415 29.3843 17.3069 29.2198 17.3069C29.0553 17.3069 28.9219 17.1415 28.9219 16.9375C28.9219 16.7335 29.0553 16.5681 29.2198 16.5681C29.3843 16.5681 29.5177 16.7335 29.5177 16.9375Z" fill="#66A9FF" fill-opacity="0.7"/>
<path d="M26.8368 15.4598C26.8368 15.6638 26.7035 15.8292 26.539 15.8292C26.3745 15.8292 26.2411 15.6638 26.2411 15.4598C26.2411 15.2558 26.3745 15.0904 26.539 15.0904C26.7035 15.0904 26.8368 15.2558 26.8368 15.4598Z" fill="#66A9FF" fill-opacity="0.7"/>
<path d="M27.7305 16.9375C27.7305 17.1415 27.5971 17.3069 27.4326 17.3069C27.2681 17.3069 27.1347 17.1415 27.1347 16.9375C27.1347 16.7335 27.2681 16.5681 27.4326 16.5681C27.5971 16.5681 27.7305 16.7335 27.7305 16.9375Z" fill="#66A9FF" fill-opacity="0.7"/>
<path d="M32.1985 15.4598C32.1985 15.6638 32.0652 15.8292 31.9007 15.8292C31.7362 15.8292 31.6028 15.6638 31.6028 15.4598C31.6028 15.2558 31.7362 15.0904 31.9007 15.0904C32.0652 15.0904 32.1985 15.2558 32.1985 15.4598Z" fill="#66A9FF" fill-opacity="0.7"/>
<path d="M33.0922 16.9375C33.0922 17.1415 32.9588 17.3069 32.7943 17.3069C32.6298 17.3069 32.4964 17.1415 32.4964 16.9375C32.4964 16.7335 32.6298 16.5681 32.7943 16.5681C32.9588 16.5681 33.0922 16.7335 33.0922 16.9375Z" fill="#66A9FF" fill-opacity="0.7"/>
<path d="M30.4113 15.4598C30.4113 15.6638 30.2779 15.8292 30.1134 15.8292C29.9489 15.8292 29.8156 15.6638 29.8156 15.4598C29.8156 15.2558 29.9489 15.0904 30.1134 15.0904C30.2779 15.0904 30.4113 15.2558 30.4113 15.4598Z" fill="#66A9FF" fill-opacity="0.7"/>
<path d="M31.3049 16.9375C31.3049 17.1415 31.1716 17.3069 31.007 17.3069C30.8425 17.3069 30.7092 17.1415 30.7092 16.9375C30.7092 16.7335 30.8425 16.5681 31.007 16.5681C31.1716 16.5681 31.3049 16.7335 31.3049 16.9375Z" fill="#66A9FF" fill-opacity="0.7"/>
<path d="M35.773 15.4598C35.773 15.6638 35.6396 15.8292 35.4751 15.8292C35.3106 15.8292 35.1773 15.6638 35.1773 15.4598C35.1773 15.2558 35.3106 15.0904 35.4751 15.0904C35.6396 15.0904 35.773 15.2558 35.773 15.4598Z" fill="#66A9FF" fill-opacity="0.7"/>
<path d="M33.9858 15.4598C33.9858 15.6638 33.8524 15.8292 33.6879 15.8292C33.5234 15.8292 33.39 15.6638 33.39 15.4598C33.39 15.2558 33.5234 15.0904 33.6879 15.0904C33.8524 15.0904 33.9858 15.2558 33.9858 15.4598Z" fill="#66A9FF" fill-opacity="0.7"/>
<path d="M34.8794 16.9375C34.8794 17.1415 34.746 17.3069 34.5815 17.3069C34.417 17.3069 34.2836 17.1415 34.2836 16.9375C34.2836 16.7335 34.417 16.5681 34.5815 16.5681C34.746 16.5681 34.8794 16.7335 34.8794 16.9375Z" fill="#66A9FF" fill-opacity="0.7"/>
<path d="M25.0496 18.4152C25.0496 18.6192 24.9162 18.7846 24.7517 18.7846C24.5872 18.7846 24.4539 18.6192 24.4539 18.4152C24.4539 18.2111 24.5872 18.0458 24.7517 18.0458C24.9162 18.0458 25.0496 18.2111 25.0496 18.4152Z" fill="#66A9FF" fill-opacity="0.7"/>
<path d="M25.9432 19.8929C25.9432 20.0969 25.8099 20.2623 25.6453 20.2623C25.4808 20.2623 25.3475 20.0969 25.3475 19.8929C25.3475 19.6888 25.4808 19.5234 25.6453 19.5234C25.8099 19.5234 25.9432 19.6888 25.9432 19.8929Z" fill="#66A9FF" fill-opacity="0.7"/>
<path d="M28.6241 18.4152C28.6241 18.6192 28.4907 18.7846 28.3262 18.7846C28.1617 18.7846 28.0283 18.6192 28.0283 18.4152C28.0283 18.2111 28.1617 18.0458 28.3262 18.0458C28.4907 18.0458 28.6241 18.2111 28.6241 18.4152Z" fill="#66A9FF" fill-opacity="0.7"/>
<path d="M29.5177 19.8929C29.5177 20.0969 29.3843 20.2623 29.2198 20.2623C29.0553 20.2623 28.9219 20.0969 28.9219 19.8929C28.9219 19.6888 29.0553 19.5234 29.2198 19.5234C29.3843 19.5234 29.5177 19.6888 29.5177 19.8929Z" fill="#66A9FF" fill-opacity="0.7"/>
<path d="M26.8368 18.4152C26.8368 18.6192 26.7035 18.7846 26.539 18.7846C26.3745 18.7846 26.2411 18.6192 26.2411 18.4152C26.2411 18.2111 26.3745 18.0458 26.539 18.0458C26.7035 18.0458 26.8368 18.2111 26.8368 18.4152Z" fill="#66A9FF" fill-opacity="0.7"/>
<path d="M27.7305 19.8929C27.7305 20.0969 27.5971 20.2623 27.4326 20.2623C27.2681 20.2623 27.1347 20.0969 27.1347 19.8929C27.1347 19.6888 27.2681 19.5234 27.4326 19.5234C27.5971 19.5234 27.7305 19.6888 27.7305 19.8929Z" fill="#66A9FF" fill-opacity="0.7"/>
<path d="M32.1985 18.4152C32.1985 18.6192 32.0652 18.7846 31.9007 18.7846C31.7362 18.7846 31.6028 18.6192 31.6028 18.4152C31.6028 18.2111 31.7362 18.0458 31.9007 18.0458C32.0652 18.0458 32.1985 18.2111 32.1985 18.4152Z" fill="#66A9FF" fill-opacity="0.7"/>
<path d="M33.0922 19.8929C33.0922 20.0969 32.9588 20.2623 32.7943 20.2623C32.6298 20.2623 32.4964 20.0969 32.4964 19.8929C32.4964 19.6888 32.6298 19.5234 32.7943 19.5234C32.9588 19.5234 33.0922 19.6888 33.0922 19.8929Z" fill="#66A9FF" fill-opacity="0.7"/>
<path d="M30.4113 18.4152C30.4113 18.6192 30.2779 18.7846 30.1134 18.7846C29.9489 18.7846 29.8156 18.6192 29.8156 18.4152C29.8156 18.2111 29.9489 18.0458 30.1134 18.0458C30.2779 18.0458 30.4113 18.2111 30.4113 18.4152Z" fill="#66A9FF" fill-opacity="0.7"/>
<path d="M31.3049 19.8929C31.3049 20.0969 31.1716 20.2623 31.007 20.2623C30.8425 20.2623 30.7092 20.0969 30.7092 19.8929C30.7092 19.6888 30.8425 19.5234 31.007 19.5234C31.1716 19.5234 31.3049 19.6888 31.3049 19.8929Z" fill="#66A9FF" fill-opacity="0.7"/>
<path d="M35.773 18.4152C35.773 18.6192 35.6396 18.7846 35.4751 18.7846C35.3106 18.7846 35.1773 18.6192 35.1773 18.4152C35.1773 18.2111 35.3106 18.0458 35.4751 18.0458C35.6396 18.0458 35.773 18.2111 35.773 18.4152Z" fill="#66A9FF" fill-opacity="0.7"/>
<path d="M33.9858 18.4152C33.9858 18.6192 33.8524 18.7846 33.6879 18.7846C33.5234 18.7846 33.39 18.6192 33.39 18.4152C33.39 18.2111 33.5234 18.0458 33.6879 18.0458C33.8524 18.0458 33.9858 18.2111 33.9858 18.4152Z" fill="#66A9FF" fill-opacity="0.7"/>
<path d="M34.8794 19.8929C34.8794 20.0969 34.746 20.2623 34.5815 20.2623C34.417 20.2623 34.2836 20.0969 34.2836 19.8929C34.2836 19.6888 34.417 19.5234 34.5815 19.5234C34.746 19.5234 34.8794 19.6888 34.8794 19.8929Z" fill="#66A9FF" fill-opacity="0.7"/>
<path d="M25.0496 21.3706C25.0496 21.5746 24.9162 21.74 24.7517 21.74C24.5872 21.74 24.4539 21.5746 24.4539 21.3706C24.4539 21.1665 24.5872 21.0011 24.7517 21.0011C24.9162 21.0011 25.0496 21.1665 25.0496 21.3706Z" fill="#66A9FF" fill-opacity="0.7"/>
<path d="M25.9432 22.8482C25.9432 23.0523 25.8099 23.2177 25.6453 23.2177C25.4808 23.2177 25.3475 23.0523 25.3475 22.8482C25.3475 22.6442 25.4808 22.4788 25.6453 22.4788C25.8099 22.4788 25.9432 22.6442 25.9432 22.8482Z" fill="#66A9FF" fill-opacity="0.7"/>
<path d="M28.6241 21.3706C28.6241 21.5746 28.4907 21.74 28.3262 21.74C28.1617 21.74 28.0283 21.5746 28.0283 21.3706C28.0283 21.1665 28.1617 21.0011 28.3262 21.0011C28.4907 21.0011 28.6241 21.1665 28.6241 21.3706Z" fill="#66A9FF" fill-opacity="0.7"/>
<path d="M29.5177 22.8482C29.5177 23.0523 29.3843 23.2177 29.2198 23.2177C29.0553 23.2177 28.9219 23.0523 28.9219 22.8482C28.9219 22.6442 29.0553 22.4788 29.2198 22.4788C29.3843 22.4788 29.5177 22.6442 29.5177 22.8482Z" fill="#66A9FF" fill-opacity="0.7"/>
<path d="M26.8368 21.3706C26.8368 21.5746 26.7035 21.74 26.539 21.74C26.3745 21.74 26.2411 21.5746 26.2411 21.3706C26.2411 21.1665 26.3745 21.0011 26.539 21.0011C26.7035 21.0011 26.8368 21.1665 26.8368 21.3706Z" fill="#66A9FF" fill-opacity="0.7"/>
<path d="M27.7305 22.8482C27.7305 23.0523 27.5971 23.2177 27.4326 23.2177C27.2681 23.2177 27.1347 23.0523 27.1347 22.8482C27.1347 22.6442 27.2681 22.4788 27.4326 22.4788C27.5971 22.4788 27.7305 22.6442 27.7305 22.8482Z" fill="#66A9FF" fill-opacity="0.7"/>
<path d="M32.1985 21.3706C32.1985 21.5746 32.0652 21.74 31.9007 21.74C31.7362 21.74 31.6028 21.5746 31.6028 21.3706C31.6028 21.1665 31.7362 21.0011 31.9007 21.0011C32.0652 21.0011 32.1985 21.1665 32.1985 21.3706Z" fill="#66A9FF" fill-opacity="0.7"/>
<path d="M33.0922 22.8482C33.0922 23.0523 32.9588 23.2177 32.7943 23.2177C32.6298 23.2177 32.4964 23.0523 32.4964 22.8482C32.4964 22.6442 32.6298 22.4788 32.7943 22.4788C32.9588 22.4788 33.0922 22.6442 33.0922 22.8482Z" fill="#66A9FF" fill-opacity="0.7"/>
<path d="M30.4113 21.3706C30.4113 21.5746 30.2779 21.74 30.1134 21.74C29.9489 21.74 29.8156 21.5746 29.8156 21.3706C29.8156 21.1665 29.9489 21.0011 30.1134 21.0011C30.2779 21.0011 30.4113 21.1665 30.4113 21.3706Z" fill="#66A9FF" fill-opacity="0.7"/>
<path d="M31.3049 22.8482C31.3049 23.0523 31.1716 23.2177 31.007 23.2177C30.8425 23.2177 30.7092 23.0523 30.7092 22.8482C30.7092 22.6442 30.8425 22.4788 31.007 22.4788C31.1716 22.4788 31.3049 22.6442 31.3049 22.8482Z" fill="#66A9FF" fill-opacity="0.7"/>
<path d="M35.773 21.3706C35.773 21.5746 35.6396 21.74 35.4751 21.74C35.3106 21.74 35.1773 21.5746 35.1773 21.3706C35.1773 21.1665 35.3106 21.0011 35.4751 21.0011C35.6396 21.0011 35.773 21.1665 35.773 21.3706Z" fill="#66A9FF" fill-opacity="0.7"/>
<path d="M33.9858 21.3706C33.9858 21.5746 33.8524 21.74 33.6879 21.74C33.5234 21.74 33.39 21.5746 33.39 21.3706C33.39 21.1665 33.5234 21.0011 33.6879 21.0011C33.8524 21.0011 33.9858 21.1665 33.9858 21.3706Z" fill="#66A9FF" fill-opacity="0.7"/>
<path d="M34.8794 22.8482C34.8794 23.0523 34.746 23.2177 34.5815 23.2177C34.417 23.2177 34.2836 23.0523 34.2836 22.8482C34.2836 22.6442 34.417 22.4788 34.5815 22.4788C34.746 22.4788 34.8794 22.6442 34.8794 22.8482Z" fill="#66A9FF" fill-opacity="0.7"/>
<path d="M28.6241 0.682899C28.6241 0.886925 28.4907 1.05232 28.3262 1.05232C28.1617 1.05232 28.0283 0.886925 28.0283 0.682899C28.0283 0.478873 28.1617 0.313477 28.3262 0.313477C28.4907 0.313477 28.6241 0.478873 28.6241 0.682899Z" fill="#66A9FF" fill-opacity="0.7"/>
<path d="M29.5177 2.16059C29.5177 2.36462 29.3843 2.53001 29.2198 2.53001C29.0553 2.53001 28.9219 2.36462 28.9219 2.16059C28.9219 1.95656 29.0553 1.79117 29.2198 1.79117C29.3843 1.79117 29.5177 1.95656 29.5177 2.16059Z" fill="#66A9FF" fill-opacity="0.7"/>
<path d="M27.7305 2.16059C27.7305 2.36462 27.5971 2.53001 27.4326 2.53001C27.2681 2.53001 27.1347 2.36462 27.1347 2.16059C27.1347 1.95656 27.2681 1.79117 27.4326 1.79117C27.5971 1.79117 27.7305 1.95656 27.7305 2.16059Z" fill="#66A9FF" fill-opacity="0.7"/>
<path d="M32.1985 0.682899C32.1985 0.886925 32.0652 1.05232 31.9007 1.05232C31.7362 1.05232 31.6028 0.886925 31.6028 0.682899C31.6028 0.478873 31.7362 0.313477 31.9007 0.313477C32.0652 0.313477 32.1985 0.478873 32.1985 0.682899Z" fill="#66A9FF" fill-opacity="0.7"/>
<path d="M33.0922 2.16059C33.0922 2.36462 32.9588 2.53001 32.7943 2.53001C32.6298 2.53001 32.4964 2.36462 32.4964 2.16059C32.4964 1.95656 32.6298 1.79117 32.7943 1.79117C32.9588 1.79117 33.0922 1.95656 33.0922 2.16059Z" fill="#66A9FF" fill-opacity="0.7"/>
<path d="M30.4113 0.682899C30.4113 0.886925 30.2779 1.05232 30.1134 1.05232C29.9489 1.05232 29.8156 0.886925 29.8156 0.682899C29.8156 0.478873 29.9489 0.313477 30.1134 0.313477C30.2779 0.313477 30.4113 0.478873 30.4113 0.682899Z" fill="#66A9FF" fill-opacity="0.7"/>
<path d="M31.3049 2.16059C31.3049 2.36462 31.1716 2.53001 31.007 2.53001C30.8425 2.53001 30.7092 2.36462 30.7092 2.16059C30.7092 1.95656 30.8425 1.79117 31.007 1.79117C31.1716 1.79117 31.3049 1.95656 31.3049 2.16059Z" fill="#66A9FF" fill-opacity="0.7"/>
<path d="M25.9432 5.11597C25.9432 5.31999 25.8099 5.48539 25.6453 5.48539C25.4808 5.48539 25.3475 5.31999 25.3475 5.11597C25.3475 4.91194 25.4808 4.74655 25.6453 4.74655C25.8099 4.74655 25.9432 4.91194 25.9432 5.11597Z" fill="#66A9FF" fill-opacity="0.7"/>
<path d="M28.6241 3.63828C28.6241 3.8423 28.4907 4.0077 28.3262 4.0077C28.1617 4.0077 28.0283 3.8423 28.0283 3.63828C28.0283 3.43425 28.1617 3.26886 28.3262 3.26886C28.4907 3.26886 28.6241 3.43425 28.6241 3.63828Z" fill="#66A9FF" fill-opacity="0.7"/>
<path d="M29.5177 5.11597C29.5177 5.31999 29.3843 5.48539 29.2198 5.48539C29.0553 5.48539 28.9219 5.31999 28.9219 5.11597C28.9219 4.91194 29.0553 4.74655 29.2198 4.74655C29.3843 4.74655 29.5177 4.91194 29.5177 5.11597Z" fill="#66A9FF" fill-opacity="0.7"/>
<path d="M26.8368 3.63828C26.8368 3.8423 26.7035 4.0077 26.539 4.0077C26.3745 4.0077 26.2411 3.8423 26.2411 3.63828C26.2411 3.43425 26.3745 3.26886 26.539 3.26886C26.7035 3.26886 26.8368 3.43425 26.8368 3.63828Z" fill="#66A9FF" fill-opacity="0.7"/>
<path d="M27.7305 5.11597C27.7305 5.31999 27.5971 5.48539 27.4326 5.48539C27.2681 5.48539 27.1347 5.31999 27.1347 5.11597C27.1347 4.91194 27.2681 4.74655 27.4326 4.74655C27.5971 4.74655 27.7305 4.91194 27.7305 5.11597Z" fill="#66A9FF" fill-opacity="0.7"/>
<path d="M32.1985 3.63828C32.1985 3.8423 32.0652 4.0077 31.9007 4.0077C31.7362 4.0077 31.6028 3.8423 31.6028 3.63828C31.6028 3.43425 31.7362 3.26886 31.9007 3.26886C32.0652 3.26886 32.1985 3.43425 32.1985 3.63828Z" fill="#66A9FF" fill-opacity="0.7"/>
<path d="M33.0922 5.11597C33.0922 5.31999 32.9588 5.48539 32.7943 5.48539C32.6298 5.48539 32.4964 5.31999 32.4964 5.11597C32.4964 4.91194 32.6298 4.74655 32.7943 4.74655C32.9588 4.74655 33.0922 4.91194 33.0922 5.11597Z" fill="#66A9FF" fill-opacity="0.7"/>
<path d="M30.4113 3.63828C30.4113 3.8423 30.2779 4.0077 30.1134 4.0077C29.9489 4.0077 29.8156 3.8423 29.8156 3.63828C29.8156 3.43425 29.9489 3.26886 30.1134 3.26886C30.2779 3.26886 30.4113 3.43425 30.4113 3.63828Z" fill="#66A9FF" fill-opacity="0.7"/>
<path d="M31.3049 5.11597C31.3049 5.31999 31.1716 5.48539 31.007 5.48539C30.8425 5.48539 30.7092 5.31999 30.7092 5.11597C30.7092 4.91194 30.8425 4.74655 31.007 4.74655C31.1716 4.74655 31.3049 4.91194 31.3049 5.11597Z" fill="#66A9FF" fill-opacity="0.7"/>
<path d="M25.0496 6.59366C25.0496 6.79768 24.9162 6.96308 24.7517 6.96308C24.5872 6.96308 24.4539 6.79768 24.4539 6.59366C24.4539 6.38963 24.5872 6.22424 24.7517 6.22424C24.9162 6.22424 25.0496 6.38963 25.0496 6.59366Z" fill="#66A9FF" fill-opacity="0.7"/>
<path d="M25.9432 8.07135C25.9432 8.27537 25.8099 8.44077 25.6453 8.44077C25.4808 8.44077 25.3475 8.27537 25.3475 8.07135C25.3475 7.86732 25.4808 7.70193 25.6453 7.70193C25.8099 7.70193 25.9432 7.86732 25.9432 8.07135Z" fill="#66A9FF" fill-opacity="0.7"/>
<path d="M28.6241 6.59366C28.6241 6.79768 28.4907 6.96308 28.3262 6.96308C28.1617 6.96308 28.0283 6.79768 28.0283 6.59366C28.0283 6.38963 28.1617 6.22424 28.3262 6.22424C28.4907 6.22424 28.6241 6.38963 28.6241 6.59366Z" fill="#66A9FF" fill-opacity="0.7"/>
<path d="M29.5177 8.07135C29.5177 8.27537 29.3843 8.44077 29.2198 8.44077C29.0553 8.44077 28.9219 8.27537 28.9219 8.07135C28.9219 7.86732 29.0553 7.70193 29.2198 7.70193C29.3843 7.70193 29.5177 7.86732 29.5177 8.07135Z" fill="#66A9FF" fill-opacity="0.7"/>
<path d="M26.8368 6.59366C26.8368 6.79768 26.7035 6.96308 26.539 6.96308C26.3745 6.96308 26.2411 6.79768 26.2411 6.59366C26.2411 6.38963 26.3745 6.22424 26.539 6.22424C26.7035 6.22424 26.8368 6.38963 26.8368 6.59366Z" fill="#66A9FF" fill-opacity="0.7"/>
<path d="M27.7305 8.07135C27.7305 8.27537 27.5971 8.44077 27.4326 8.44077C27.2681 8.44077 27.1347 8.27537 27.1347 8.07135C27.1347 7.86732 27.2681 7.70193 27.4326 7.70193C27.5971 7.70193 27.7305 7.86732 27.7305 8.07135Z" fill="#66A9FF" fill-opacity="0.7"/>
<path d="M32.1985 6.59366C32.1985 6.79768 32.0652 6.96308 31.9007 6.96308C31.7362 6.96308 31.6028 6.79768 31.6028 6.59366C31.6028 6.38963 31.7362 6.22424 31.9007 6.22424C32.0652 6.22424 32.1985 6.38963 32.1985 6.59366Z" fill="#66A9FF" fill-opacity="0.7"/>
<path d="M33.0922 8.07135C33.0922 8.27537 32.9588 8.44077 32.7943 8.44077C32.6298 8.44077 32.4964 8.27537 32.4964 8.07135C32.4964 7.86732 32.6298 7.70193 32.7943 7.70193C32.9588 7.70193 33.0922 7.86732 33.0922 8.07135Z" fill="#66A9FF" fill-opacity="0.7"/>
<path d="M30.4113 6.59366C30.4113 6.79768 30.2779 6.96308 30.1134 6.96308C29.9489 6.96308 29.8156 6.79768 29.8156 6.59366C29.8156 6.38963 29.9489 6.22424 30.1134 6.22424C30.2779 6.22424 30.4113 6.38963 30.4113 6.59366Z" fill="#66A9FF" fill-opacity="0.7"/>
<path d="M31.3049 8.07135C31.3049 8.27537 31.1716 8.44077 31.007 8.44077C30.8425 8.44077 30.7092 8.27537 30.7092 8.07135C30.7092 7.86732 30.8425 7.70193 31.007 7.70193C31.1716 7.70193 31.3049 7.86732 31.3049 8.07135Z" fill="#66A9FF" fill-opacity="0.7"/>
<path d="M33.9858 6.59366C33.9858 6.79768 33.8524 6.96308 33.6879 6.96308C33.5234 6.96308 33.39 6.79768 33.39 6.59366C33.39 6.38963 33.5234 6.22424 33.6879 6.22424C33.8524 6.22424 33.9858 6.38963 33.9858 6.59366Z" fill="#66A9FF" fill-opacity="0.7"/>
<path d="M34.8794 8.07135C34.8794 8.27537 34.746 8.44077 34.5815 8.44077C34.417 8.44077 34.2836 8.27537 34.2836 8.07135C34.2836 7.86732 34.417 7.70193 34.5815 7.70193C34.746 7.70193 34.8794 7.86732 34.8794 8.07135Z" fill="#66A9FF" fill-opacity="0.7"/>
<path d="M25.0496 9.54904C25.0496 9.75306 24.9162 9.91846 24.7517 9.91846C24.5872 9.91846 24.4539 9.75306 24.4539 9.54904C24.4539 9.34501 24.5872 9.17961 24.7517 9.17961C24.9162 9.17961 25.0496 9.34501 25.0496 9.54904Z" fill="#66A9FF" fill-opacity="0.7"/>
<path d="M25.9432 11.0267C25.9432 11.2308 25.8099 11.3961 25.6453 11.3961C25.4808 11.3961 25.3475 11.2308 25.3475 11.0267C25.3475 10.8227 25.4808 10.6573 25.6453 10.6573C25.8099 10.6573 25.9432 10.8227 25.9432 11.0267Z" fill="#66A9FF" fill-opacity="0.7"/>
<path d="M28.6241 9.54904C28.6241 9.75306 28.4907 9.91846 28.3262 9.91846C28.1617 9.91846 28.0283 9.75306 28.0283 9.54904C28.0283 9.34501 28.1617 9.17961 28.3262 9.17961C28.4907 9.17961 28.6241 9.34501 28.6241 9.54904Z" fill="#66A9FF" fill-opacity="0.7"/>
<path d="M29.5177 11.0267C29.5177 11.2308 29.3843 11.3961 29.2198 11.3961C29.0553 11.3961 28.9219 11.2308 28.9219 11.0267C28.9219 10.8227 29.0553 10.6573 29.2198 10.6573C29.3843 10.6573 29.5177 10.8227 29.5177 11.0267Z" fill="#66A9FF" fill-opacity="0.7"/>
<path d="M26.8368 9.54904C26.8368 9.75306 26.7035 9.91846 26.539 9.91846C26.3745 9.91846 26.2411 9.75306 26.2411 9.54904C26.2411 9.34501 26.3745 9.17961 26.539 9.17961C26.7035 9.17961 26.8368 9.34501 26.8368 9.54904Z" fill="#66A9FF" fill-opacity="0.7"/>
<path d="M27.7305 11.0267C27.7305 11.2308 27.5971 11.3961 27.4326 11.3961C27.2681 11.3961 27.1347 11.2308 27.1347 11.0267C27.1347 10.8227 27.2681 10.6573 27.4326 10.6573C27.5971 10.6573 27.7305 10.8227 27.7305 11.0267Z" fill="#66A9FF" fill-opacity="0.7"/>
<path d="M32.1985 9.54904C32.1985 9.75306 32.0652 9.91846 31.9007 9.91846C31.7362 9.91846 31.6028 9.75306 31.6028 9.54904C31.6028 9.34501 31.7362 9.17961 31.9007 9.17961C32.0652 9.17961 32.1985 9.34501 32.1985 9.54904Z" fill="#66A9FF" fill-opacity="0.7"/>
<path d="M33.0922 11.0267C33.0922 11.2308 32.9588 11.3961 32.7943 11.3961C32.6298 11.3961 32.4964 11.2308 32.4964 11.0267C32.4964 10.8227 32.6298 10.6573 32.7943 10.6573C32.9588 10.6573 33.0922 10.8227 33.0922 11.0267Z" fill="#66A9FF" fill-opacity="0.7"/>
<path d="M30.4113 9.54904C30.4113 9.75306 30.2779 9.91846 30.1134 9.91846C29.9489 9.91846 29.8156 9.75306 29.8156 9.54904C29.8156 9.34501 29.9489 9.17961 30.1134 9.17961C30.2779 9.17961 30.4113 9.34501 30.4113 9.54904Z" fill="#66A9FF" fill-opacity="0.7"/>
<path d="M31.3049 11.0267C31.3049 11.2308 31.1716 11.3961 31.007 11.3961C30.8425 11.3961 30.7092 11.2308 30.7092 11.0267C30.7092 10.8227 30.8425 10.6573 31.007 10.6573C31.1716 10.6573 31.3049 10.8227 31.3049 11.0267Z" fill="#66A9FF" fill-opacity="0.7"/>
<path d="M35.773 9.54904C35.773 9.75306 35.6396 9.91846 35.4751 9.91846C35.3106 9.91846 35.1773 9.75306 35.1773 9.54904C35.1773 9.34501 35.3106 9.17961 35.4751 9.17961C35.6396 9.17961 35.773 9.34501 35.773 9.54904Z" fill="#66A9FF" fill-opacity="0.7"/>
<path d="M33.9858 9.54904C33.9858 9.75306 33.8524 9.91846 33.6879 9.91846C33.5234 9.91846 33.39 9.75306 33.39 9.54904C33.39 9.34501 33.5234 9.17961 33.6879 9.17961C33.8524 9.17961 33.9858 9.34501 33.9858 9.54904Z" fill="#66A9FF" fill-opacity="0.7"/>
<path d="M34.8794 11.0267C34.8794 11.2308 34.746 11.3961 34.5815 11.3961C34.417 11.3961 34.2836 11.2308 34.2836 11.0267C34.2836 10.8227 34.417 10.6573 34.5815 10.6573C34.746 10.6573 34.8794 10.8227 34.8794 11.0267Z" fill="#66A9FF" fill-opacity="0.7"/>
</g>
<path d="M35.4673 16.7133C35.4723 16.9666 35.4758 17.2213 35.4776 17.4773L32.5603 17.4153L32.5716 16.6518L35.4673 16.7133Z" fill="white"/>
<path d="M33.4751 3.97559C33.5636 4.21343 33.6498 4.46041 33.7336 4.71607L30.8288 7.69947L30.4137 7.11978L33.4751 3.97559Z" fill="white"/>
<path d="M33.592 31.5252C33.6781 31.2802 33.7619 31.0263 33.8432 30.764L30.5409 27.1209L30.1089 27.6826L33.592 31.5252Z" fill="white"/>
<path d="M35.4776 17.4585L39.9888 17.5243L40.0001 16.7608L35.4671 16.6946C35.4722 16.9478 35.4757 17.2025 35.4776 17.4585Z" fill="black"/>
<path d="M33.7495 4.76481L36.7829 1.71599L36.3684 1.13574L33.4934 4.02527C33.5811 4.26294 33.6665 4.50959 33.7495 4.76481Z" fill="black"/>
<path d="M33.5832 31.5512C33.6698 31.3061 33.754 31.052 33.8357 30.7895L36.074 33.2816L35.6417 33.843L35.6412 33.8424L33.5832 31.5512Z" fill="black"/>
<path d="M35.4776 17.4585L39.9888 17.5243L40.0001 16.7608L35.4671 16.6946C35.4722 16.9478 35.4757 17.2025 35.4776 17.4585Z" stroke="#2DE09E"/>
<path d="M33.7495 4.76481L36.7829 1.71599L36.3684 1.13574L33.4934 4.02527C33.5811 4.26294 33.6665 4.50959 33.7495 4.76481Z" stroke="#2DE09E"/>
<path d="M33.5832 31.5512C33.6698 31.3061 33.754 31.052 33.8357 30.7895L36.074 33.2816L35.6417 33.843L35.6412 33.8424L33.5832 31.5512Z" stroke="#2DE09E"/>
<path d="M6.95679 25.4102H13.5657V39.9995H6.95679V25.4102Z" fill="#0058CC"/>
<path d="M11.4641 29.5732H13.2075C14.3578 29.5732 15.2903 30.5058 15.2903 31.6561C15.2903 32.8064 14.3578 33.7389 13.2075 33.7389H11.4641V29.5732Z" fill="#FF4C4C"/>
<path d="M24.8209 21.759C24.7393 20.52 24.6963 19.233 24.6963 17.9127C24.6963 16.6613 24.7349 15.4398 24.8084 14.2607H27.137C28.8065 14.2607 30.1599 15.9393 30.1599 18.0099C30.1599 20.0804 28.8065 21.759 27.137 21.759H24.8209Z" fill="#FFDB5C"/>
<path d="M3.68995 15.9332L2.18729 19.9424" stroke="#2F3237" stroke-width="2"/>
<path d="M5.49806 15.7252L3.99539 19.7344" stroke="#2F3237" stroke-width="2"/>
<path d="M7.30616 15.5162L5.8035 19.5254" stroke="#2F3237" stroke-width="2"/>
</svg>
