<svg width="42" height="50" viewBox="0 0 42 50" fill="none" xmlns="http://www.w3.org/2000/svg">
<path d="M2 23.7247L8.6919 23.2939L14.7362 44.4027L3.72694 46.9875L2 23.7247Z" stroke="#006FFF" stroke-width="2"/>
<path d="M20.1328 17.9091C21.8598 9.29331 19.2061 -0.629201 12.1457 0.0312871C6.53318 0.556332 6.23096 12.955 9.33945 32.3406C11.9299 48.4953 19.9845 51.2483 32.2214 49.5723C43.2307 48.0646 43.4466 41.1719 40.1185 38.8025C42.1908 35.5285 42.5831 29.7559 38.0499 28.4635C40.1185 26.525 41.1675 22.089 38.0499 18.7707C34.8119 15.3244 25.7454 15.9706 20.1328 17.9091Z" fill="#FDE3D0"/>
<mask id="mask0_131_4810" style="mask-type:alpha" maskUnits="userSpaceOnUse" x="7" y="0" width="35" height="50">
<path d="M20.1328 17.9091C21.8598 9.29331 19.2061 -0.629201 12.1457 0.0312871C6.53318 0.556332 6.23096 12.955 9.33945 32.3406C11.9299 48.4953 19.9845 51.2483 32.2214 49.5723C43.2307 48.0646 43.4466 41.1719 40.1185 38.8025C42.1908 35.5285 42.5831 29.7559 38.0499 28.4635C40.1185 26.525 41.1675 22.089 38.0499 18.7707C34.8119 15.3244 25.7454 15.9706 20.1328 17.9091Z" fill="#FDE3D0"/>
</mask>
<g mask="url(#mask0_131_4810)">
<path fill-rule="evenodd" clip-rule="evenodd" d="M14.0552 21.1396C14.1616 21.1396 14.2681 21.1396 14.3746 21.1396C14.4334 21.361 13.9964 21.361 14.0552 21.1396Z" fill="#F6D2B7"/>
<path fill-rule="evenodd" clip-rule="evenodd" d="M17.2495 21.1396C17.3558 21.1396 17.4625 21.1396 17.5688 21.1396C17.6278 21.361 17.191 21.361 17.2495 21.1396Z" fill="#F6D2B7"/>
<path fill-rule="evenodd" clip-rule="evenodd" d="M15.7056 22.4677C15.848 22.408 16.0934 22.4325 16.1315 22.6802C16.1907 23.0654 15.537 23.1887 15.4926 22.7865C15.4793 22.6661 15.4771 22.5636 15.7056 22.4677Z" fill="#F6D2B7"/>
<path fill-rule="evenodd" clip-rule="evenodd" d="M12.8839 22.574C12.9398 22.9131 12.7978 23.0547 12.458 22.999C12.105 22.7192 12.6037 22.2218 12.8839 22.574Z" fill="#F6D2B7"/>
<path fill-rule="evenodd" clip-rule="evenodd" d="M19.2727 22.574C19.3286 22.9131 19.1866 23.0547 18.8467 22.999C18.4938 22.7192 18.9925 22.2218 19.2727 22.574Z" fill="#F6D2B7"/>
<path fill-rule="evenodd" clip-rule="evenodd" d="M9.63628 22.6802C9.6527 22.8914 9.53402 22.9678 9.31684 22.9458C9.29333 22.8985 9.27004 22.8509 9.21036 22.8396C9.11054 22.4912 9.57927 22.423 9.63628 22.6802Z" fill="#F6D2B7"/>
<path fill-rule="evenodd" clip-rule="evenodd" d="M22.4138 22.6802C22.4302 22.8914 22.3115 22.9678 22.0946 22.9458C22.0711 22.8985 22.0478 22.8509 21.9881 22.8396C21.8881 22.4912 22.3568 22.423 22.4138 22.6802Z" fill="#F6D2B7"/>
<path fill-rule="evenodd" clip-rule="evenodd" d="M25.2887 22.6271C25.3597 22.6271 25.4309 22.6271 25.5017 22.6271C25.5017 22.6979 25.5017 22.7688 25.5017 22.8396C25.3185 22.8808 25.2473 22.8099 25.2887 22.6271Z" fill="#F6D2B7"/>
<path fill-rule="evenodd" clip-rule="evenodd" d="M14.0552 23.9552C14.828 23.6322 14.7828 24.9588 14.0552 24.752C13.7235 24.6577 13.7078 24.1004 14.0552 23.9552Z" fill="#F6D2B7"/>
<path fill-rule="evenodd" clip-rule="evenodd" d="M17.2495 23.9552C18.0222 23.6322 17.9769 24.9588 17.2495 24.752C16.9177 24.6577 16.9022 24.1004 17.2495 23.9552Z" fill="#F6D2B7"/>
<path fill-rule="evenodd" clip-rule="evenodd" d="M10.8076 24.0083C10.9781 23.8589 11.3171 23.9933 11.3932 24.1146C11.5919 24.7155 10.8905 24.8567 10.6478 24.5395C10.6452 24.3067 10.6106 24.042 10.8076 24.0083Z" fill="#F6D2B7"/>
<path fill-rule="evenodd" clip-rule="evenodd" d="M20.3907 24.0083C20.5615 23.8589 20.9005 23.9933 20.9765 24.1146C21.1753 24.7155 20.4739 24.8567 20.2312 24.5395C20.2281 24.3067 20.1937 24.042 20.3907 24.0083Z" fill="#F6D2B7"/>
<path fill-rule="evenodd" clip-rule="evenodd" d="M23.6915 24.0614C23.834 24.0017 24.0793 24.0262 24.1177 24.2739C24.1769 24.6591 23.5232 24.7824 23.4786 24.3802C23.4653 24.2598 23.4631 24.1573 23.6915 24.0614Z" fill="#F6D2B7"/>
<path fill-rule="evenodd" clip-rule="evenodd" d="M26.7794 24.3802C26.7664 24.0528 27.2182 24.0528 27.2054 24.3802C27.11 24.565 26.8748 24.565 26.7794 24.3802Z" fill="#F6D2B7"/>
<path fill-rule="evenodd" clip-rule="evenodd" d="M12.5112 25.4426C12.7752 25.382 13.1188 25.4874 13.1501 25.8676C13.2093 26.5872 12.0853 26.6286 12.0853 25.9207C12.0853 25.7523 12.1317 25.5298 12.5112 25.4426Z" fill="#F6D2B7"/>
<path fill-rule="evenodd" clip-rule="evenodd" d="M15.6524 25.4426C16.4691 25.1892 16.5455 26.4015 15.8653 26.452C15.6195 26.4704 15.3065 26.3351 15.2797 25.9739C15.2564 25.6622 15.344 25.5383 15.6524 25.4426Z" fill="#F6D2B7"/>
<path fill-rule="evenodd" clip-rule="evenodd" d="M18.9 25.4426C19.164 25.382 19.5076 25.4874 19.5389 25.8676C19.5981 26.5872 18.4741 26.6286 18.4741 25.9207C18.4741 25.7523 18.5204 25.5298 18.9 25.4426Z" fill="#F6D2B7"/>
<path fill-rule="evenodd" clip-rule="evenodd" d="M9.31684 25.4958C9.6527 25.4063 9.88451 25.5821 9.90248 25.8676C9.93908 26.4462 8.99674 26.6089 8.94416 25.9739C8.92952 25.795 8.93174 25.5985 9.31684 25.4958Z" fill="#F6D2B7"/>
<path fill-rule="evenodd" clip-rule="evenodd" d="M22.0411 25.4958C22.7419 25.245 22.8901 26.3462 22.2541 26.3989C21.8124 26.4354 21.4295 25.7147 22.0411 25.4958Z" fill="#F6D2B7"/>
<path fill-rule="evenodd" clip-rule="evenodd" d="M25.7146 25.6551C25.9833 26.1208 25.4265 26.4963 25.0758 26.1864C24.8074 25.7207 25.3642 25.3452 25.7146 25.6551Z" fill="#F6D2B7"/>
<path fill-rule="evenodd" clip-rule="evenodd" d="M28.8558 25.9739C28.7493 26.2213 28.4299 26.2213 28.3236 25.9739C28.3227 25.5839 28.8562 25.5839 28.8558 25.9739Z" fill="#F6D2B7"/>
<path fill-rule="evenodd" clip-rule="evenodd" d="M10.8608 26.9832C11.2656 26.8719 11.5795 27.0627 11.6061 27.4613C11.6612 28.2867 10.4832 28.2945 10.4349 27.5676C10.4207 27.3529 10.4542 27.0952 10.8608 26.9832Z" fill="#F6D2B7"/>
<path fill-rule="evenodd" clip-rule="evenodd" d="M13.9487 26.9832C14.1042 26.9184 14.354 26.8876 14.4811 26.9301C14.507 26.9387 14.5141 27.0273 14.5343 27.0363C14.5574 27.0467 14.6228 27.0197 14.6408 27.0363C14.6858 27.078 14.6554 27.1444 14.694 27.1957C14.7038 27.2088 14.7972 27.2391 14.8005 27.2488C14.9021 27.5587 14.7737 27.8068 14.6408 27.9394C14.5419 28.0382 14.287 28.209 13.9487 28.0988C13.9227 28.0904 13.9156 28.0016 13.8955 27.9926C13.8724 27.9822 13.8069 28.0092 13.789 27.9926C13.7439 27.9509 13.7743 27.8845 13.7357 27.8332C13.726 27.8201 13.6324 27.7898 13.6293 27.7801C13.5243 27.4584 13.5867 27.1346 13.9487 26.9832Z" fill="#F6D2B7"/>
<path fill-rule="evenodd" clip-rule="evenodd" d="M17.1431 26.9832C17.2984 26.9184 17.5484 26.8876 17.6755 26.9301C17.7012 26.9387 17.7085 27.0273 17.7285 27.0363C17.7516 27.0467 17.817 27.0197 17.835 27.0363C17.88 27.078 17.8496 27.1444 17.8882 27.1957C17.898 27.2088 17.9914 27.2391 17.9945 27.2488C18.0961 27.5587 17.9678 27.8068 17.8347 27.9394C17.7358 28.0382 17.4809 28.209 17.1426 28.0988C17.1167 28.0904 17.1096 28.0016 17.0894 27.9926C17.0663 27.9822 17.0011 28.0092 16.9831 27.9926C16.9381 27.9509 16.9685 27.8845 16.9299 27.8332C16.9201 27.8201 16.8265 27.7898 16.8234 27.7801C16.7187 27.4584 16.781 27.1346 17.1431 26.9832Z" fill="#F6D2B7"/>
<path fill-rule="evenodd" clip-rule="evenodd" d="M20.4439 26.9832C20.6325 26.9323 20.8055 26.9232 20.9231 26.9832C21.0333 27.0397 21.1695 27.2623 21.1893 27.4082C21.3009 28.2345 20.0721 28.3766 20.018 27.5676C19.9927 27.1884 20.1105 27.0733 20.4439 26.9832Z" fill="#F6D2B7"/>
<path fill-rule="evenodd" clip-rule="evenodd" d="M23.6383 27.0363C23.9047 26.9542 24.3031 27.0928 24.3304 27.4613C24.3535 27.7761 24.0731 28.0293 23.8513 28.0457C23.3371 28.0835 22.975 27.2409 23.6383 27.0363Z" fill="#F6D2B7"/>
<path fill-rule="evenodd" clip-rule="evenodd" d="M26.8327 27.1426C27.6055 26.8196 27.5603 28.1462 26.8327 27.9394C26.501 27.8451 26.4851 27.2878 26.8327 27.1426Z" fill="#F6D2B7"/>
<path fill-rule="evenodd" clip-rule="evenodd" d="M30.453 27.3551C30.5089 27.6942 30.3669 27.8358 30.0271 27.7801C29.6739 27.5003 30.1726 27.0029 30.453 27.3551Z" fill="#F6D2B7"/>
<path fill-rule="evenodd" clip-rule="evenodd" d="M12.5112 28.4707C12.5336 28.4667 12.5582 28.4138 12.6177 28.4175C13.003 28.4415 13.2918 28.7425 13.3098 29.055C13.3313 29.4295 12.9709 29.7817 12.6709 29.7988C12.3468 29.8171 11.9256 29.5305 11.9256 29.1081C11.9256 28.7551 12.1667 28.5329 12.5112 28.4707Z" fill="#F6D2B7"/>
<path fill-rule="evenodd" clip-rule="evenodd" d="M15.6524 28.4707C16.6834 28.2396 16.762 29.752 15.8653 29.7988C15.4773 29.8189 15.12 29.5832 15.12 29.1081C15.12 28.7447 15.2666 28.5572 15.6524 28.4707Z" fill="#F6D2B7"/>
<path fill-rule="evenodd" clip-rule="evenodd" d="M18.9 28.4707C18.9224 28.4667 18.9472 28.4138 19.0065 28.4175C19.3918 28.4415 19.6806 28.7425 19.6983 29.055C19.7201 29.4295 19.3596 29.7817 19.0595 29.7988C18.7354 29.8171 18.3143 29.5305 18.3143 29.1081C18.3143 28.7551 18.5555 28.5329 18.9 28.4707Z" fill="#F6D2B7"/>
<path fill-rule="evenodd" clip-rule="evenodd" d="M9.2636 28.5238C9.62186 28.433 10.0622 28.6387 10.0622 29.1081C10.0622 29.4647 9.7523 29.7295 9.47656 29.7456C9.17931 29.7631 8.78445 29.5721 8.78445 29.1081C8.78445 28.7854 8.90712 28.6141 9.2636 28.5238Z" fill="#F6D2B7"/>
<path fill-rule="evenodd" clip-rule="evenodd" d="M22.0411 28.5238C22.3994 28.433 22.8397 28.6387 22.8397 29.1081C22.8397 29.4647 22.53 29.7295 22.2541 29.7456C21.9568 29.7631 21.562 29.5721 21.562 29.1081C21.562 28.7854 21.6846 28.6141 22.0411 28.5238Z" fill="#F6D2B7"/>
<path fill-rule="evenodd" clip-rule="evenodd" d="M25.342 28.5769C25.436 28.5641 25.5769 28.5369 25.6614 28.5769C25.7164 28.6028 25.9136 28.812 25.9274 28.8425C25.9911 28.9831 25.9718 29.2759 25.9274 29.3738C25.913 29.4059 25.6503 29.6443 25.6614 29.6394C25.1543 29.8683 24.6718 29.2522 24.8626 28.8425C24.8639 28.8399 25.0909 28.5933 25.1288 28.5769C25.1842 28.5532 25.2816 28.5851 25.342 28.5769Z" fill="#F6D2B7"/>
<path fill-rule="evenodd" clip-rule="evenodd" d="M28.5364 28.6832C28.6994 28.6537 28.9022 28.7179 28.9623 28.7894C29.0763 28.9255 29.0532 29.3596 28.909 29.48C28.7719 29.5947 28.3744 29.6146 28.2169 29.4269C28.1237 29.3158 28.0969 28.9249 28.2169 28.7894C28.2817 28.7161 28.4163 28.7046 28.5364 28.6832Z" fill="#F6D2B7"/>
<path fill-rule="evenodd" clip-rule="evenodd" d="M32.0502 28.9488C32.1061 29.2879 31.9639 29.4295 31.6242 29.3738C31.2711 29.0942 31.77 28.5964 32.0502 28.9488Z" fill="#F6D2B7"/>
<path fill-rule="evenodd" clip-rule="evenodd" d="M10.9673 30.0112C11.1656 29.99 11.4245 30.0425 11.5529 30.1706C11.8111 30.4283 11.7517 31.035 11.5529 31.2331C11.3169 31.4686 10.7357 31.4801 10.4881 31.2331C10.3967 31.1419 10.2658 30.8216 10.2752 30.6487C10.2807 30.548 10.3901 30.2789 10.4349 30.2237C10.5436 30.0905 10.7596 30.0334 10.9673 30.0112Z" fill="#F6D2B7"/>
<path fill-rule="evenodd" clip-rule="evenodd" d="M14.0019 30.0112C14.167 29.9663 14.2976 29.9282 14.4278 29.9581C14.6162 30.0015 14.9327 30.336 14.9602 30.5956C15.0059 31.0279 14.6812 31.4077 14.3214 31.4456C13.9691 31.4825 13.4349 31.3013 13.4695 30.6487C13.4842 30.3738 13.6117 30.1175 14.0019 30.0112Z" fill="#F6D2B7"/>
<path fill-rule="evenodd" clip-rule="evenodd" d="M17.1963 30.0112C17.3611 29.9663 17.4918 29.9282 17.6222 29.9581C17.8106 30.0015 18.1271 30.336 18.1544 30.5956C18.2001 31.0279 17.8753 31.4077 17.5155 31.4456C17.1633 31.4825 16.6291 31.3013 16.6637 30.6487C16.6786 30.3738 16.8059 30.1175 17.1963 30.0112Z" fill="#F6D2B7"/>
<path fill-rule="evenodd" clip-rule="evenodd" d="M20.5504 30.0112C20.7487 29.99 21.0076 30.0425 21.136 30.1706C21.3943 30.4283 21.3348 31.035 21.136 31.2331C20.9 31.4686 20.3188 31.4801 20.0712 31.2331C19.9799 31.1419 19.8488 30.8216 19.8583 30.6487C19.8636 30.548 19.9732 30.2789 20.018 30.2237C20.1265 30.0905 20.3428 30.0334 20.5504 30.0112Z" fill="#F6D2B7"/>
<path fill-rule="evenodd" clip-rule="evenodd" d="M23.7448 30.0644C24.0527 30.0296 24.4677 30.2525 24.4901 30.6487C24.5081 30.965 24.2162 31.3719 23.8513 31.3925C23.5218 31.411 23.0886 31.1481 23.1059 30.6487C23.1055 30.664 23.1467 30.4703 23.1591 30.4362C23.2153 30.2835 23.395 30.104 23.7448 30.0644Z" fill="#F6D2B7"/>
<path fill-rule="evenodd" clip-rule="evenodd" d="M26.8327 30.1706C27.0212 30.1197 27.1943 30.1106 27.3118 30.1706C27.4221 30.2271 27.5583 30.4497 27.578 30.5956C27.6896 31.4219 26.4611 31.564 26.4068 30.755C26.3815 30.3758 26.4993 30.2609 26.8327 30.1706Z" fill="#F6D2B7"/>
<path fill-rule="evenodd" clip-rule="evenodd" d="M30.0803 30.2769C30.2633 30.2284 30.4585 30.2671 30.5595 30.3831C30.5692 30.3946 30.6619 30.6011 30.6657 30.6487C30.6892 30.9376 30.4394 31.1636 30.2398 31.18C29.7844 31.2171 29.3873 30.4606 30.0803 30.2769Z" fill="#F6D2B7"/>
<path fill-rule="evenodd" clip-rule="evenodd" d="M33.6474 30.5425C33.703 30.8816 33.5611 31.0232 33.2214 30.9675C32.8685 30.6877 33.3672 30.1903 33.6474 30.5425Z" fill="#F6D2B7"/>
<path fill-rule="evenodd" clip-rule="evenodd" d="M12.4047 31.5518C12.5771 31.5091 12.6811 31.4686 12.8307 31.4987C13.0636 31.5456 13.3737 31.848 13.4163 32.1362C13.4895 32.6316 13.1521 33.0373 12.7774 33.0924C12.3145 33.1606 11.7574 32.8498 11.8191 32.1893C11.8442 31.9215 11.9844 31.6561 12.4047 31.5518Z" fill="#F6D2B7"/>
<path fill-rule="evenodd" clip-rule="evenodd" d="M15.5459 31.5518C15.7515 31.4916 15.9447 31.4662 16.0783 31.4987C16.2052 31.5297 16.5632 31.8374 16.6105 32.0299C16.7988 32.7931 16.088 33.2254 15.5457 33.0924C15.4177 33.061 15.0545 32.7267 15.0133 32.5612C14.9015 32.1105 15.0709 31.691 15.5459 31.5518Z" fill="#F6D2B7"/>
<path fill-rule="evenodd" clip-rule="evenodd" d="M18.7935 31.5518C18.9656 31.5091 19.0699 31.4686 19.2194 31.4987C19.4523 31.5456 19.7622 31.848 19.8051 32.1362C19.8783 32.6316 19.5411 33.0373 19.1662 33.0924C18.703 33.1606 18.146 32.8498 18.2079 32.1893C18.2329 31.9215 18.3731 31.6561 18.7935 31.5518Z" fill="#F6D2B7"/>
<path fill-rule="evenodd" clip-rule="evenodd" d="M9.21036 31.6049C9.37541 31.5629 9.49342 31.523 9.63628 31.5518C9.82306 31.5895 9.98522 31.7904 10.0622 31.8706C10.2465 32.0625 10.1498 32.7099 9.95572 32.8799C9.92067 32.9107 9.88074 32.9029 9.84924 32.933C9.75518 33.0231 9.26937 33.0935 9.05064 32.9862C9.02691 32.9744 9.01692 32.8888 8.9974 32.8799C8.97367 32.8691 8.91 32.8967 8.89093 32.8799C8.80574 32.8053 8.70126 32.5857 8.67797 32.4549C8.60986 32.0696 8.75871 31.72 9.21036 31.6049Z" fill="#F6D2B7"/>
<path fill-rule="evenodd" clip-rule="evenodd" d="M21.9346 31.6049C22.154 31.5346 22.426 31.5038 22.5737 31.6049C22.5928 31.6182 22.6099 31.7037 22.6268 31.7112C22.7095 31.7484 22.9065 31.8765 22.9462 32.0299C23.0132 32.288 22.9284 32.5824 22.8397 32.7205C22.6911 32.9518 22.1729 33.1878 21.7749 32.933C21.3614 32.6681 21.3018 31.8081 21.9346 31.6049Z" fill="#F6D2B7"/>
<path fill-rule="evenodd" clip-rule="evenodd" d="M25.2355 31.6581C26.2663 31.4272 26.3451 32.9394 25.4485 32.9862C25.0605 33.0063 24.7031 32.7708 24.7031 32.2955C24.7031 31.9321 24.8497 31.7446 25.2355 31.6581Z" fill="#F6D2B7"/>
<path fill-rule="evenodd" clip-rule="evenodd" d="M28.3766 31.7643C28.7342 31.6417 29.1093 31.7986 29.1754 32.1362C29.2487 32.5109 29.0015 32.8308 28.7495 32.8799C28.076 33.0112 27.6597 32.01 28.3766 31.7643Z" fill="#F6D2B7"/>
<path fill-rule="evenodd" clip-rule="evenodd" d="M31.7307 31.8706C31.894 31.8413 32.0968 31.9053 32.1566 31.9768C32.2709 32.1129 32.2478 32.547 32.1036 32.6674C31.9663 32.7821 31.569 32.802 31.4115 32.6143C31.3181 32.5032 31.2915 32.1123 31.4115 31.9768C31.4761 31.9035 31.6109 31.892 31.7307 31.8706Z" fill="#F6D2B7"/>
<path fill-rule="evenodd" clip-rule="evenodd" d="M35.2445 32.3487C35.1383 32.5961 34.8188 32.5961 34.7124 32.3487C34.7117 31.9587 35.2452 31.9587 35.2445 32.3487Z" fill="#F6D2B7"/>
<path fill-rule="evenodd" clip-rule="evenodd" d="M10.914 33.0924C10.9342 33.0895 10.9617 33.0313 11.0205 33.0393C11.3834 33.0891 11.5713 33.2376 11.7126 33.4643C11.7424 33.5119 11.8655 33.6991 11.8723 33.8361C11.905 34.494 11.1558 34.928 10.5946 34.5799C10.4182 34.4705 10.1687 34.2534 10.1687 33.8892C10.1687 33.7859 10.2195 33.5451 10.2752 33.4643C10.2885 33.445 10.3739 33.428 10.3816 33.4111C10.4584 33.2414 10.58 33.1391 10.914 33.0924Z" fill="#F6D2B7"/>
<path fill-rule="evenodd" clip-rule="evenodd" d="M13.9487 33.0924C14.1996 33.0211 14.318 32.9999 14.4811 33.0393C14.6461 33.0791 15.011 33.4021 15.0667 33.6768C15.1803 34.2379 14.7491 34.8479 14.0552 34.7392C13.698 34.6832 13.2721 34.3674 13.3631 33.7299C13.3948 33.5083 13.5629 33.2022 13.9487 33.0924Z" fill="#F6D2B7"/>
<path fill-rule="evenodd" clip-rule="evenodd" d="M17.1431 33.0924C17.394 33.0211 17.5124 32.9999 17.6755 33.0393C17.8405 33.0791 18.2054 33.4021 18.2611 33.6768C18.3749 34.2379 17.9434 34.8479 17.2495 34.7392C16.8924 34.6832 16.4663 34.3674 16.5574 33.7299C16.5892 33.5083 16.7573 33.2022 17.1431 33.0924Z" fill="#F6D2B7"/>
<path fill-rule="evenodd" clip-rule="evenodd" d="M20.4972 33.0924C20.5174 33.0895 20.5449 33.0313 20.6034 33.0393C20.9666 33.0891 21.1542 33.2376 21.2955 33.4643C21.3253 33.5119 21.4484 33.6991 21.4555 33.8361C21.4879 34.494 20.739 34.928 20.1775 34.5799C20.0014 34.4705 19.7516 34.2534 19.7516 33.8892C19.7516 33.7859 19.8024 33.5451 19.8581 33.4643C19.8714 33.445 19.9568 33.428 19.9643 33.4111C20.0415 33.2414 20.1631 33.1391 20.4972 33.0924Z" fill="#F6D2B7"/>
<path fill-rule="evenodd" clip-rule="evenodd" d="M23.6915 33.1455C24.7938 32.9762 24.8648 34.6861 23.798 34.6861C23.452 34.6861 22.9994 34.4333 22.9994 33.8892C22.9994 33.4731 23.2532 33.2128 23.6915 33.1455Z" fill="#F6D2B7"/>
<path fill-rule="evenodd" clip-rule="evenodd" d="M26.7794 33.2518C27.1794 33.136 27.6155 33.3171 27.6843 33.7299C27.7513 34.1305 27.4875 34.5241 27.1521 34.5799C26.8014 34.6381 26.2657 34.4902 26.3003 33.8361C26.3138 33.5825 26.4054 33.36 26.7794 33.2518Z" fill="#F6D2B7"/>
<path fill-rule="evenodd" clip-rule="evenodd" d="M30.0271 33.358C30.2154 33.3071 30.3886 33.2978 30.5062 33.358C30.6165 33.4142 30.7527 33.6371 30.7724 33.783C30.884 34.6093 29.6553 34.7514 29.6011 33.9424C29.5756 33.563 29.6936 33.4481 30.0271 33.358Z" fill="#F6D2B7"/>
<path fill-rule="evenodd" clip-rule="evenodd" d="M33.2214 33.5174C33.9941 33.1947 33.9488 34.521 33.2214 34.3142C32.8896 34.2199 32.8741 33.6626 33.2214 33.5174Z" fill="#F6D2B7"/>
<path fill-rule="evenodd" clip-rule="evenodd" d="M36.3626 33.9424C36.3497 33.615 36.8016 33.615 36.7885 33.9424C36.6931 34.1272 36.458 34.1272 36.3626 33.9424Z" fill="#F6D2B7"/>
<path fill-rule="evenodd" clip-rule="evenodd" d="M12.4047 34.633C12.9933 34.4957 13.5893 34.8827 13.5228 35.5892C13.4879 35.9582 13.1306 36.3365 12.7774 36.386C12.3384 36.4476 11.6421 36.126 11.7126 35.3767C11.7421 35.0635 11.9391 34.7414 12.4047 34.633Z" fill="#F6D2B7"/>
<path fill-rule="evenodd" clip-rule="evenodd" d="M15.5459 34.633C15.8032 34.5655 15.9081 34.5438 16.0783 34.5799C16.073 34.5787 16.212 34.6201 16.238 34.633C16.2617 34.6447 16.2717 34.7304 16.2912 34.7392C16.571 34.8649 16.8143 35.2935 16.7172 35.7486C16.6695 35.971 16.3522 36.3252 16.0783 36.386C15.8757 36.4312 15.5279 36.4035 15.3862 36.3329C15.3626 36.3212 15.3524 36.2355 15.3329 36.2267C15.2083 36.1707 15.1415 36.0943 15.0135 35.9611C14.9443 35.8891 14.8396 35.5328 14.907 35.2173C14.9472 35.0294 15.1563 34.735 15.5459 34.633Z" fill="#F6D2B7"/>
<path fill-rule="evenodd" clip-rule="evenodd" d="M18.7935 34.633C19.382 34.4957 19.9781 34.8827 19.9115 35.5892C19.8767 35.9582 19.5193 36.3365 19.1662 36.386C18.7272 36.4476 18.0308 36.126 18.1014 35.3767C18.1309 35.0635 18.3279 34.7414 18.7935 34.633Z" fill="#F6D2B7"/>
<path fill-rule="evenodd" clip-rule="evenodd" d="M9.21036 34.6861C10.0425 34.4922 10.4591 35.245 10.2219 35.8548C10.1097 36.1439 9.60544 36.4947 9.05064 36.2798C8.51159 36.0711 8.3064 34.8968 9.21036 34.6861Z" fill="#F6D2B7"/>
<path fill-rule="evenodd" clip-rule="evenodd" d="M21.9879 34.6861C22.8202 34.4922 23.2366 35.245 22.9997 35.8548C22.8872 36.1439 22.3832 36.4947 21.8284 36.2798C21.2891 36.0711 21.0839 34.8968 21.9879 34.6861Z" fill="#F6D2B7"/>
<path fill-rule="evenodd" clip-rule="evenodd" d="M25.2355 34.7392C26.3808 34.5024 26.476 36.2262 25.4485 36.2798C24.531 36.3276 24.2543 34.9422 25.2355 34.7392Z" fill="#F6D2B7"/>
<path fill-rule="evenodd" clip-rule="evenodd" d="M28.4299 34.8455C29.4607 34.6146 29.5395 36.1268 28.6428 36.1736C28.2548 36.1937 27.8977 35.9582 27.8977 35.4829C27.8975 35.1197 28.0441 34.932 28.4299 34.8455Z" fill="#F6D2B7"/>
<path fill-rule="evenodd" clip-rule="evenodd" d="M31.7307 34.9517C31.8248 34.9389 31.9656 34.9117 32.0502 34.9517C32.1052 34.9778 32.3026 35.1868 32.3164 35.2173C32.38 35.3579 32.3605 35.6507 32.3164 35.7486C32.3017 35.7809 32.0391 36.0193 32.0502 36.0142C31.5431 36.2428 31.0608 35.6268 31.2514 35.2173C31.2527 35.2145 31.4798 34.9681 31.5175 34.9517C31.573 34.9278 31.6704 34.9599 31.7307 34.9517Z" fill="#F6D2B7"/>
<path fill-rule="evenodd" clip-rule="evenodd" d="M35.2978 35.2173C35.5662 35.683 35.0096 36.0582 34.6589 35.7486C34.3905 35.2829 34.9471 34.9074 35.2978 35.2173Z" fill="#F6D2B7"/>
<path fill-rule="evenodd" clip-rule="evenodd" d="M38.3324 35.5361C38.2266 35.5367 38.2648 35.6811 38.1195 35.6423C38.0962 35.5949 38.0729 35.5474 38.0132 35.5361C38.003 35.2758 38.3424 35.2758 38.3324 35.5361Z" fill="#F6D2B7"/>
<path fill-rule="evenodd" clip-rule="evenodd" d="M13.9487 36.1736C14.1991 36.11 14.431 36.0702 14.6408 36.1736C14.6645 36.1853 14.6745 36.2709 14.694 36.2798C14.72 36.2915 14.7783 36.2632 14.8005 36.2798C14.9669 36.4046 15.1572 36.7398 15.1732 36.811C15.2318 37.0738 15.147 37.3438 15.0667 37.5016C14.8764 37.8753 14.3515 38.2122 13.789 37.9266C13.5015 37.7808 13.1226 37.4379 13.2566 36.811C13.2852 36.6773 13.5299 36.2909 13.8422 36.1736C13.873 36.162 13.9165 36.1817 13.9487 36.1736Z" fill="#F6D2B7"/>
<path fill-rule="evenodd" clip-rule="evenodd" d="M17.1431 36.1736C17.3935 36.11 17.6253 36.0702 17.8352 36.1736C17.8589 36.1853 17.8687 36.2709 17.8884 36.2798C17.9142 36.2915 17.9725 36.2632 17.9947 36.2798C18.1611 36.4046 18.3514 36.7398 18.3674 36.811C18.4261 37.0738 18.3414 37.3438 18.2611 37.5016C18.0708 37.8753 17.5459 38.2122 16.9833 37.9266C16.6959 37.7808 16.3167 37.4379 16.451 36.811C16.4796 36.6773 16.7242 36.2909 17.0366 36.1736C17.0674 36.162 17.1107 36.1817 17.1431 36.1736Z" fill="#F6D2B7"/>
<path fill-rule="evenodd" clip-rule="evenodd" d="M10.7011 36.2267C11.2026 36.0748 11.3932 36.1736 11.6594 36.4392C11.8238 36.6032 12.0514 36.9029 11.9256 37.3954C11.881 37.5698 11.5558 37.9242 11.3399 37.9797C10.8874 38.0966 10.617 37.949 10.3816 37.7141C10.217 37.5499 9.98544 37.2675 10.1154 36.7579C10.1478 36.6306 10.3719 36.3263 10.7011 36.2267Z" fill="#F6D2B7"/>
<path fill-rule="evenodd" clip-rule="evenodd" d="M20.2842 36.2267C20.7858 36.0748 20.9763 36.1736 21.2425 36.4392C21.4067 36.6032 21.6343 36.9029 21.5085 37.3954C21.4641 37.5698 21.1387 37.9242 20.9229 37.9797C20.4703 38.0966 20.1999 37.949 19.9645 37.7141C19.7999 37.5499 19.5686 37.2675 19.6983 36.7579C19.731 36.6306 19.955 36.3263 20.2842 36.2267Z" fill="#F6D2B7"/>
<path fill-rule="evenodd" clip-rule="evenodd" d="M23.5318 36.2798C23.7222 36.2267 24.054 36.2043 24.2772 36.3329C24.2991 36.3455 24.3118 36.4308 24.3304 36.4392C24.4855 36.5089 24.3868 36.3834 24.5434 36.6517C24.6525 36.8391 24.7053 37.275 24.5434 37.5548C24.5305 37.5767 24.4453 37.5893 24.4369 37.6079C24.3912 37.709 24.3768 37.7316 24.2239 37.8204C23.806 38.0632 22.8144 37.8835 22.9462 36.9173C22.9795 36.6731 23.1341 36.3907 23.5318 36.2798Z" fill="#F6D2B7"/>
<path fill-rule="evenodd" clip-rule="evenodd" d="M26.8859 36.3329C27.988 36.1636 28.0592 37.8735 26.9924 37.8735C26.6463 37.8735 26.1936 37.6207 26.1936 37.0766C26.1938 36.6605 26.4474 36.4002 26.8859 36.3329Z" fill="#F6D2B7"/>
<path fill-rule="evenodd" clip-rule="evenodd" d="M30.1335 36.4392C30.4414 36.4044 30.8567 36.6271 30.8789 37.0235C30.8969 37.3398 30.6049 37.7469 30.24 37.7673C29.9108 37.7858 29.4774 37.5227 29.4947 37.0235C29.4942 37.0388 29.5355 36.8451 29.5479 36.811C29.604 36.6583 29.7835 36.4788 30.1335 36.4392Z" fill="#F6D2B7"/>
<path fill-rule="evenodd" clip-rule="evenodd" d="M33.2214 36.5985C33.4876 36.5164 33.8863 36.655 33.9133 37.0235C33.9366 37.3383 33.656 37.5915 33.4344 37.6079C32.9202 37.6457 32.5582 36.8031 33.2214 36.5985Z" fill="#F6D2B7"/>
<path fill-rule="evenodd" clip-rule="evenodd" d="M36.4691 36.811C36.6115 36.7513 36.8568 36.7758 36.895 37.0235C36.9544 37.4089 36.3007 37.5322 36.2561 37.1298C36.2428 37.0094 36.2408 36.9069 36.4691 36.811Z" fill="#F6D2B7"/>
<path fill-rule="evenodd" clip-rule="evenodd" d="M12.458 37.7141C12.6898 37.6765 13.0725 37.711 13.3098 37.9266C13.8755 38.4404 13.5811 39.6797 12.6177 39.6797C12.411 39.6797 12.0713 39.5504 11.9256 39.4141C11.6594 39.1653 11.5176 38.5907 11.7659 38.1922C11.9047 37.9693 12.0565 37.7794 12.458 37.7141Z" fill="#F6D2B7"/>
<path fill-rule="evenodd" clip-rule="evenodd" d="M15.5459 37.7141C15.8984 37.6285 16.173 37.6592 16.3977 37.8204C16.4161 37.8337 16.4345 37.9193 16.451 37.9266C16.5384 37.9658 16.6014 37.999 16.6639 38.086C16.8006 38.2757 16.8713 38.8304 16.7704 39.0953C16.6963 39.2901 16.3653 39.5783 16.238 39.6266C15.3691 39.9555 14.3875 39.0325 14.9602 38.1391C15.0913 37.9346 15.2069 37.7965 15.5459 37.7141Z" fill="#F6D2B7"/>
<path fill-rule="evenodd" clip-rule="evenodd" d="M18.8467 37.7141C19.0788 37.6765 19.4612 37.711 19.6986 37.9266C20.2645 38.4404 19.9701 39.6797 19.0067 39.6797C18.7997 39.6797 18.4603 39.5504 18.3146 39.4141C18.0484 39.1653 17.9066 38.5907 18.1546 38.1922C18.2937 37.9693 18.4452 37.7794 18.8467 37.7141Z" fill="#F6D2B7"/>
<path fill-rule="evenodd" clip-rule="evenodd" d="M9.31684 37.7673C9.32172 37.7666 9.32549 37.713 9.37008 37.7141C9.88628 37.727 10.3595 38.1216 10.3816 38.6172C10.4074 39.1949 9.80443 39.747 9.21036 39.5734C8.82504 39.4608 8.28022 38.9816 8.51825 38.3516C8.61474 38.0962 8.89536 37.8233 9.31684 37.7673Z" fill="#F6D2B7"/>
<path fill-rule="evenodd" clip-rule="evenodd" d="M22.0944 37.7673C22.099 37.7666 22.103 37.713 22.1474 37.7141C22.6636 37.727 23.137 38.1216 23.1591 38.6172C23.1847 39.1949 22.5819 39.7472 21.9879 39.5734C21.6026 39.4608 21.0577 38.9816 21.2958 38.3516C21.3923 38.0962 21.6729 37.8233 22.0944 37.7673Z" fill="#F6D2B7"/>
<path fill-rule="evenodd" clip-rule="evenodd" d="M25.129 37.8735C25.3799 37.802 25.4984 37.781 25.6614 37.8204C25.8265 37.8602 26.1914 38.1832 26.247 38.4579C26.3608 39.019 25.9292 39.629 25.2355 39.5203C24.8783 39.4643 24.4522 39.1485 24.5434 38.511C24.5751 38.2894 24.7432 37.9833 25.129 37.8735Z" fill="#F6D2B7"/>
<path fill-rule="evenodd" clip-rule="evenodd" d="M28.3234 37.9797C28.5426 37.9094 28.8145 37.8784 28.9623 37.9797C28.9813 37.993 28.9984 38.0782 29.0153 38.086C29.098 38.1232 29.295 38.2513 29.3347 38.4047C29.4017 38.6628 29.3172 38.9572 29.2285 39.0953C29.0796 39.3264 28.5614 39.5626 28.1635 39.3078C27.7502 39.0431 27.6905 38.1829 28.3234 37.9797Z" fill="#F6D2B7"/>
<path fill-rule="evenodd" clip-rule="evenodd" d="M31.6242 38.086C31.9825 37.9952 32.4228 38.2007 32.4228 38.6703C32.4228 39.0269 32.1132 39.2917 31.8372 39.3078C31.54 39.3253 31.1451 39.1343 31.1451 38.6703C31.1451 38.3476 31.2678 38.1763 31.6242 38.086Z" fill="#F6D2B7"/>
<path fill-rule="evenodd" clip-rule="evenodd" d="M34.8186 38.2454C35.5194 37.9946 35.6676 39.0958 35.0316 39.1485C34.5897 39.185 34.207 38.4643 34.8186 38.2454Z" fill="#F6D2B7"/>
<path fill-rule="evenodd" clip-rule="evenodd" d="M38.3857 38.6172C38.4021 38.8284 38.2834 38.9048 38.0665 38.8828C38.0429 38.8355 38.0197 38.7879 37.96 38.7766C37.8599 38.4282 38.3287 38.36 38.3857 38.6172Z" fill="#F6D2B7"/>
<path fill-rule="evenodd" clip-rule="evenodd" d="M14.0019 39.2547C14.2947 39.1989 14.529 39.2456 14.8005 39.4141C14.9416 39.5015 15.0576 39.5746 15.1732 39.8391C15.4545 40.4821 15.0168 41.2962 14.2681 41.3265C14.0727 41.3345 13.8291 41.2767 13.6293 41.1671C13.6066 41.1548 13.5949 41.0695 13.576 41.0609C13.4553 41.0067 13.3495 40.9011 13.2566 40.689C13.0869 40.3012 13.1658 40.0122 13.3631 39.6797C13.4737 39.4931 13.6268 39.3264 14.0019 39.2547Z" fill="#F6D2B7"/>
<path fill-rule="evenodd" clip-rule="evenodd" d="M17.1963 39.2547C17.4889 39.1989 17.7234 39.2456 17.9949 39.4141C18.136 39.5015 18.2518 39.5746 18.3676 39.8391C18.6491 40.4821 18.2114 41.2962 17.4627 41.3265C17.2671 41.3345 17.0237 41.2767 16.8236 41.1671C16.801 41.1548 16.7895 41.0695 16.7706 41.0609C16.6497 41.0064 16.5439 40.9011 16.4512 40.689C16.2815 40.3012 16.3604 40.0122 16.5577 39.6797C16.6681 39.4931 16.8214 39.3264 17.1963 39.2547Z" fill="#F6D2B7"/>
<path fill-rule="evenodd" clip-rule="evenodd" d="M10.8076 39.3078C11.4154 39.1821 12.0321 39.6144 12.0321 40.264C12.0321 40.8141 11.5407 41.2734 11.0205 41.2734C10.4926 41.2734 9.98189 40.8783 10.009 40.2109C10.0283 39.7322 10.2831 39.4163 10.8076 39.3078Z" fill="#F6D2B7"/>
<path fill-rule="evenodd" clip-rule="evenodd" d="M20.3907 39.3078C20.9985 39.1821 21.6154 39.6144 21.6154 40.264C21.6154 40.8141 21.1238 41.2734 20.6036 41.2734C20.0757 41.2734 19.565 40.8783 19.5921 40.2109C19.6114 39.7322 19.8661 39.4163 20.3907 39.3078Z" fill="#F6D2B7"/>
<path fill-rule="evenodd" clip-rule="evenodd" d="M23.4786 39.4141C23.9804 39.2622 24.1707 39.361 24.4369 39.6266C24.6013 39.7906 24.8289 40.0903 24.7031 40.5828C24.6587 40.7572 24.3331 41.1116 24.1175 41.1671C23.6649 41.284 23.3945 41.1364 23.1591 40.9015C22.9945 40.7373 22.763 40.4548 22.893 39.9453C22.9253 39.818 23.1494 39.5137 23.4786 39.4141Z" fill="#F6D2B7"/>
<path fill-rule="evenodd" clip-rule="evenodd" d="M26.8327 39.4672C27.2058 39.3999 27.4838 39.5174 27.6315 39.6797C27.6836 39.7372 27.8369 40.046 27.8445 40.2109C27.8964 41.3588 26.1406 41.419 26.1406 40.264C26.1406 40.1565 26.1696 40.0104 26.1938 39.9453C26.283 39.708 26.4826 39.5303 26.8327 39.4672Z" fill="#F6D2B7"/>
<path fill-rule="evenodd" clip-rule="evenodd" d="M30.0803 39.5734C30.3571 39.5296 30.5981 39.6122 30.7192 39.7328C31.1007 40.1133 30.8412 40.9777 30.24 41.0078C29.8223 41.0288 29.2784 40.5529 29.4947 39.9984C29.5821 39.7742 29.7498 39.6259 30.0803 39.5734Z" fill="#F6D2B7"/>
<path fill-rule="evenodd" clip-rule="evenodd" d="M33.2214 39.7328C33.4098 39.6819 33.5828 39.6728 33.7004 39.7328C33.8106 39.789 33.9468 40.0119 33.9666 40.1578C34.0784 40.9841 32.8497 41.1262 32.7953 40.3172C32.77 39.938 32.888 39.8229 33.2214 39.7328Z" fill="#F6D2B7"/>
<path fill-rule="evenodd" clip-rule="evenodd" d="M36.3626 39.9453C36.5334 39.7959 36.8723 39.9303 36.9484 40.0516C37.1472 40.6525 36.4458 40.7937 36.2031 40.4765C36.2 40.2437 36.1656 39.979 36.3626 39.9453Z" fill="#F6D2B7"/>
<path fill-rule="evenodd" clip-rule="evenodd" d="M16.6639 42.6015C17.5002 41.9002 18.6815 42.6382 18.5273 43.6639C18.4945 43.8826 18.384 43.9798 18.2611 44.1952C18.5422 44.0571 18.6473 43.9484 18.9 43.9296C19.6291 43.8753 20.1458 44.4708 20.1247 45.0983C20.0994 45.8418 19.0652 46.5547 18.3146 45.8951C18.2635 46.0377 18.4891 46.1539 18.5275 46.3732C18.6571 47.1174 18.0883 47.8879 17.1965 47.7544C16.9774 47.7217 16.8798 47.6114 16.6641 47.4888C16.7864 47.7462 16.9106 47.8636 16.9303 48.1263C16.9842 48.8494 16.4372 49.3096 15.9188 49.3484C15.0217 49.415 14.2828 48.3198 14.9605 47.5422C14.8176 47.4913 14.7011 47.7164 14.4813 47.7547C13.7353 47.8839 12.9635 47.3164 13.0971 46.4266C13.1299 46.2079 13.2404 46.1105 13.3633 45.8953C13.0574 46.0262 12.9451 46.1521 12.6712 46.161C12.0108 46.1824 11.4999 45.6306 11.4999 45.0454C11.4999 44.5199 11.9096 43.9298 12.6179 43.9298C12.909 43.9298 13.0747 44.0407 13.31 44.1954C13.35 44.0602 13.1304 43.9105 13.0971 43.6642C12.9618 42.6604 14.1344 41.9118 14.9605 42.6017C14.8467 42.325 14.7034 42.194 14.6943 41.9111C14.671 41.1973 15.2429 40.7592 15.7591 40.7424C16.6005 40.7149 17.2753 41.699 16.7174 42.4955C16.7069 42.5382 16.6637 42.5481 16.6639 42.6015ZM15.1732 44.0358C15.3458 44.0117 15.4374 43.9001 15.6524 43.8764C16.0437 43.8331 16.2892 44.0374 16.451 43.9827C16.2797 43.816 16.2389 43.4866 16.2912 43.1858C16.3329 42.9472 16.5743 42.8144 16.5042 42.7077C16.3154 42.8447 16.0982 42.9733 15.8121 42.9733C15.443 42.9733 15.2486 42.7192 15.0667 42.7608C15.3842 42.9598 15.4161 43.7261 15.1732 44.0358ZM13.7357 45.0983C13.7255 45.4086 13.4891 45.6076 13.5228 45.7889C13.7036 45.4693 14.507 45.429 14.8005 45.6826C14.7051 45.4469 14.5993 45.1642 14.6408 44.8327C14.6628 44.6571 14.8509 44.5272 14.7473 44.4077C14.5822 44.558 14.2721 44.6142 14.0019 44.567C13.7626 44.5252 13.5858 44.3207 13.4695 44.3545C13.6197 44.5507 13.7455 44.8006 13.7357 45.0983ZM16.8236 44.4077C16.919 44.6434 17.0248 44.9261 16.9836 45.2576C16.9614 45.4334 16.7735 45.5631 16.8771 45.6826C17.0111 45.4799 17.3929 45.5244 17.7289 45.5233C17.8358 45.5961 18.0967 45.7902 18.1548 45.7358C17.9825 45.5469 17.8354 45.2008 17.8889 44.8858C17.9321 44.6303 18.1367 44.4477 18.1018 44.3014C17.9206 44.621 17.1171 44.6611 16.8236 44.4077ZM15.9718 47.117C16.2278 47.1601 16.4108 47.3642 16.5574 47.3295C16.2371 47.1491 16.1967 46.3471 16.451 46.0543C16.2147 46.1494 15.9314 46.255 15.5991 46.2139C15.4232 46.1917 15.293 46.0042 15.1732 46.1076C15.3764 46.2413 15.3318 46.6222 15.3329 46.9576C15.2599 47.0643 15.0654 47.3246 15.12 47.3826C15.309 47.2104 15.6561 47.0636 15.9718 47.117Z" fill="#F6D2B7"/>
<path fill-rule="evenodd" clip-rule="evenodd" d="M12.3515 40.8484C12.3828 40.8413 12.712 40.7601 12.8839 40.7953C13.2007 40.8601 13.6208 41.278 13.6825 41.6453C13.7992 42.341 13.2559 43.0262 12.458 42.9202C11.9389 42.8512 11.2714 42.1475 11.6594 41.3796C11.7843 41.1324 11.9737 40.935 12.3515 40.8484Z" fill="#F6D2B7"/>
<path fill-rule="evenodd" clip-rule="evenodd" d="M18.2611 42.6546C17.9931 42.4065 17.8853 42.142 17.9417 41.6984C18.0306 41.0007 18.6393 40.6797 19.2727 40.7953C19.6163 40.8579 20.0043 41.2544 20.0715 41.5921C20.2665 42.5754 19.0646 43.3985 18.2611 42.6546Z" fill="#F6D2B7"/>
<path fill-rule="evenodd" clip-rule="evenodd" d="M9.2636 40.9015C9.49542 40.8639 9.87808 40.8984 10.1154 41.114C10.6811 41.6278 10.387 42.8671 9.42332 42.8671C9.21635 42.8671 8.87695 42.7378 8.73121 42.6015C8.46501 42.3527 8.32326 41.7781 8.57149 41.3796C8.71036 41.1567 8.86209 40.9668 9.2636 40.9015Z" fill="#F6D2B7"/>
<path fill-rule="evenodd" clip-rule="evenodd" d="M22.0411 40.9015C22.6099 40.8121 23.2124 41.1946 23.2124 41.8577C23.2124 42.3571 22.7922 42.8456 22.2541 42.8671C21.7554 42.8868 21.1893 42.5685 21.1893 41.8577C21.1893 41.2909 21.5081 40.9854 22.0411 40.9015Z" fill="#F6D2B7"/>
<path fill-rule="evenodd" clip-rule="evenodd" d="M25.1823 41.0078C25.3566 40.9695 25.6079 40.9538 25.8211 41.0609C26.0119 41.157 26.2712 41.3898 26.3003 41.7515C26.3398 42.2449 25.9722 42.8242 25.342 42.7608C24.9307 42.7195 24.4345 42.4472 24.4901 41.7515C24.5161 41.4266 24.7018 41.1134 25.1823 41.0078Z" fill="#F6D2B7"/>
<path fill-rule="evenodd" clip-rule="evenodd" d="M28.3766 41.114C28.549 41.0713 28.653 41.0308 28.8025 41.0609C29.0357 41.1078 29.3456 41.4102 29.3884 41.6984C29.4616 42.194 29.1242 42.5995 28.7495 42.6546C28.2863 42.7228 27.7293 42.412 27.7912 41.7515C27.8158 41.4837 27.9563 41.2183 28.3766 41.114Z" fill="#F6D2B7"/>
<path fill-rule="evenodd" clip-rule="evenodd" d="M31.6775 41.2203C31.6999 41.2161 31.7247 41.1634 31.784 41.1671C32.1693 41.1911 32.4581 41.4921 32.4761 41.8046C32.4976 42.1791 32.1371 42.5313 31.8372 42.5484C31.5131 42.5667 31.0919 42.2799 31.0919 41.8577C31.0919 41.5047 31.333 41.2825 31.6775 41.2203Z" fill="#F6D2B7"/>
<path fill-rule="evenodd" clip-rule="evenodd" d="M34.8719 41.3796C35.1358 41.319 35.4795 41.4244 35.5107 41.8046C35.57 42.5242 34.446 42.5656 34.446 41.8577C34.446 41.6893 34.4923 41.4669 34.8719 41.3796Z" fill="#F6D2B7"/>
<path fill-rule="evenodd" clip-rule="evenodd" d="M38.4389 41.6984C38.4948 42.0375 38.3529 42.1791 38.013 42.1234C37.6598 41.8438 38.1585 41.3462 38.4389 41.6984Z" fill="#F6D2B7"/>
<path fill-rule="evenodd" clip-rule="evenodd" d="M10.8076 42.4421C11.1004 42.3861 11.3346 42.433 11.6061 42.6015C11.7472 42.6891 11.863 42.762 11.9788 43.0265C12.2601 43.6697 11.8224 44.4836 11.0737 44.5139C10.8783 44.5219 10.6347 44.4641 10.4349 44.3545C10.4122 44.3421 10.4007 44.2569 10.3816 44.2483C10.261 44.1941 10.1549 44.0885 10.0622 43.8764C9.8925 43.4884 9.97125 43.1993 10.1687 42.8671C10.2794 42.6805 10.4327 42.5136 10.8076 42.4421Z" fill="#F6D2B7"/>
<path fill-rule="evenodd" clip-rule="evenodd" d="M20.3907 42.4421C20.6835 42.3861 20.918 42.433 21.1895 42.6015C21.3306 42.6891 21.4464 42.762 21.5622 43.0265C21.8437 43.6697 21.4058 44.4836 20.6571 44.5139C20.4617 44.5219 20.2181 44.4641 20.0182 44.3545C19.9956 44.3421 19.9841 44.2569 19.965 44.2483C19.8443 44.1941 19.7385 44.0885 19.6458 43.8764C19.4759 43.4884 19.5548 43.1993 19.752 42.8671C19.8625 42.6805 20.0156 42.5136 20.3907 42.4421Z" fill="#F6D2B7"/>
<path fill-rule="evenodd" clip-rule="evenodd" d="M23.5318 42.5484C23.7823 42.4848 24.0141 42.445 24.2239 42.5484C24.2477 42.5601 24.2577 42.6457 24.2772 42.6546C24.3029 42.6661 24.3615 42.6378 24.3834 42.6546C24.5498 42.7794 24.7401 43.1143 24.7563 43.1858C24.8149 43.4486 24.7302 43.7186 24.6499 43.8764C24.4597 44.2498 23.9347 44.5867 23.3721 44.3014C23.0846 44.1556 22.7055 43.8125 22.8397 43.1858C22.8683 43.0521 23.113 42.6657 23.4256 42.5484C23.4562 42.5366 23.4997 42.5565 23.5318 42.5484Z" fill="#F6D2B7"/>
<path fill-rule="evenodd" clip-rule="evenodd" d="M26.7262 42.6546C26.9165 42.6015 27.2484 42.5789 27.4713 42.7077C27.4933 42.7203 27.5062 42.8056 27.5246 42.814C27.6799 42.8837 27.5811 42.7582 27.7375 43.0265C27.8469 43.2139 27.8997 43.6498 27.7375 43.9296C27.7249 43.9515 27.6395 43.9641 27.6313 43.9827C27.5856 44.0838 27.5712 44.1064 27.4183 44.1952C27.0004 44.4378 26.0088 44.258 26.1403 43.2921C26.1738 43.0482 26.3282 42.7655 26.7262 42.6546Z" fill="#F6D2B7"/>
<path fill-rule="evenodd" clip-rule="evenodd" d="M29.9738 42.7608C30.4248 42.6409 30.6781 42.7839 30.8789 43.1327C31.1025 43.5212 30.7416 44.1321 30.3465 44.1952C29.9598 44.2569 29.3718 43.9986 29.4416 43.3452C29.4669 43.1061 29.5918 42.8622 29.9738 42.7608Z" fill="#F6D2B7"/>
<path fill-rule="evenodd" clip-rule="evenodd" d="M33.3279 42.8671C34.2323 42.7573 34.1715 44.1434 33.3279 44.0889C32.6928 44.048 32.4874 42.9691 33.3279 42.8671Z" fill="#F6D2B7"/>
<path fill-rule="evenodd" clip-rule="evenodd" d="M36.4158 43.0796C37.1887 42.7566 37.1434 44.0832 36.4158 43.8764C36.0842 43.7821 36.0682 43.2248 36.4158 43.0796Z" fill="#F6D2B7"/>
<path fill-rule="evenodd" clip-rule="evenodd" d="M39.6634 43.2921C39.856 43.2416 39.7377 43.5013 39.7699 43.6108C39.5687 43.6564 39.5814 43.3731 39.6634 43.2921Z" fill="#F6D2B7"/>
<path fill-rule="evenodd" clip-rule="evenodd" d="M21.9346 44.0889C22.2871 44.0033 22.5617 44.034 22.7867 44.1952C22.8051 44.2085 22.8233 44.2939 22.8397 44.3014C22.9271 44.3406 22.9901 44.3738 23.0527 44.4608C23.1893 44.6505 23.2601 45.2052 23.1591 45.4701C23.0851 45.6651 22.7541 45.9533 22.6268 46.0014C21.7581 46.3303 20.7762 45.4073 21.349 44.5139C21.4801 44.3094 21.5957 44.1713 21.9346 44.0889Z" fill="#F6D2B7"/>
<path fill-rule="evenodd" clip-rule="evenodd" d="M25.129 44.1952C25.3779 44.133 25.5356 44.1162 25.6614 44.1421C26.0059 44.2129 26.4383 44.6545 26.3003 45.3108C26.1131 46.201 24.6643 46.1227 24.4901 45.3108C24.365 44.7269 24.641 44.3171 25.129 44.1952Z" fill="#F6D2B7"/>
<path fill-rule="evenodd" clip-rule="evenodd" d="M28.3234 44.3014C28.529 44.241 28.722 44.2158 28.8556 44.2483C28.9827 44.2793 29.3407 44.587 29.388 44.7795C29.5763 45.5427 28.8653 45.975 28.3232 45.842C28.1952 45.8106 27.8318 45.4766 27.7908 45.311C27.679 44.8601 27.8487 44.4409 28.3234 44.3014Z" fill="#F6D2B7"/>
<path fill-rule="evenodd" clip-rule="evenodd" d="M31.6242 44.4077C32.6551 44.1766 32.7339 45.689 31.8372 45.7358C31.4492 45.7559 31.0919 45.5202 31.0919 45.0451C31.0919 44.6817 31.2385 44.4942 31.6242 44.4077Z" fill="#F6D2B7"/>
<path fill-rule="evenodd" clip-rule="evenodd" d="M34.8186 44.567C35.6356 44.3136 35.7117 45.5259 35.0316 45.5766C34.786 45.5948 34.4728 45.4597 34.446 45.0985C34.4229 44.7866 34.5103 44.6627 34.8186 44.567Z" fill="#F6D2B7"/>
<path fill-rule="evenodd" clip-rule="evenodd" d="M38.0662 44.7795C38.2087 44.7198 38.454 44.7443 38.4922 44.992C38.5516 45.3772 37.8976 45.5007 37.8533 45.0983C37.84 44.9779 37.8378 44.8754 38.0662 44.7795Z" fill="#F6D2B7"/>
<path fill-rule="evenodd" clip-rule="evenodd" d="M20.3907 45.6295C20.6835 45.5737 20.918 45.6207 21.1895 45.7891C21.3306 45.8765 21.4464 45.9496 21.5622 46.2141C21.8437 46.8571 21.4058 47.6712 20.6571 47.7015C20.4617 47.7093 20.2181 47.6517 20.0182 47.5422C19.9956 47.5298 19.9841 47.4446 19.965 47.4359C19.8443 47.3817 19.7385 47.2761 19.6458 47.0641C19.4759 46.676 19.5548 46.387 19.752 46.0545C19.8625 45.8681 20.0156 45.7012 20.3907 45.6295Z" fill="#F6D2B7"/>
<path fill-rule="evenodd" clip-rule="evenodd" d="M23.5318 45.7358C24.0187 45.614 24.255 45.7134 24.4901 45.9482C24.6649 46.1227 24.867 46.6397 24.7031 47.0638C24.6428 47.2199 24.3608 47.4893 24.2239 47.5419C23.5369 47.8065 22.5924 47.3255 22.893 46.3199C22.9573 46.1052 23.1035 45.8429 23.5318 45.7358Z" fill="#F6D2B7"/>
<path fill-rule="evenodd" clip-rule="evenodd" d="M26.7262 45.842C26.9165 45.7891 27.2484 45.7665 27.4713 45.8951C27.4933 45.908 27.5062 45.993 27.5246 46.0014C27.6799 46.0711 27.5811 45.9454 27.7375 46.2139C27.8469 46.4013 27.8997 46.8372 27.7375 47.117C27.7249 47.1389 27.6395 47.1515 27.6313 47.1699C27.5856 47.271 27.5712 47.2936 27.4183 47.3824C27.0004 47.6252 26.0088 47.4454 26.1403 46.4795C26.1738 46.2353 26.3282 45.9529 26.7262 45.842Z" fill="#F6D2B7"/>
<path fill-rule="evenodd" clip-rule="evenodd" d="M29.9738 45.9482C30.4248 45.8285 30.6781 45.9713 30.8789 46.3201C31.1025 46.7086 30.7416 47.3197 30.3465 47.3826C29.9598 47.4443 29.3718 47.186 29.4416 46.5326C29.4669 46.2935 29.5918 46.0496 29.9738 45.9482Z" fill="#F6D2B7"/>
<path fill-rule="evenodd" clip-rule="evenodd" d="M33.3279 46.0545C34.2323 45.9449 34.1715 47.331 33.3279 47.2766C32.6928 47.2354 32.4874 46.1565 33.3279 46.0545Z" fill="#F6D2B7"/>
<path fill-rule="evenodd" clip-rule="evenodd" d="M36.4158 46.267C37.1887 45.9443 37.1434 47.2706 36.4158 47.0641C36.0842 46.9695 36.0682 46.4122 36.4158 46.267Z" fill="#F6D2B7"/>
<path fill-rule="evenodd" clip-rule="evenodd" d="M39.6634 46.4795C39.856 46.429 39.7377 46.6884 39.7699 46.798C39.5687 46.8438 39.5814 46.5605 39.6634 46.4795Z" fill="#F6D2B7"/>
<path fill-rule="evenodd" clip-rule="evenodd" d="M18.2079 47.4888C18.4565 47.2214 18.7216 47.1139 19.1662 47.1701C19.8654 47.2588 20.1873 47.8662 20.0712 48.4982C20.0085 48.841 19.6112 49.2282 19.2724 49.2952C18.2873 49.4898 17.4621 48.2905 18.2079 47.4888Z" fill="#F6D2B7"/>
<path fill-rule="evenodd" clip-rule="evenodd" d="M22.0411 47.2763C22.6099 47.1869 23.2124 47.5694 23.2124 48.2325C23.2124 48.7319 22.7922 49.2204 22.2541 49.2419C21.7554 49.2616 21.1893 48.9433 21.1893 48.2325C21.1893 47.6657 21.5081 47.3602 22.0411 47.2763Z" fill="#F6D2B7"/>
<path fill-rule="evenodd" clip-rule="evenodd" d="M25.1823 47.3826C25.3566 47.3443 25.6079 47.3286 25.8211 47.4357C26.015 47.5333 26.2719 47.7721 26.3003 48.1263C26.3409 48.6336 25.9622 49.1981 25.342 49.1359C24.9307 49.0943 24.4345 48.8222 24.4901 48.1263C24.5161 47.8014 24.7018 47.4882 25.1823 47.3826Z" fill="#F6D2B7"/>
<path fill-rule="evenodd" clip-rule="evenodd" d="M28.3766 47.4888C28.549 47.4461 28.653 47.4056 28.8025 47.4357C29.0357 47.4826 29.3456 47.785 29.3884 48.0732C29.4616 48.5688 29.1242 48.9743 28.7495 49.0294C28.2863 49.0976 27.7293 48.7868 27.7912 48.1263C27.8158 47.8585 27.9563 47.5931 28.3766 47.4888Z" fill="#F6D2B7"/>
<path fill-rule="evenodd" clip-rule="evenodd" d="M31.6775 47.5951C31.6999 47.5911 31.7247 47.5384 31.784 47.5422C32.1693 47.5659 32.4581 47.8671 32.4761 48.1796C32.4976 48.5539 32.1371 48.9061 31.8372 48.9232C31.5131 48.9417 31.0919 48.6549 31.0919 48.2328C31.0919 47.8795 31.333 47.6573 31.6775 47.5951Z" fill="#F6D2B7"/>
<path fill-rule="evenodd" clip-rule="evenodd" d="M34.8719 47.7544C35.1358 47.6938 35.4795 47.7989 35.5107 48.1794C35.57 48.899 34.446 48.9404 34.446 48.2325C34.446 48.0641 34.4923 47.8419 34.8719 47.7544Z" fill="#F6D2B7"/>
<path fill-rule="evenodd" clip-rule="evenodd" d="M38.4389 48.0732C38.4948 48.4123 38.3529 48.5539 38.013 48.4982C37.6598 48.2186 38.1585 47.721 38.4389 48.0732Z" fill="#F6D2B7"/>
<path fill-rule="evenodd" clip-rule="evenodd" d="M26.8327 49.0294C27.2058 48.9621 27.4838 49.0796 27.6315 49.2419C27.6836 49.2994 27.8369 49.6082 27.8445 49.7731C27.8964 50.921 26.1406 50.9812 26.1406 49.826C26.1406 49.7187 26.1696 49.5724 26.1938 49.5075C26.283 49.2702 26.4826 49.0925 26.8327 49.0294Z" fill="#F6D2B7"/>
<path fill-rule="evenodd" clip-rule="evenodd" d="M33.2214 49.295C33.4098 49.2441 33.5828 49.235 33.7004 49.295C33.8106 49.3512 33.9468 49.5741 33.9666 49.72C34.0784 50.5463 32.8497 50.6882 32.7953 49.8794C32.77 49.5002 32.888 49.3851 33.2214 49.295Z" fill="#F6D2B7"/>
<path fill-rule="evenodd" clip-rule="evenodd" d="M36.3626 49.5075C36.5334 49.3579 36.8723 49.4925 36.9484 49.6135C37.1472 50.2147 36.4458 50.3559 36.2031 50.0385C36.2 49.8059 36.1656 49.5414 36.3626 49.5075Z" fill="#F6D2B7"/>
</g>
<path d="M32.4374 20.9245C27.4005 20.8527 17.4993 22.2169 18.1901 28.248C19.0536 35.7868 31.7898 32.1251 30.9263 30.1865C30.0628 28.248 18.1901 31.2635 19.917 36.433C21.644 41.6025 32.2215 40.3101 32.0056 37.9408C31.7898 35.5714 20.5647 39.0178 22.0757 43.9719C23.2846 47.9352 32.0056 46.9874 35.6754 45.0489" stroke="#B98478" stroke-width="2" stroke-linejoin="round"/>
<ellipse cx="2.15629" cy="2.37198" rx="2.15629" ry="2.37198" transform="matrix(0.704005 -0.710195 0.711735 0.702449 4.62207 41.4678)" fill="#1AE69B"/>
</svg>
